<?xml version="1.0" encoding="utf-8"?>
<!-- Generator: Adobe Illustrator 28.0.0, SVG Export Plug-In . SVG Version: 6.00 Build 0)  -->
<svg version="1.1" id="Layer_1" xmlns="http://www.w3.org/2000/svg" xmlns:xlink="http://www.w3.org/1999/xlink" x="0px" y="0px"
	 viewBox="0 0 660.51 575.43" style="enable-background:new 0 0 660.51 575.43;" xml:space="preserve">
<style type="text/css">
	.st0{clip-path:url(#SVGID_00000074442695566778837290000012209036223124171150_);}
	.st1{clip-path:url(#SVGID_00000041255177103026073790000003256491571666010264_);fill:#FFFFFF;}
	.st2{fill:#FFFFFF;}
	.st3{font-family:'AvenirNextLTPro-Bold';}
	.st4{font-size:43.2255px;}
	.st5{clip-path:url(#SVGID_00000104699596824725101390000005580765299069970076_);fill:#FFFFFF;}
	
		.st6{clip-path:url(#SVGID_00000104699596824725101390000005580765299069970076_);fill:none;stroke:#FFFFFF;stroke-width:2.1613;stroke-miterlimit:10;}
	.st7{clip-path:url(#SVGID_00000104699596824725101390000005580765299069970076_);fill:#4A688B;}
</style>
<g>
	<g>
		<defs>
			<rect id="SVGID_1_" y="0" width="660.51" height="575.43"/>
		</defs>
		<clipPath id="SVGID_00000173873343616703868150000002322894363489260193_">
			<use xlink:href="#SVGID_1_"  style="overflow:visible;"/>
		</clipPath>
		<g style="clip-path:url(#SVGID_00000173873343616703868150000002322894363489260193_);">
			<defs>
				<rect id="SVGID_00000008106729158566984470000007524548850024484500_" y="0" width="660.51" height="575.43"/>
			</defs>
			<clipPath id="SVGID_00000013152717740217160540000013430122541787631261_">
				<use xlink:href="#SVGID_00000008106729158566984470000007524548850024484500_"  style="overflow:visible;"/>
			</clipPath>
			<path style="clip-path:url(#SVGID_00000013152717740217160540000013430122541787631261_);fill:#FFFFFF;" d="M500.64,396.86
				c-0.55,0.85-1.1,1.71-1.67,2.56c-7.49,11.1-16.07,21.45-25.56,30.88c-9.52,9.4-19.97,17.85-31.17,25.13
				c-11.18,7.3-23.11,13.42-35.48,18.34c-24.77,9.83-51.33,14.7-77.87,14.71c-26.54-0.08-53.07-4.9-77.9-14.61
				c-12.4-4.87-24.36-10.97-35.53-18.3c-1.42-0.88-2.76-1.89-4.14-2.83l-4.11-2.87c-2.67-2.01-5.28-4.1-7.93-6.14
				c-2.56-2.15-5.08-4.35-7.62-6.53l-7.25-6.94c-9.44-9.47-17.88-19.94-25.17-31.13c-2.73-4.19-5.3-8.49-7.7-12.87
				c-0.16,1.34-0.92,2.58-1.98,3.4c9.25,15.43,20.41,29.67,33.12,42.34c19.21,19.06,41.88,34.66,66.78,45.56
				c12.45,5.44,25.47,9.66,38.82,12.45c13.34,2.81,26.99,4.19,40.63,4.19c13.64-0.03,27.28-1.44,40.62-4.22
				c13.34-2.79,26.38-6.94,38.86-12.33c24.97-10.79,47.67-26.47,66.71-45.69c9.53-9.61,18.1-20.15,25.58-31.42
				c0.63-0.94,1.24-1.89,1.85-2.84C501.83,397.55,501.19,397.26,500.64,396.86"/>
			<path style="clip-path:url(#SVGID_00000013152717740217160540000013430122541787631261_);fill:#FFFFFF;" d="M159.25,172.44
				c7.29-11.18,15.72-21.66,25.16-31.13l7.25-6.94c2.53-2.19,5.05-4.38,7.61-6.54c2.65-2.05,5.25-4.14,7.93-6.14l4.1-2.88
				c1.38-0.94,2.72-1.94,4.14-2.83l4.25-2.66l2.12-1.33c0.71-0.45,1.41-0.89,2.15-1.29l4.38-2.44l2.19-1.21l1.09-0.61l1.12-0.56
				l4.49-2.21l2.24-1.11l1.12-0.55l1.15-0.5l4.6-1.98c1.54-0.64,3.04-1.36,4.62-1.91c24.83-9.76,51.41-14.48,77.94-14.52
				c26.54,0.02,53.08,4.94,77.84,14.74c12.37,4.91,24.3,11.03,35.49,18.31c11.2,7.28,21.65,15.72,31.18,25.11
				c9.5,9.42,18.07,19.78,25.56,30.88c7.46,11.12,13.83,22.97,18.96,35.34c10.26,24.74,15.51,51.52,15.5,78.3
				c0,15.74-1.82,31.47-5.4,46.79c0.06,0,0.12-0.01,0.19-0.01c0.58,0.01,1.19,0.15,1.77,0.39c3.62-15.45,5.48-31.31,5.49-47.18
				c-0.03-27.04-5.36-54.08-15.75-79.05c-5.17-12.49-11.56-24.47-19.07-35.72c-7.47-11.27-16.05-21.81-25.57-31.43
				c-9.51-9.62-19.96-18.34-31.13-26.02c-11.17-7.68-23.08-14.33-35.57-19.72c-12.48-5.4-25.52-9.56-38.87-12.33l-5.03-0.94
				l-2.51-0.47l-1.26-0.23c-0.42-0.07-0.84-0.12-1.27-0.18l-5.07-0.68c-1.69-0.21-3.38-0.49-5.08-0.62c-3.4-0.26-6.8-0.56-10.2-0.78
				l-10.22-0.28l-10.23,0.29c-3.4,0.22-6.8,0.52-10.2,0.78c-0.85,0.05-1.69,0.19-2.54,0.3l-2.53,0.35l-5.06,0.69
				c-0.42,0.06-0.85,0.11-1.27,0.18l-1.26,0.24l-2.51,0.47l-5.02,0.95c-13.33,2.83-26.35,7.03-38.8,12.46
				c-24.9,10.87-47.6,26.43-66.82,45.49c-19.17,19.1-34.87,41.77-45.68,66.74c-5.4,12.47-9.57,25.52-12.33,38.86
				c-2.8,13.34-4.15,26.99-4.2,40.63l0.29,10.22c0.22,3.4,0.52,6.8,0.78,10.2c0.34,3.39,0.87,6.76,1.31,10.14
				c0.06,0.42,0.11,0.85,0.18,1.27l0.24,1.26l0.47,2.51l0.94,5.02c0.35,1.67,0.71,3.33,1.1,4.98c1.43-1.06,3.6-1.15,5.3-0.28
				c-3.22-14.89-4.84-30.11-4.85-45.32c0.01-26.54,4.91-53.09,14.72-77.85C145.83,195.55,151.96,183.63,159.25,172.44"/>
			<path style="clip-path:url(#SVGID_00000013152717740217160540000013430122541787631261_);fill:#FFFFFF;" d="M106.7,136.83
				c9.63-14.67,20.73-28.4,33.14-40.85l9.53-9.1c3.32-2.88,6.63-5.76,9.99-8.59c3.47-2.69,6.9-5.44,10.41-8.08l5.39-3.79l2.7-1.89
				c0.9-0.63,1.79-1.28,2.73-1.84l5.57-3.51l2.78-1.76c0.93-0.59,1.85-1.18,2.82-1.7l5.74-3.22l2.87-1.61l1.44-0.8l1.47-0.74
				l5.89-2.93l2.94-1.47l1.47-0.73l1.51-0.66l6.03-2.63l3.01-1.31c0.5-0.21,1-0.45,1.51-0.64l1.54-0.58
				c32.58-12.98,67.55-19.35,102.47-19.4c34.93,0.03,69.86,6.59,102.38,19.61c16.25,6.52,31.89,14.63,46.57,24.24
				c14.69,9.61,28.4,20.73,40.89,33.09c12.46,12.39,23.71,26.01,33.54,40.59c9.79,14.6,18.15,30.17,24.89,46.41
				c6.73,16.25,11.84,33.16,15.25,50.41c3.41,17.25,5.11,34.83,5.12,52.42c-0.01,17.52-1.7,35.04-5.09,52.23
				c0.67-0.09,1.36-0.04,2.01,0.13c3.39-17.23,5.1-34.8,5.13-52.36c-0.03-17.72-1.76-35.43-5.22-52.81
				c-3.45-17.38-8.62-34.41-15.41-50.77c-6.77-16.37-15.16-32.07-25-46.8c-9.8-14.76-21.06-28.56-33.55-41.14
				c-24.98-25.15-54.76-45.63-87.49-59.64c-16.35-7.01-33.43-12.38-50.89-15.97l-6.57-1.21l-3.29-0.61l-1.64-0.3
				c-0.55-0.09-1.1-0.15-1.66-0.23l-6.63-0.88l-3.31-0.44c-1.11-0.14-2.21-0.31-3.32-0.37c-4.45-0.33-8.89-0.73-13.34-1.01
				l-13.37-0.36l-13.37,0.37c-4.45,0.28-8.89,0.68-13.34,1.02c-1.11,0.06-2.21,0.24-3.32,0.39l-3.31,0.45l-6.63,0.89
				c-0.55,0.08-1.11,0.14-1.65,0.23l-1.64,0.31l-3.29,0.61l-6.57,1.23c-17.45,3.65-34.5,9.07-50.82,16.11
				c-32.66,14.08-62.46,34.4-87.61,59.39c-25.1,25.03-45.56,54.81-59.58,87.53c-7.01,16.35-12.39,33.43-15.98,50.89
				c-3.61,17.46-5.37,35.3-5.43,53.13l0.37,13.37c0.24,3.82,0.57,7.64,0.86,11.46c1.32-0.39,2.62-0.57,3.99-0.43
				c0.58,0.06,1.14,0.2,1.66,0.42c-0.74-8.25-1.12-16.54-1.12-24.82c0.01-34.93,6.56-69.87,19.59-102.39
				C88.96,167.14,97.07,151.5,106.7,136.83"/>
			<path style="clip-path:url(#SVGID_00000013152717740217160540000013430122541787631261_);fill:#FFFFFF;" d="M564.69,415.88
				c-3.63,6.54-7.52,12.93-11.68,19.14c-9.82,14.58-21.07,28.2-33.53,40.59c-12.49,12.36-26.2,23.49-40.88,33.1
				c-14.67,9.63-30.31,17.74-46.56,24.27c-32.51,13.05-67.47,19.57-102.4,19.58c-34.93-0.08-69.85-6.55-102.44-19.48
				c-16.28-6.47-31.95-14.56-46.61-24.23c-0.94-0.57-1.83-1.22-2.73-1.84l-2.7-1.89l-5.4-3.78c-3.51-2.64-6.93-5.39-10.41-8.08
				c-3.36-2.82-6.67-5.72-10-8.58l-9.53-9.1c-12.41-12.44-23.52-26.17-33.15-40.84c-6.44-9.83-12.2-20.1-17.26-30.68
				c-0.22,1.07-0.49,2.13-0.85,3.19c-0.23,0.66-0.56,1.21-0.94,1.67c13.23,25.22,30.35,48.34,50.46,68.4
				c25.15,24.99,54.92,45.35,87.58,59.47c16.33,7.05,33.38,12.49,50.84,16.1c17.45,3.63,35.3,5.41,53.13,5.41
				c17.84-0.03,35.67-1.85,53.13-5.44c17.46-3.6,34.53-8.97,50.88-15.97c32.72-13.99,62.53-34.44,87.5-59.59
				c12.49-12.58,23.75-26.38,33.55-41.14c4.22-6.32,8.15-12.82,11.82-19.46C565.86,416.54,565.23,416.27,564.69,415.88"/>
		</g>
		<g style="clip-path:url(#SVGID_00000173873343616703868150000002322894363489260193_);">
			<text transform="matrix(0.836 -0.5488 0.5488 0.836 196.1973 110.6855)" class="st2 st3 st4">C</text>
		</g>
		<g style="clip-path:url(#SVGID_00000173873343616703868150000002322894363489260193_);">
			<text transform="matrix(0.9177 -0.3974 0.3974 0.9177 227.4192 90.826)" class="st2 st3 st4">A</text>
		</g>
		<g style="clip-path:url(#SVGID_00000173873343616703868150000002322894363489260193_);">
			<text transform="matrix(0.975 -0.2224 0.2224 0.975 263.3102 75.8915)" class="st2 st3 st4">N</text>
		</g>
		<g style="clip-path:url(#SVGID_00000173873343616703868150000002322894363489260193_);">
			<text transform="matrix(0.9994 -0.0356 0.0356 0.9994 303.8864 67.3606)" class="st2 st3 st4">N</text>
		</g>
		<g style="clip-path:url(#SVGID_00000173873343616703868150000002322894363489260193_);">
			<text transform="matrix(0.9894 0.1451 -0.1451 0.9894 345.3855 66.6561)" class="st2 st3 st4">A</text>
		</g>
		<g style="clip-path:url(#SVGID_00000173873343616703868150000002322894363489260193_);">
			<text transform="matrix(0.9499 0.3125 -0.3125 0.9499 383.7826 73.0507)" class="st2 st3 st4">B</text>
		</g>
		<g style="clip-path:url(#SVGID_00000173873343616703868150000002322894363489260193_);">
			<text transform="matrix(0.9002 0.4355 -0.4355 0.9002 418.0265 85.3759)" class="st2 st3 st4">I</text>
		</g>
		<g style="clip-path:url(#SVGID_00000173873343616703868150000002322894363489260193_);">
			<text transform="matrix(0.8388 0.5444 -0.5444 0.8388 437.3332 94.8463)" class="st2 st3 st4">S</text>
		</g>
		<g style="clip-path:url(#SVGID_00000173873343616703868150000002322894363489260193_);">
			<defs>
				<rect id="SVGID_00000170243887157065670470000015969537374229958585_" y="0" width="660.51" height="575.43"/>
			</defs>
			<clipPath id="SVGID_00000068639054483857390600000000382831701590837677_">
				<use xlink:href="#SVGID_00000170243887157065670470000015969537374229958585_"  style="overflow:visible;"/>
			</clipPath>
			<path style="clip-path:url(#SVGID_00000068639054483857390600000000382831701590837677_);fill:#FFFFFF;" d="M41.08,426.21
				c-5-0.85-9.21-2.73-12.62-5.68c-3.41-2.95-5.78-6.78-7.07-11.52c-1.09-4.01-1.21-7.9-0.32-11.66c0.89-3.76,2.6-7.01,5.14-9.73
				s5.66-4.56,9.35-5.49c3.4-0.86,6.47-0.77,9.19,0.26c2.72,1.03,4.72,2.91,5.98,5.62c-5.02,1.22-8.71,3.48-11.05,6.75
				c-2.34,3.28-2.94,7.07-1.83,11.37c1.01,3.94,3.06,6.77,6.12,8.53c3.06,1.76,6.6,2.14,10.65,1.14c4.99-1.22,8.72-3.83,11.23-7.86
				c2.51-4.03,3.22-8.53,2.08-13.5c-0.99-4.33-3.17-8.15-6.59-11.43c-3.42-3.28-8.31-7.09-14.73-11.37
				c-6.67-4.41-11.91-8.29-15.66-11.68c-3.75-3.39-6.27-7.49-7.52-12.35c-1.22-4.76-0.87-9.41,1.1-13.96
				c1.97-4.54,5.29-8.57,9.96-12.03c4.67-3.47,10.31-5.96,16.88-7.45c8.31-1.89,15.36-1.56,21.07,0.91
				c5.71,2.48,9.14,6.7,10.34,12.63c0.79,3.89,0.37,7.25-1.24,10.1c-1.61,2.84-4.12,4.62-7.52,5.34c-3.81,0.81-7.16,0.05-10.11-2.3
				c1.62-1.71,2.75-3.75,3.4-6.12c0.65-2.36,0.73-4.7,0.23-7.01c-0.64-2.95-2.11-5.1-4.43-6.43c-2.32-1.33-5.17-1.62-8.54-0.86
				c-4.08,0.92-7.12,3.01-9.1,6.24c-1.98,3.23-2.47,6.87-1.51,10.92c0.87,3.68,2.84,6.83,5.89,9.46c3.04,2.64,7.58,5.87,13.55,9.76
				c4.85,3.07,8.78,5.8,11.81,8.14c3.03,2.34,5.79,5.21,8.29,8.59c2.5,3.39,4.19,7.26,5.1,11.61c1.24,5.92,0.64,11.64-1.71,17.17
				c-2.35,5.53-6.11,10.3-11.27,14.38c-5.16,4.07-11.21,6.94-18.21,8.65C51.51,426.75,46.09,427.06,41.08,426.21"/>
			
				<path style="clip-path:url(#SVGID_00000068639054483857390600000000382831701590837677_);fill:none;stroke:#FFFFFF;stroke-width:2.1613;stroke-miterlimit:10;" d="
				M41.08,426.21c-5-0.85-9.21-2.73-12.62-5.68c-3.41-2.95-5.78-6.78-7.07-11.52c-1.09-4.01-1.21-7.9-0.32-11.66
				c0.89-3.76,2.6-7.01,5.14-9.73s5.66-4.56,9.35-5.49c3.4-0.86,6.47-0.77,9.19,0.26c2.72,1.03,4.72,2.91,5.98,5.62
				c-5.02,1.22-8.71,3.48-11.05,6.75c-2.34,3.28-2.94,7.07-1.83,11.37c1.01,3.94,3.06,6.77,6.12,8.53c3.06,1.76,6.6,2.14,10.65,1.14
				c4.99-1.22,8.72-3.83,11.23-7.86c2.51-4.03,3.22-8.53,2.08-13.5c-0.99-4.33-3.17-8.15-6.59-11.43
				c-3.42-3.28-8.31-7.09-14.73-11.37c-6.67-4.41-11.91-8.29-15.66-11.68c-3.75-3.39-6.27-7.49-7.52-12.35
				c-1.22-4.76-0.87-9.41,1.1-13.96c1.97-4.54,5.29-8.57,9.96-12.03c4.67-3.47,10.31-5.96,16.88-7.45
				c8.31-1.89,15.36-1.56,21.07,0.91c5.71,2.48,9.14,6.7,10.34,12.63c0.79,3.89,0.37,7.25-1.24,10.1c-1.61,2.84-4.12,4.62-7.52,5.34
				c-3.81,0.81-7.16,0.05-10.11-2.3c1.62-1.71,2.75-3.75,3.4-6.12c0.65-2.36,0.73-4.7,0.23-7.01c-0.64-2.95-2.11-5.1-4.43-6.43
				c-2.32-1.33-5.17-1.62-8.54-0.86c-4.08,0.92-7.12,3.01-9.1,6.24c-1.98,3.23-2.47,6.87-1.51,10.92c0.87,3.68,2.84,6.83,5.89,9.46
				c3.04,2.64,7.58,5.87,13.55,9.76c4.85,3.07,8.78,5.8,11.81,8.14c3.03,2.34,5.79,5.21,8.29,8.59c2.5,3.39,4.19,7.26,5.1,11.61
				c1.24,5.92,0.64,11.64-1.71,17.17c-2.35,5.53-6.11,10.3-11.27,14.38c-5.16,4.07-11.21,6.94-18.21,8.65
				C51.51,426.75,46.09,427.06,41.08,426.21z"/>
			<path style="clip-path:url(#SVGID_00000068639054483857390600000000382831701590837677_);fill:#FFFFFF;" d="M105.74,407.1
				c-4.77-2.72-7.95-7.85-9.49-15.45c-1.28-6.3-1.36-13.56-0.16-21.8c1.2-8.24,4.33-15.77,9.46-22.55
				c5.12-6.78,12.47-11.02,21.93-12.61c12.91-2.15,20.5,4.4,22.73,19.34c0.01,0.05,0.01,0.09,0.02,0.14
				c0.31,0.05,0.86,0.01,1.65-0.11c3.26-0.49,6.9-1.86,10.94-4.09c4.04-2.23,7.65-4.74,10.84-7.54c0.61,1.21,1.23,2.41,1.84,3.62
				c-2.51,3.28-5.93,6.23-10.24,8.88c-4.32,2.65-9.11,4.8-14.39,6.46c0.5,8.62-0.37,16.35-2.55,23.2
				c-2.19,6.85-5.46,12.4-9.82,16.67c-4.36,4.28-9.4,6.93-15.15,7.98C116.35,410.51,110.51,409.82,105.74,407.1 M133.01,390.61
				c1.86-2.96,3.3-6.79,4.31-11.51c1.01-4.72,1.48-9.84,1.38-15.38c-2.74-0.13-4.39-1.87-4.95-5.22c-0.63-3.82,0.48-6.6,3.36-8.31
				c-0.7-3.05-1.54-5.09-2.53-6.12c-0.99-1.04-2.48-1.39-4.48-1.06c-3.3,0.55-6.12,3.33-8.41,8.34c-2.3,5.01-3.8,10.8-4.53,17.37
				c-0.73,6.57-0.63,12.22,0.24,16.96c0.82,4.46,1.9,7.36,3.23,8.7c1.33,1.34,3.38,1.76,6.15,1.27
				C129.08,395.25,131.15,393.57,133.01,390.61"/>
			
				<path style="clip-path:url(#SVGID_00000068639054483857390600000000382831701590837677_);fill:none;stroke:#FFFFFF;stroke-width:2.1613;stroke-miterlimit:10;" d="
				M105.74,407.1c-4.77-2.72-7.95-7.85-9.49-15.45c-1.28-6.3-1.36-13.56-0.16-21.8c1.2-8.24,4.33-15.77,9.46-22.55
				c5.12-6.78,12.47-11.02,21.93-12.61c12.91-2.15,20.5,4.4,22.73,19.34c0.01,0.05,0.01,0.09,0.02,0.14
				c0.31,0.05,0.86,0.01,1.65-0.11c3.26-0.49,6.9-1.86,10.94-4.09c4.04-2.23,7.65-4.74,10.84-7.54c0.61,1.21,1.23,2.41,1.84,3.62
				c-2.51,3.28-5.93,6.23-10.24,8.88c-4.32,2.65-9.11,4.8-14.39,6.46c0.5,8.62-0.37,16.35-2.55,23.2
				c-2.19,6.85-5.46,12.4-9.82,16.67c-4.36,4.28-9.4,6.93-15.15,7.98C116.35,410.51,110.51,409.82,105.74,407.1z M133.01,390.61
				c1.86-2.96,3.3-6.79,4.31-11.51c1.01-4.72,1.48-9.84,1.38-15.38c-2.74-0.13-4.39-1.87-4.95-5.22c-0.63-3.82,0.48-6.6,3.36-8.31
				c-0.7-3.05-1.54-5.09-2.53-6.12c-0.99-1.04-2.48-1.39-4.48-1.06c-3.3,0.55-6.12,3.33-8.41,8.34c-2.3,5.01-3.8,10.8-4.53,17.37
				c-0.73,6.57-0.63,12.22,0.24,16.96c0.82,4.46,1.9,7.36,3.23,8.7c1.33,1.34,3.38,1.76,6.15,1.27
				C129.08,395.25,131.15,393.57,133.01,390.61z"/>
			<path style="clip-path:url(#SVGID_00000068639054483857390600000000382831701590837677_);fill:#FFFFFF;" d="M168.21,396.74
				c-4.42-3.05-7.21-8.39-8.34-16.06c-0.94-6.45-0.66-13.75,0.94-21.91c1.6-8.15,5.03-15.48,10.35-21.96
				c5.32-6.47,12.75-10.28,22.16-11.34c6.07-0.68,10.53,0.1,13.36,2.28c2.82,2.19,4.41,5.17,4.78,8.93
				c0.32,3.29-0.18,5.91-1.49,7.84c-1.31,1.94-3.11,3.02-5.39,3.26c-1.69,0.18-3.49-0.2-5.4-1.13c0.86-3.23,1.16-6.07,0.89-8.51
				c-0.19-1.78-0.7-3.15-1.51-4.11c-0.82-0.96-1.93-1.36-3.34-1.2c-3.02,0.34-5.78,2.99-8.23,7.94c-2.45,4.96-4.2,10.84-5.25,17.64
				c-1.05,6.8-1.22,12.82-0.55,18.07c0.59,4.59,1.8,7.61,3.65,9.04c1.84,1.44,4.58,1.93,8.23,1.49c5.19-0.61,9.5-2.28,12.96-5.02
				c3.46-2.74,7.18-6.74,11.2-11.96c1.66-0.16,3.31-0.31,4.97-0.47c-9.23,18.41-21.29,28.43-36.86,30.4
				C178.32,400.84,172.63,399.79,168.21,396.74"/>
			
				<path style="clip-path:url(#SVGID_00000068639054483857390600000000382831701590837677_);fill:none;stroke:#FFFFFF;stroke-width:2.1613;stroke-miterlimit:10;" d="
				M168.21,396.74c-4.42-3.05-7.21-8.39-8.34-16.06c-0.94-6.45-0.66-13.75,0.94-21.91c1.6-8.15,5.03-15.48,10.35-21.96
				c5.32-6.47,12.75-10.28,22.16-11.34c6.07-0.68,10.53,0.1,13.36,2.28c2.82,2.19,4.41,5.17,4.78,8.93
				c0.32,3.29-0.18,5.91-1.49,7.84c-1.31,1.94-3.11,3.02-5.39,3.26c-1.69,0.18-3.49-0.2-5.4-1.13c0.86-3.23,1.16-6.07,0.89-8.51
				c-0.19-1.78-0.7-3.15-1.51-4.11c-0.82-0.96-1.93-1.36-3.34-1.2c-3.02,0.34-5.78,2.99-8.23,7.94c-2.45,4.96-4.2,10.84-5.25,17.64
				c-1.05,6.8-1.22,12.82-0.55,18.07c0.59,4.59,1.8,7.61,3.65,9.04c1.84,1.44,4.58,1.93,8.23,1.49c5.19-0.61,9.5-2.28,12.96-5.02
				c3.46-2.74,7.18-6.74,11.2-11.96c1.66-0.16,3.31-0.31,4.97-0.47c-9.23,18.41-21.29,28.43-36.86,30.4
				C178.32,400.84,172.63,399.79,168.21,396.74z"/>
			<path style="clip-path:url(#SVGID_00000068639054483857390600000000382831701590837677_);fill:#FFFFFF;" d="M222.42,391.6
				c-3.08-2.56-4.91-6.65-5.46-12.3c-0.23-2.35-0.14-5.44,0.28-9.28c1.86-15.42,3.85-30.83,5.98-46.24
				c7.29-0.64,14.59-1.21,21.89-1.72c-2.54,16.28-4.93,32.57-7.18,48.86c-0.28,1.44-0.35,2.97-0.23,4.57
				c0.15,1.89,0.71,3.19,1.7,3.92c0.98,0.73,2.53,1.01,4.65,0.86c2.8-0.21,5.32-1.54,7.59-4.01c2.27-2.47,3.82-5.58,4.67-9.32
				c2.05-0.13,4.1-0.25,6.15-0.37c-3.03,10.4-7.17,17.59-12.48,21.6c-5.31,4.02-10.64,6.25-16.08,6.7
				C229.32,395.23,225.51,394.16,222.42,391.6 M228.85,312.34c-2.53-1.97-3.93-4.51-4.2-7.62c-0.26-3.11,0.69-5.87,2.89-8.28
				c2.2-2.41,5.02-3.75,8.45-4.01c3.43-0.26,6.44,0.65,9.03,2.7c2.58,2.05,3.97,4.64,4.17,7.75c0.2,3.11-0.84,5.83-3.09,8.16
				c-2.26,2.33-5.06,3.62-8.42,3.87C234.32,315.17,231.38,314.31,228.85,312.34"/>
			
				<path style="clip-path:url(#SVGID_00000068639054483857390600000000382831701590837677_);fill:none;stroke:#FFFFFF;stroke-width:2.1613;stroke-miterlimit:10;" d="
				M222.42,391.6c-3.08-2.56-4.91-6.65-5.46-12.3c-0.23-2.35-0.14-5.44,0.28-9.28c1.86-15.42,3.85-30.83,5.98-46.24
				c7.29-0.64,14.59-1.21,21.89-1.72c-2.54,16.28-4.93,32.57-7.18,48.86c-0.28,1.44-0.35,2.97-0.23,4.57
				c0.15,1.89,0.71,3.19,1.7,3.92c0.98,0.73,2.53,1.01,4.65,0.86c2.8-0.21,5.32-1.54,7.59-4.01c2.27-2.47,3.82-5.58,4.67-9.32
				c2.05-0.13,4.1-0.25,6.15-0.37c-3.03,10.4-7.17,17.59-12.48,21.6c-5.31,4.02-10.64,6.25-16.08,6.7
				C229.32,395.23,225.51,394.16,222.42,391.6z M228.85,312.34c-2.53-1.97-3.93-4.51-4.2-7.62c-0.26-3.11,0.69-5.87,2.89-8.28
				c2.2-2.41,5.02-3.75,8.45-4.01c3.43-0.26,6.44,0.65,9.03,2.7c2.58,2.05,3.97,4.64,4.17,7.75c0.2,3.11-0.84,5.83-3.09,8.16
				c-2.26,2.33-5.06,3.62-8.42,3.87C234.32,315.17,231.38,314.31,228.85,312.34z"/>
			<path style="clip-path:url(#SVGID_00000068639054483857390600000000382831701590837677_);fill:#FFFFFF;" d="M261.19,387.36
				c-3.86-3.46-6.07-9.09-6.57-16.92c-0.45-6.98,0.52-14.41,2.98-22.27c2.46-7.86,6.49-14.63,12.13-20.26
				c5.64-5.62,12.63-8.6,20.85-8.86c4.16-0.13,7.28,0.45,9.34,1.72c2.06,1.28,3.11,3,3.16,5.17c0.01,0.33,0.01,0.66,0.02,0.99
				c0.5-2.52,1-5.03,1.51-7.55c7.31-0.15,14.62-0.23,21.94-0.25c-3.62,16.08-7.09,32.17-10.42,48.27c-0.37,1.42-0.55,2.94-0.53,4.54
				c0.05,4.07,2.06,6.07,6.02,6.04c2.71-0.02,5.04-1.25,7.03-3.71c1.98-2.46,3.57-5.67,4.76-9.63c2.05,0.01,4.11,0.02,6.16,0.04
				c-3.71,10.18-8.14,17.08-13.36,20.73c-5.23,3.65-10.43,5.52-15.68,5.61c-4.01,0.07-7.26-0.97-9.76-3.13
				c-2.5-2.16-4.06-5.35-4.66-9.59c-2.69,3.96-5.69,7.19-9,9.73c-3.31,2.53-7.3,3.9-11.97,4.12
				C269.68,392.41,265.05,390.82,261.19,387.36 M290.97,374.42c2.3-2.3,3.84-5.39,4.61-9.29c2.04-10.74,4.14-21.48,6.3-32.21
				c-0.03-1.23-0.56-2.42-1.59-3.58c-1.04-1.16-2.62-1.71-4.73-1.65c-4.04,0.11-7.6,2.43-10.65,6.94
				c-3.05,4.51-5.32,9.91-6.83,16.16c-1.51,6.26-2.14,11.76-1.93,16.47c0.22,4.72,1.06,7.71,2.52,8.97c1.46,1.26,3.2,1.85,5.23,1.77
				C286.31,377.91,288.66,376.72,290.97,374.42"/>
			
				<path style="clip-path:url(#SVGID_00000068639054483857390600000000382831701590837677_);fill:none;stroke:#FFFFFF;stroke-width:2.1613;stroke-miterlimit:10;" d="
				M261.19,387.36c-3.86-3.46-6.07-9.09-6.57-16.92c-0.45-6.98,0.52-14.41,2.98-22.27c2.46-7.86,6.49-14.63,12.13-20.26
				c5.64-5.62,12.63-8.6,20.85-8.86c4.16-0.13,7.28,0.45,9.34,1.72c2.06,1.28,3.11,3,3.16,5.17c0.01,0.33,0.01,0.66,0.02,0.99
				c0.5-2.52,1-5.03,1.51-7.55c7.31-0.15,14.62-0.23,21.94-0.25c-3.62,16.08-7.09,32.17-10.42,48.27c-0.37,1.42-0.55,2.94-0.53,4.54
				c0.05,4.07,2.06,6.07,6.02,6.04c2.71-0.02,5.04-1.25,7.03-3.71c1.98-2.46,3.57-5.67,4.76-9.63c2.05,0.01,4.11,0.02,6.16,0.04
				c-3.71,10.18-8.14,17.08-13.36,20.73c-5.23,3.65-10.43,5.52-15.68,5.61c-4.01,0.07-7.26-0.97-9.76-3.13
				c-2.5-2.16-4.06-5.35-4.66-9.59c-2.69,3.96-5.69,7.19-9,9.73c-3.31,2.53-7.3,3.9-11.97,4.12
				C269.68,392.41,265.05,390.82,261.19,387.36z M290.97,374.42c2.3-2.3,3.84-5.39,4.61-9.29c2.04-10.74,4.14-21.48,6.3-32.21
				c-0.03-1.23-0.56-2.42-1.59-3.58c-1.04-1.16-2.62-1.71-4.73-1.65c-4.04,0.11-7.6,2.43-10.65,6.94
				c-3.05,4.51-5.32,9.91-6.83,16.16c-1.51,6.26-2.14,11.76-1.93,16.47c0.22,4.72,1.06,7.71,2.52,8.97c1.46,1.26,3.2,1.85,5.23,1.77
				C286.31,377.91,288.66,376.72,290.97,374.42z"/>
			<path style="clip-path:url(#SVGID_00000068639054483857390600000000382831701590837677_);fill:#FFFFFF;" d="M336.14,386.55
				c-2.81-2.9-4.23-7.22-4.22-12.99c0.01-2.36,0.4-5.43,1.19-9.21c5.3-23.66,10.92-47.28,16.86-70.86
				c7.69-0.82,15.39-1.57,23.12-2.24c-6.86,25.29-13.36,50.64-19.49,76.04c-0.42,1.41-0.64,2.78-0.67,4.1
				c-0.07,3.78,1.87,5.71,5.84,5.8c1.74,0.04,3.29-0.2,4.67-0.72c-0.53,4.71-2.34,8.32-5.43,10.85c-3.08,2.52-6.67,3.75-10.78,3.68
				C342.64,390.92,338.96,389.45,336.14,386.55"/>
			
				<path style="clip-path:url(#SVGID_00000068639054483857390600000000382831701590837677_);fill:none;stroke:#FFFFFF;stroke-width:2.1613;stroke-miterlimit:10;" d="
				M336.14,386.55c-2.81-2.9-4.23-7.22-4.22-12.99c0.01-2.36,0.4-5.43,1.19-9.21c5.3-23.66,10.92-47.28,16.86-70.86
				c7.69-0.82,15.39-1.57,23.12-2.24c-6.86,25.29-13.36,50.64-19.49,76.04c-0.42,1.41-0.64,2.78-0.67,4.1
				c-0.07,3.78,1.87,5.71,5.84,5.8c1.74,0.04,3.29-0.2,4.67-0.72c-0.53,4.71-2.34,8.32-5.43,10.85c-3.08,2.52-6.67,3.75-10.78,3.68
				C342.64,390.92,338.96,389.45,336.14,386.55z"/>
			<path style="clip-path:url(#SVGID_00000068639054483857390600000000382831701590837677_);fill:#FFFFFF;" d="M404.84,386.65
				c-4.73-5.71-6.79-14.76-6.06-27.22c0.58-9.91,2.95-20.47,7.25-31.66c4.3-11.18,10.77-20.59,19.51-28.12
				c8.73-7.52,19.52-10.71,32.12-9.42c7.81,0.8,13.94,3.07,18.34,6.73c4.4,3.66,6.18,8.7,5.39,15.07c-0.5,4.03-1.76,7.09-3.76,9.18
				c-2.01,2.09-4.82,2.92-8.47,2.5c-3.65-0.42-6.4-1.95-8.27-4.63c1.92-0.65,3.73-2.16,5.45-4.54c1.71-2.38,2.73-4.92,3.04-7.65
				c0.29-2.54-0.22-4.69-1.54-6.45c-1.32-1.76-3.64-2.83-6.95-3.18c-5.49-0.58-11.08,2.31-16.64,8.68
				c-5.57,6.37-10.26,14.62-14.09,24.73c-3.83,10.12-6.07,19.99-6.84,29.6c-0.57,7.16,0.27,12.73,2.47,16.7
				c2.21,3.98,6.57,6.24,13.11,6.85c5.68,0.54,11.04-0.15,16.13-2.07c5.09-1.92,9.64-4.91,13.68-9c1.06,0.6,2.12,1.21,3.18,1.81
				c-3.15,5.61-7.31,10.11-12.45,13.53c-5.15,3.41-10.47,5.77-15.99,7.07c-5.52,1.3-10.64,1.76-15.4,1.35
				C417.28,395.58,409.58,392.36,404.84,386.65"/>
			
				<path style="clip-path:url(#SVGID_00000068639054483857390600000000382831701590837677_);fill:none;stroke:#FFFFFF;stroke-width:2.1613;stroke-miterlimit:10;" d="
				M404.84,386.65c-4.73-5.71-6.79-14.76-6.06-27.22c0.58-9.91,2.95-20.47,7.25-31.66c4.3-11.18,10.77-20.59,19.51-28.12
				c8.73-7.52,19.52-10.71,32.12-9.42c7.81,0.8,13.94,3.07,18.34,6.73c4.4,3.66,6.18,8.7,5.39,15.07c-0.5,4.03-1.76,7.09-3.76,9.18
				c-2.01,2.09-4.82,2.92-8.47,2.5c-3.65-0.42-6.4-1.95-8.27-4.63c1.92-0.65,3.73-2.16,5.45-4.54c1.71-2.38,2.73-4.92,3.04-7.65
				c0.29-2.54-0.22-4.69-1.54-6.45c-1.32-1.76-3.64-2.83-6.95-3.18c-5.49-0.58-11.08,2.31-16.64,8.68
				c-5.57,6.37-10.26,14.62-14.09,24.73c-3.83,10.12-6.07,19.99-6.84,29.6c-0.57,7.16,0.27,12.73,2.47,16.7
				c2.21,3.98,6.57,6.24,13.11,6.85c5.68,0.54,11.04-0.15,16.13-2.07c5.09-1.92,9.64-4.91,13.68-9c1.06,0.6,2.12,1.21,3.18,1.81
				c-3.15,5.61-7.31,10.11-12.45,13.53c-5.15,3.41-10.47,5.77-15.99,7.07c-5.52,1.3-10.64,1.76-15.4,1.35
				C417.28,395.58,409.58,392.36,404.84,386.65z"/>
			<path style="clip-path:url(#SVGID_00000068639054483857390600000000382831701590837677_);fill:#FFFFFF;" d="M468.72,395.03
				c-2.47-3.16-3.39-7.54-2.73-13.18c0.28-2.34,1.02-5.35,2.24-9.01c8-22.89,16.3-45.71,24.92-68.45c7.75,0.07,15.5,0.22,23.27,0.44
				c-9.74,24.33-19.12,48.77-28.15,73.29c-0.58,1.35-0.98,2.82-1.19,4.41c-0.26,1.87,0.02,3.27,0.83,4.19
				c0.8,0.92,2.26,1.53,4.37,1.82c2.78,0.39,5.54-0.37,8.28-2.31c2.74-1.93,4.93-4.64,6.56-8.12c2.04,0.31,4.07,0.63,6.1,0.95
				c-5.18,9.51-10.77,15.66-16.81,18.45c-6.05,2.79-11.75,3.84-17.16,3.13C474.7,400.05,471.19,398.19,468.72,395.03"/>
			
				<path style="clip-path:url(#SVGID_00000068639054483857390600000000382831701590837677_);fill:none;stroke:#FFFFFF;stroke-width:2.1613;stroke-miterlimit:10;" d="
				M468.72,395.03c-2.47-3.16-3.39-7.54-2.73-13.18c0.28-2.34,1.02-5.35,2.24-9.01c8-22.89,16.3-45.71,24.92-68.45
				c7.75,0.07,15.5,0.22,23.27,0.44c-9.74,24.33-19.12,48.77-28.15,73.29c-0.58,1.35-0.98,2.82-1.19,4.41
				c-0.26,1.87,0.02,3.27,0.83,4.19c0.8,0.92,2.26,1.53,4.37,1.82c2.78,0.39,5.54-0.37,8.28-2.31c2.74-1.93,4.93-4.64,6.56-8.12
				c2.04,0.31,4.07,0.63,6.1,0.95c-5.18,9.51-10.77,15.66-16.81,18.45c-6.05,2.79-11.75,3.84-17.16,3.13
				C474.7,400.05,471.19,398.19,468.72,395.03z"/>
			<path style="clip-path:url(#SVGID_00000068639054483857390600000000382831701590837677_);fill:#FFFFFF;" d="M506.87,400.31
				c-2.37-3.24-3.14-7.65-2.29-13.26c0.36-2.33,1.2-5.31,2.55-8.93c5.59-14.49,11.3-28.95,17.14-43.37
				c7.24,1.17,14.47,2.4,21.7,3.71c-6.46,15.16-12.78,30.36-18.96,45.61c-0.53,1.35-0.89,2.63-1.1,3.84
				c-0.65,3.82,0.46,5.97,3.33,6.47c2.68,0.47,5.16-0.22,7.48-2.06c2.31-1.84,4.4-4.55,6.26-8.15c6.04-14.31,12.2-28.58,18.48-42.82
				c7.21,1.4,14.41,2.86,21.6,4.38c-6.93,14.95-13.72,29.95-20.38,45c-0.67,1.31-1.16,2.76-1.48,4.33
				c-0.38,1.85-0.19,3.26,0.56,4.24c0.75,0.97,2.16,1.67,4.26,2.11c2.66,0.55,5.2-0.07,7.64-1.87c2.43-1.8,4.63-4.42,6.58-7.86
				c2.02,0.44,4.03,0.89,6.05,1.34c-5.78,9.17-11.59,14.98-17.49,17.45c-5.9,2.47-11.41,3.2-16.59,2.18
				c-4.05-0.8-7.06-2.53-9.06-5.21c-1.99-2.68-2.83-6.25-2.5-10.71c-4.19,4.51-8.21,7.39-12.09,8.63
				c-3.88,1.24-7.65,1.55-11.34,0.94C512.68,405.53,509.24,403.55,506.87,400.31"/>
			
				<path style="clip-path:url(#SVGID_00000068639054483857390600000000382831701590837677_);fill:none;stroke:#FFFFFF;stroke-width:2.1613;stroke-miterlimit:10;" d="
				M506.87,400.31c-2.37-3.24-3.14-7.65-2.29-13.26c0.36-2.33,1.2-5.31,2.55-8.93c5.59-14.49,11.3-28.95,17.14-43.37
				c7.24,1.17,14.47,2.4,21.7,3.71c-6.46,15.16-12.78,30.36-18.96,45.61c-0.53,1.35-0.89,2.63-1.1,3.84
				c-0.65,3.82,0.46,5.97,3.33,6.47c2.68,0.47,5.16-0.22,7.48-2.06c2.31-1.84,4.4-4.55,6.26-8.15c6.04-14.31,12.2-28.58,18.48-42.82
				c7.21,1.4,14.41,2.86,21.6,4.38c-6.93,14.95-13.72,29.95-20.38,45c-0.67,1.31-1.16,2.76-1.48,4.33
				c-0.38,1.85-0.19,3.26,0.56,4.24c0.75,0.97,2.16,1.67,4.26,2.11c2.66,0.55,5.2-0.07,7.64-1.87c2.43-1.8,4.63-4.42,6.58-7.86
				c2.02,0.44,4.03,0.89,6.05,1.34c-5.78,9.17-11.59,14.98-17.49,17.45c-5.9,2.47-11.41,3.2-16.59,2.18
				c-4.05-0.8-7.06-2.53-9.06-5.21c-1.99-2.68-2.83-6.25-2.5-10.71c-4.19,4.51-8.21,7.39-12.09,8.63
				c-3.88,1.24-7.65,1.55-11.34,0.94C512.68,405.53,509.24,403.55,506.87,400.31z"/>
			<path style="clip-path:url(#SVGID_00000068639054483857390600000000382831701590837677_);fill:#FFFFFF;" d="M579.76,413.56
				c-2.71-3.84-3.47-8.57-2.25-14.21c0.6-2.77,1.51-5.33,2.73-7.68c10.19-22.01,20.68-43.91,31.48-65.71
				c7.74,0.83,15.48,1.73,23.22,2.71c-5.03,9.69-10.01,19.41-14.92,29.15c3.16-0.88,5.7-1.34,7.61-1.39
				c1.91-0.05,3.76,0.15,5.55,0.61c11.73,3.02,15.43,12.45,11.16,28.03c-1.72,6.29-4.83,12.66-9.29,19.15
				c-4.46,6.49-10.25,11.52-17.34,15.15c-7.1,3.64-15.17,4.34-24.34,2.17C586.99,420.04,582.47,417.4,579.76,413.56 M614.03,406.81
				c3.45-2.88,6.62-6.76,9.51-11.63c2.89-4.87,4.97-9.72,6.23-14.57c0.95-3.66,1.07-6.95,0.36-9.86c-0.71-2.91-2.31-4.69-4.77-5.31
				c-1.48-0.37-3.18-0.58-5.1-0.62c-1.93-0.04-3.33,0.28-4.22,0.93c-5.55,11-11.02,22.03-16.41,33.09
				c-0.55,1.04-0.94,2.06-1.18,3.07c-1,4.23,1.02,6.93,6.03,8.15C607.4,410.78,610.58,409.69,614.03,406.81"/>
			
				<path style="clip-path:url(#SVGID_00000068639054483857390600000000382831701590837677_);fill:none;stroke:#FFFFFF;stroke-width:2.1613;stroke-miterlimit:10;" d="
				M579.76,413.56c-2.71-3.84-3.47-8.57-2.25-14.21c0.6-2.77,1.51-5.33,2.73-7.68c10.19-22.01,20.68-43.91,31.48-65.71
				c7.74,0.83,15.48,1.73,23.22,2.71c-5.03,9.69-10.01,19.41-14.92,29.15c3.16-0.88,5.7-1.34,7.61-1.39
				c1.91-0.05,3.76,0.15,5.55,0.61c11.73,3.02,15.43,12.45,11.16,28.03c-1.72,6.29-4.83,12.66-9.29,19.15
				c-4.46,6.49-10.25,11.52-17.34,15.15c-7.1,3.64-15.17,4.34-24.34,2.17C586.99,420.04,582.47,417.4,579.76,413.56z M614.03,406.81
				c3.45-2.88,6.62-6.76,9.51-11.63c2.89-4.87,4.97-9.72,6.23-14.57c0.95-3.66,1.07-6.95,0.36-9.86c-0.71-2.91-2.31-4.69-4.77-5.31
				c-1.48-0.37-3.18-0.58-5.1-0.62c-1.93-0.04-3.33,0.28-4.22,0.93c-5.55,11-11.02,22.03-16.41,33.09
				c-0.55,1.04-0.94,2.06-1.18,3.07c-1,4.23,1.02,6.93,6.03,8.15C607.4,410.78,610.58,409.69,614.03,406.81z"/>
			<path style="clip-path:url(#SVGID_00000068639054483857390600000000382831701590837677_);fill:#FFFFFF;" d="M425.41,155.55
				c-0.65-0.1-1.16-0.18-1.81-0.27c4.47-5.52,8.88-10.92,11.89-17.34c-3.52,0.88-6.58,2.66-9.62,4.44
				c-3.03,1.77-5.98,3.66-9.05,5.55v-1.81c-3.2,0.57-5.71,2.21-8.07,4.32c-0.2-0.76-0.36-1.38-0.56-2.17
				c-3.42,1.88-6.25,4.18-8.92,6.89c-0.23-1.3-0.44-2.48-0.71-4.01c-3.71,2.5-6.28,5.5-8.07,9.43c-0.28-1.7-0.53-3.19-0.84-5.01
				c-3.33,2.36-5.76,5.09-7.09,8.82c-0.32-0.81-0.48-1.62-0.74-2.41c-0.15-0.45-0.43-0.86-0.66-1.29c-0.42,0.25-0.92,0.42-1.23,0.76
				c-2.15,2.39-3.62,5.18-4.73,8.18c-0.13,0.36-0.29,0.72-0.58,1.43c-0.4-1.63-0.7-2.87-1.08-4.39c-3.98,2.31-4.83,6.03-5.38,9.95
				c-0.18-0.1-0.32-0.13-0.37-0.22c-0.29-0.46-0.57-0.94-0.84-1.41c-0.67-1.16-1.22-1.27-1.91-0.11c-1.04,1.77-1.88,3.67-2.77,5.53
				c-0.32,0.66-0.51,1.39-0.87,2.4c-0.27-0.91-0.44-1.47-0.6-2.03c-0.27-0.94-0.8-1.04-1.46-0.39c-0.47,0.47-0.91,1.01-1.28,1.56
				c-1.53,2.27-2.35,4.81-2.75,7.6c-0.25-0.16-0.4-0.23-0.52-0.33c-1.55-1.42-1.56-1.41-2.63,0.35c-0.18,0.31-0.57,0.5-0.86,0.74
				c-0.1-0.09-0.2-0.18-0.3-0.27c0.24-0.62,0.45-1.24,0.72-1.84c1-2.19,2.06-4.35,3.01-6.56c0.6-1.4,0.25-1.85-1.24-1.96
				c-0.41-0.03-0.81-0.07-1.41-0.13c0.46-0.62,0.82-1.07,1.15-1.54c1.92-2.77,3.5-5.7,3.71-9.16c0.08-1.35-0.53-1.66-1.72-1.03
				c-0.54,0.29-1.1,0.56-1.65,0.84c0.47-1.42,1.17-2.54,1.66-3.74c0.78-1.91,1.5-3.84,2.07-5.82c0.33-1.18-0.16-1.54-1.36-1.3
				c-0.84,0.17-1.69,0.32-2.91,0.54c0.53-0.63,0.79-0.94,1.05-1.25c2.15-2.54,3.74-5.34,3.98-8.72c0.06-0.86-0.19-1.74-0.31-2.79
				c-1.69,0.9-3.04,1.62-4.4,2.35c0.01-0.63,0.2-0.95,0.38-1.28c1.75-3.22,2.97-6.63,3.46-10.27c0.09-0.71-0.13-1.46-0.21-2.19
				c-0.69,0.23-1.4,0.42-2.07,0.7c-0.75,0.31-1.48,0.7-2.21,1.06c2.02-4.22,3.02-10.58,1.75-12.93c-1.51,0.93-3.01,1.87-4.71,2.91
				c1.98-4.71,2.62-9.32,1.83-14.47c-1.53,0.96-2.76,1.73-4.05,2.54c0.27-4.46,0.13-8.84-1.03-13.3c-0.84,0.5-1.51,0.9-2.2,1.31
				c-0.95-7.33-1.37-8.87-2.83-10.38c-0.48,0.44-0.95,0.88-1.53,1.41c-1.31-8.29-2.54-16.46-5.83-24.18
				c-3.25,7.74-4.53,15.89-5.83,24.16c-0.58-0.55-1.05-1-1.63-1.55c-2.09,3.29-2.56,6.83-2.65,10.6c-0.8-0.48-1.46-0.87-2.26-1.35
				c-1.15,4.5-1.33,8.86-0.99,13.32c-1.3-0.82-2.54-1.6-4.08-2.57c-0.76,5.22-0.2,9.85,1.86,14.51c-1.73-1.08-3.27-2.03-4.8-2.98
				l-0.52,0.29c0.11,2.12,0.03,4.28,0.39,6.36c0.37,2.11,1.17,4.14,1.82,6.33c-0.89-0.49-1.85-1.04-2.84-1.55
				c-1.26-0.65-1.76-0.37-1.63,1.06c0.13,1.38,0.3,2.79,0.75,4.1c0.94,2.77,2.07,5.49,3.18,8.38c-0.86-0.48-1.7-0.99-2.58-1.43
				c-0.53-0.27-1.12-0.43-1.68-0.63c-0.18,0.63-0.38,1.26-0.52,1.9c-0.05,0.24,0.02,0.5,0.05,0.75c0.41,3.25,1.85,6.03,3.97,8.48
				c0.29,0.33,0.59,0.66,0.88,1c-0.92,0.12-1.69,0-2.46-0.17c-1.59-0.33-2.09,0.03-1.55,1.58c0.92,2.66,2.12,5.22,3.22,7.81
				c0.18,0.43,0.45,0.83,0.67,1.25c-0.66-0.02-1.08-0.28-1.54-0.45c-0.53-0.2-1.08-0.33-1.63-0.49c-0.15,0.58-0.33,1.16-0.43,1.75
				c-0.04,0.28,0.06,0.58,0.13,0.87c0.68,3.06,2.02,5.81,3.94,8.28c0.24,0.31,0.46,0.64,0.77,1.07c-0.38,0.07-0.58,0.13-0.78,0.14
				c-2.37,0.18-2.54,0.4-1.6,2.57c0.96,2.21,2.03,4.36,3.03,6.55c0.19,0.42,0.27,0.9,0.41,1.35l-0.27,0.18
				c-0.25-0.18-0.56-0.3-0.73-0.53c-1.27-1.76-1.26-1.77-2.91-0.52c-0.05,0.04-0.16,0.02-0.15,0.02c-0.61-1.81-1.11-3.63-1.86-5.35
				c-0.51-1.18-1.32-2.25-2.08-3.3c-0.24-0.33-0.8-0.65-1.14-0.59c-0.28,0.05-0.51,0.65-0.68,1.04c-0.19,0.42-0.27,0.89-0.51,1.69
				c-0.3-0.85-0.42-1.34-0.64-1.79c-1-2.08-1.94-4.21-3.09-6.21c-0.6-1.04-1.12-0.9-1.75,0.13c-0.35,0.56-0.69,1.13-1.23,2
				c-0.12-0.79-0.19-1.23-0.26-1.67c-0.41-2.78-1.33-5.33-3.38-7.35c-0.47-0.46-1.11-0.73-1.8-1.17c-0.38,1.52-0.69,2.74-1,3.96
				c-0.35-0.23-0.42-0.41-0.48-0.6c-1.08-3.25-2.74-6.17-4.99-8.74c-0.28-0.32-0.76-0.45-1.14-0.67c-0.22,0.39-0.5,0.76-0.63,1.18
				c-0.26,0.81-0.43,1.66-0.71,2.75c-1.95-4.48-4.78-7.93-7.15-8.71c-0.27,1.47-0.53,2.92-0.84,4.64c-1.88-3.94-4.42-6.92-8.05-9.38
				c-0.29,1.52-0.51,2.68-0.75,3.96c-2.7-2.75-5.51-5.11-8.94-6.84c-0.21,0.82-0.37,1.44-0.55,2.15c-2.41-2.16-4.93-3.79-8.17-4.37
				c0.02,0.53,0.04,0.77,0.04,1.02c0.01,0.26,0,0.52,0,0.86c-5.99-3.89-11.85-7.73-18.56-10c3.03,6.47,7.48,11.87,11.91,17.38
				c-0.67,0.08-1.22,0.15-1.88,0.23c0.95,3.17,2.82,5.51,5.19,7.62c-0.72,0.24-1.33,0.44-2.14,0.71c2.21,3.23,4.81,5.81,7.79,8.12
				c-1.26,0.38-2.4,0.73-3.83,1.17c2.84,3.39,6.08,5.59,10.14,7.04c-1.65,0.48-3.09,0.91-4.8,1.41c2.77,3.02,5.68,5.13,9.43,6.06
				c-0.78,0.41-1.57,0.63-2.32,0.96c-0.43,0.19-0.79,0.54-1.18,0.82c0.28,0.35,0.51,0.78,0.86,1.03c2.67,1.93,5.66,3.16,8.85,3.94
				c0.33,0.08,0.66,0.19,0.98,0.28c0,0.09,0.01,0.18,0.01,0.27c-1.22,0.42-2.43,0.85-3.93,1.37c0.53,0.65,0.83,1.34,1.35,1.62
				c1.58,0.85,3.2,1.7,4.9,2.24c1.31,0.42,2.77,0.38,4.16,0.55c-0.03,0.34-0.23,0.42-0.39,0.55c-2.39,1.94-2.32,2.31,0.66,3.53
				c0.12,0.05,0.23,0.11,0.35,0.14c1.96,0.6,3.93,1.2,6.12,1.87c-0.63,0.24-1.11,0.44-1.6,0.62c-1.18,0.42-1.37,1.07-0.34,1.74
				c1.19,0.78,2.48,1.49,3.82,1.92c1.75,0.56,3.59,0.81,5.42,1.2c0-0.02,0.02,0.03,0,0.06c-0.1,0.18-0.2,0.36-0.33,0.53
				c-1.02,1.41-0.95,1.71,0.74,2.28c1.68,0.56,3.41,0.98,5.08,1.58c0.56,0.2,0.99,0.75,1.48,1.14c-0.09,0.15-0.18,0.3-0.27,0.44
				c-0.37-0.13-0.74-0.24-1.1-0.38c-0.9-0.37-1.77-0.81-2.68-1.13c-1.86-0.64-2.07-0.45-1.72,1.42c0.02,0.13-0.02,0.28-0.05,0.58
				c-2.12-1.69-4.22-3.01-7.13-2.42c0.49,0.93,0.87,1.65,1.39,2.63c-2.7-1.25-5.12-2.34-8.14-2.23c0.49,1.02,0.84,1.74,1.3,2.69
				c-2.46-1.24-4.8-1.5-7.44-1.11c0.59,0.95,1.06,1.71,1.66,2.69c-2.75-0.92-5.27-1.4-8.08-0.77c0.48,0.81,0.86,1.47,1.19,2.04
				c-2.42,0.24-4.78,0.47-7.26,0.71c0.28,0.71,0.42,1.08,0.57,1.48c-2.08,0.12-4.03,0.38-5.76,1.55c0.24,0.38,0.42,0.67,0.64,1.01
				c-4.63,0.84-9.17,1.6-13.42,3.54c4.33,1.82,8.9,2.32,13.48,3.09c-0.21,0.34-0.38,0.61-0.74,1.2c2.08,0.47,3.98,0.9,5.93,1.35
				c-0.07,0.2-0.21,0.57-0.47,1.29c2.56,0.15,4.94,0.29,7.35,0.43c-0.35,0.63-0.71,1.28-1.17,2.12c2.86,0.45,5.37-0.07,8.04-1.08
				c-0.55,1.01-1,1.82-1.52,2.77c2.63,0.28,4.92-0.07,7.36-1.37c-0.44,1.04-0.75,1.77-1.13,2.68c3,0.02,5.38-1.11,7.96-2.42
				c-0.48,0.99-0.83,1.72-1.24,2.6c2.98,0.56,5.01-1.01,7.1-2.64c-0.07,0.83-0.13,1.48-0.19,2.24c2.41,0.07,4.11-1.39,6.17-2.28
				c-0.24,0.7-0.42,1.22-0.66,1.92c2.83,0.17,4.81-1.27,7-2.8c-0.2,1.28,0.17,1.81,1.34,1.6c0.23-0.04,0.54,0.34,1,0.67
				c-1.96,0.2-3.62,0.38-4.77,2c0.61,0.27,1.06,0.47,1.66,0.74c-1.8,0.65-3.54,1.1-4.95,2.49c0.66,0.31,1.1,0.52,1.42,0.67
				c-1.31,0.87-2.62,1.75-4.19,2.8c0.97,0.36,1.48,0.55,1.89,0.7c-1.41,1.04-2.77,2.03-4.33,3.17c0.83,0.35,1.26,0.54,1.68,0.71
				c-1.13,1.2-2.2,2.33-3.3,3.5c0.33,0.29,0.54,0.48,0.76,0.67c-2.07,2.25-2.39,3.06-1.64,3.61c-1.76,2.54-3.51,5.08-5.27,7.62
				c0.14,0.16,0.28,0.31,0.42,0.47c2.7-1.52,5.39-3.03,7.89-4.44c1.81,0.86,2.73-0.79,3.99-1.23c0.15,0.22,0.3,0.43,0.52,0.76
				c1.31-0.99,2.54-1.92,3.83-2.91c0.14,0.48,0.26,0.9,0.51,1.79c1.33-1.48,2.46-2.72,3.6-3.99c0.12,0.46,0.26,0.99,0.51,1.97
				c1.24-1.52,2.23-2.73,3.17-3.89c0.13,0.37,0.3,0.85,0.48,1.33c0.15,0.03,0.29,0.06,0.44,0.09c0.89-1.48,1.77-2.97,2.69-4.5
				c0.15,0.48,0.3,0.94,0.51,1.61c1.67-1.04,2.11-2.62,2.42-4.42c0.37,0.41,0.63,0.71,1.12,1.25c0.76-1.43,1.43-2.69,2.1-3.95
				c0.21,0.35,0.38,0.64,0.56,0.93c0.21-0.14,0.43-0.25,0.68-0.35c0.59-1.26,1.18-2.51,1.78-3.79c0.73,0.73,1.12,0.16,1.43-0.62
				c0.34-0.86,0.69-1.71,1.08-2.68c0.9,0.92,1.27,0.32,1.45-0.39c0.3-1.18,0.5-2.38,0.76-3.65c0.3,0.14,0.56,0.27,1,0.47
				c0.71-2.68,1.39-5.24,2.08-7.8c0.04,0.36,0.06,0.71,0.06,1.05c0.13-0.12,0.29-0.22,0.46-0.3c0.31-0.24,0.71-0.39,1.21-0.39
				c0.19,0,0.36,0.03,0.52,0.06c0.05-0.48,0.11-0.95,0.16-1.43h0.28c0.23,0.75,0.46,1.5,0.69,2.26c0.17,0.29,0.27,0.62,0.29,0.95
				c0.58,1.9,1.17,3.81,1.78,5.78c0.55-0.36,0.81-0.53,1.07-0.7c0.26,1.28,0.46,2.49,0.75,3.67c0.18,0.77,0.52,1.41,1.5,0.55
				c0.36,0.96,0.66,1.79,0.99,2.6c0.31,0.75,0.66,1.47,1.48,0.74c0.71,1.42,1.4,2.81,2.23,4.49c0.45-0.71,0.64-1,0.81-1.27
				c0.64,1.25,1.25,2.44,1.96,3.82c0.49-0.62,0.74-0.92,1.02-1.27c1.13,3.43,1.26,3.64,2.59,4.19c0.16-0.47,0.31-0.94,0.53-1.59
				c0.82,1.81,1.47,3.44,3.02,4.65c0.21-0.65,0.37-1.11,0.48-1.44c0.97,1.2,1.96,2.43,2.95,3.66c0.12-0.07,0.25-0.14,0.37-0.22
				c0.12-0.51,0.24-1.02,0.43-1.83c0.99,1.72,2.07,3.05,3.65,4.09c0.17-0.7,0.28-1.13,0.39-1.56c1.36,1.01,2.63,1.95,3.91,2.9
				c0.24-0.35,0.39-0.56,0.55-0.78c2.41,1.79,3.15,1.99,3.74,1.19c2.71,1.51,5.4,3.01,8.1,4.51c0.14-0.16,0.29-0.33,0.43-0.49
				c-1.79-2.53-3.57-5.06-5.18-7.35c0.56-1.94-1.05-2.72-1.72-3.91c0.2-0.17,0.4-0.35,0.72-0.62c-1.14-1.2-2.22-2.34-3.34-3.52
				c0.48-0.2,0.89-0.37,1.69-0.71c-1.59-1.16-2.94-2.15-4.3-3.15c0.48-0.19,0.97-0.37,1.91-0.74c-1.63-1.06-2.97-1.92-4.28-2.77
				c0.34-0.16,0.81-0.38,1.28-0.61c0.04-0.14,0.08-0.28,0.12-0.42c-1.58-0.74-3.16-1.48-4.75-2.23c0.44-0.2,0.92-0.41,1.41-0.63
				c-0.88-1.29-1.27-1.46-4.49-2.05c0.46-1.06,2.65-0.08,2.21-1.89c1.54,0.77,2.97,1.59,4.47,2.21c0.64,0.26,1.45,0.11,2.18,0.14
				c-0.12-0.57-0.23-1.14-0.36-1.78c1.98,0.83,3.69,2.37,6.1,2.19c-0.06-0.75-0.11-1.37-0.18-2.2c2.14,1.77,4.13,3.22,7.04,2.63
				c-0.41-0.87-0.76-1.61-1.21-2.57c2.62,1.24,5,2.52,8.01,2.4c-0.43-0.96-0.77-1.72-1.22-2.73c2.41,1.4,4.73,1.69,7.41,1.42
				c-0.52-0.97-0.96-1.77-1.47-2.72c2.67,0.95,5.18,1.5,8.02,1.02c-0.49-0.86-0.87-1.52-1.3-2.28c2.58,0.2,4.99,0.19,7.41-0.5
				c-0.22-0.49-0.37-0.82-0.59-1.3c2.15,0.03,4.11-0.28,5.92-1.35c-0.23-0.35-0.4-0.61-0.64-0.96c4.67-0.69,9.26-1.24,13.58-3.09
				c-4.31-1.91-8.88-2.63-13.43-3.55c0.21-0.37,0.39-0.67,0.74-1.29c-2.07-0.52-3.95-0.99-5.81-1.46c0.11-0.29,0.25-0.66,0.49-1.29
				c-2.54-0.22-4.9-0.43-7.3-0.64c0.4-0.67,0.77-1.3,1.25-2.1c-2.85-0.56-5.41-0.09-8.04,0.76c0.56-0.94,1.04-1.74,1.6-2.67
				c-2.69-0.36-5.01-0.06-7.45,1.16c0.48-0.99,0.83-1.71,1.28-2.65c-2.99-0.19-5.4,0.95-8.06,2.1c0.5-0.94,0.87-1.64,1.3-2.43
				c-1.43-0.67-2.69-0.23-3.85,0.28c-1.15,0.51-2.19,1.26-3.39,1.97c0.08-0.36,0.14-0.61,0.19-0.85c0.31-1.41,0.1-1.66-1.28-1.25
				c-1.09,0.32-2.12,0.82-3.18,1.24c-0.39,0.16-0.78,0.32-1.16,0.49c-0.1-0.15-0.2-0.3-0.3-0.46c0.5-0.4,0.94-0.95,1.51-1.16
				c1.46-0.53,3-0.88,4.48-1.36c2.15-0.7,2.75-1,1.05-2.89c-0.04-0.05-0.02-0.16-0.04-0.31c0.86-0.11,1.73-0.17,2.59-0.33
				c2.38-0.44,4.7-1.1,6.64-2.64c0.99-0.78,0.86-1.31-0.32-1.77c-0.48-0.18-0.95-0.39-1.73-0.72c1.23-0.3,2.11-0.45,2.93-0.74
				c1.75-0.62,3.51-1.21,5.18-2c1.3-0.62,1.26-1.13,0.13-1.97c-0.49-0.36-0.96-0.75-1.68-1.31c4.19-0.24,8-0.66,10.69-4.35
				c-1.52-0.54-2.76-0.98-4.34-1.54c4.33-1.15,8.15-2.38,11.5-5.47c-1.49-0.62-2.68-1.12-4.19-1.75c4.06-0.91,6.97-3,9.68-5.98
				c-1.69-0.52-3.09-0.94-4.72-1.44c4.11-1.46,7.34-3.66,10.11-7.08c-1.48-0.43-2.63-0.76-3.86-1.11c2.97-2.36,5.61-4.93,7.76-8.12
				c-0.77-0.27-1.37-0.48-2.07-0.73C422.62,160.97,424.58,158.71,425.41,155.55"/>
			<path style="clip-path:url(#SVGID_00000068639054483857390600000000382831701590837677_);fill:#FFFFFF;" d="M332.91,233.52
				c1.78,0.05,3.57,0.1,5.35,0.15c-0.3-0.1-0.27-0.52-0.29-0.83c-0.03-0.52-0.4-1-0.89-1.17c-0.49-0.17-1.07-0.01-1.42,0.38
				c0.38-0.06,0.59,0.52,0.37,0.84c-0.22,0.32-0.64,0.42-1.02,0.49c-0.86,0.16-1.73,0.33-2.59,0.5c0.63,0.5,1.74-0.14,2.3,0.44
				c-0.45,0.14-0.85,0.44-1.11,0.84c1.55-0.07,3.09-0.24,4.61-0.51c-2.07,0.84-4.29,1.28-6.52,1.3c0.67,0.39,1.48,0.44,2.25,0.48
				c1.96,0.08,3.93,0.09,5.89,0.05c-0.72-0.05-1.42,0.21-2.11,0.42c-1.78,0.53-3.67,0.69-5.52,0.47c2.56,0.47,5.14,0.94,7.75,1
				c-2.64,0.11-5.3,0.23-7.93-0.05c2.23,0.62,4.54,0.96,6.86,1c-2.21,0.18-4.37-0.6-6.57-0.87c-0.32-0.04-0.73-0.02-0.86,0.27
				c-0.11,0.24,0.04,0.53,0.27,0.66c0.22,0.13,0.5,0.15,0.76,0.16c1.74,0.08,3.48,0.15,5.23,0.23c0.61,0.03,1.29,0.03,1.73-0.4"/>
			<path style="clip-path:url(#SVGID_00000068639054483857390600000000382831701590837677_);fill:#FFFFFF;" d="M332.91,234.6
				c1.78,0.05,3.57,0.1,5.35,0.15c1.03,0.03,1.53-1.54,0.55-2.01c-0.3-0.14,0.37,0.35,0.26,0.36c0.01,0.08,0.01,0.06,0-0.06
				c0-0.03,0-0.07,0-0.1c-0.02-0.25-0.04-0.5-0.12-0.73c-0.18-0.55-0.55-1.03-1.05-1.33c-0.96-0.59-2.22-0.38-2.99,0.41
				c-0.63,0.65-0.19,1.88,0.76,1.84c-0.36,0.01-0.7-0.35-0.6-0.69c0.13-0.44,0.24-0.18,0.08-0.2c0.08-0.04,0.06-0.03-0.07,0.01
				c-0.06,0.02-0.12,0.03-0.17,0.04c-0.16,0.04-0.33,0.07-0.5,0.1c-0.76,0.14-1.51,0.29-2.27,0.43c-0.41,0.08-0.73,0.51-0.77,0.9
				c-0.05,0.45,0.15,0.82,0.52,1.08c0.42,0.29,0.94,0.37,1.44,0.35c0.18-0.01,0.37-0.02,0.55-0.03c0.05,0,0.11,0,0.16,0
				c0.08,0.01,0.07,0-0.03-0.01c0.11-0.04,0.08,0.07-0.05-0.05c0.16-0.6,0.32-1.2,0.48-1.81c-0.75,0.26-1.3,0.69-1.76,1.33
				c-0.47,0.66,0.15,1.66,0.93,1.63c1.64-0.08,3.28-0.27,4.9-0.55c-0.19-0.69-0.38-1.39-0.57-2.08c-1.99,0.8-4.09,1.23-6.24,1.26
				c-1.05,0.01-1.5,1.49-0.55,2.01c1.28,0.7,2.81,0.63,4.23,0.67c1.49,0.04,2.97,0.04,4.46,0c1.39-0.03,1.39-2.11,0-2.16
				c-1.32-0.05-2.59,0.57-3.87,0.8c-1.24,0.22-2.51,0.22-3.76,0.08c-0.53-0.06-1,0.46-1.06,0.94c-0.06,0.49,0.24,1.09,0.77,1.19
				c2.66,0.49,5.33,0.97,8.03,1.04v-2.16c-2.64,0.11-5.29,0.22-7.93-0.05c-0.53-0.05-1,0.45-1.06,0.94
				c-0.06,0.53,0.25,1.04,0.77,1.19c2.33,0.64,4.73,0.99,7.15,1.04v-2.16c-1.61,0.12-3.15-0.26-4.72-0.57
				c-0.81-0.16-1.77-0.45-2.59-0.26c-1,0.23-1.55,1.3-1.05,2.23c0.47,0.88,1.39,0.96,2.28,1l2.61,0.11
				c0.84,0.04,1.68,0.09,2.52,0.11c0.84,0.01,1.61-0.16,2.25-0.72c0.44-0.38,0.39-1.13,0-1.53c-0.44-0.44-1.09-0.39-1.53,0
				c0.1-0.09-0.16,0.06-0.03,0.02c0.01,0-0.34,0.08-0.19,0.06c-0.25,0.03-0.5,0.02-0.75,0.01c-0.67-0.03-1.35-0.06-2.02-0.09
				l-1.94-0.08c-0.34-0.02-0.67-0.03-1.01-0.04c-0.13-0.01-0.32-0.06-0.45-0.02c-0.11,0.03,0-0.07,0.06,0.07
				c0.3,0.24,0.21,0.58-0.29,1c-0.02,0-0.05,0-0.07,0c0.1,0.03,0.23,0,0.34,0.01c0.27,0.03,0.54,0.08,0.81,0.13
				c0.63,0.11,1.25,0.25,1.87,0.37c1.28,0.25,2.58,0.46,3.89,0.36c0.58-0.04,1.08-0.47,1.08-1.08c0-0.6-0.49-1.07-1.08-1.08
				c-2.23-0.05-4.42-0.37-6.57-0.97c-0.1,0.71-0.19,1.42-0.29,2.12c2.64,0.27,5.29,0.16,7.93,0.05c1.39-0.06,1.4-2.12,0-2.16
				c-2.52-0.07-4.99-0.51-7.46-0.97c-0.1,0.71-0.19,1.41-0.29,2.12c1.35,0.15,2.68,0.1,4.02-0.1c0.63-0.1,1.25-0.24,1.86-0.42
				c0.58-0.17,1.14-0.38,1.75-0.36v-2.16c-1.37,0.03-2.75,0.03-4.12,0.01c-0.66-0.01-1.32-0.03-1.98-0.06
				c-0.51-0.03-1.03-0.07-1.49-0.32c-0.18,0.67-0.36,1.34-0.55,2.01c2.33-0.03,4.65-0.47,6.81-1.34c0.54-0.22,0.92-0.72,0.76-1.33
				c-0.17-0.61-0.75-0.85-1.33-0.75c-1.43,0.25-2.87,0.4-4.32,0.47l0.93,1.63c0.1-0.14,0.29-0.28,0.47-0.34
				c0.73-0.25,1.11-1.22,0.48-1.81c-0.46-0.42-1-0.58-1.61-0.58c-0.22,0-0.44,0.03-0.66,0.03c-0.03,0-0.31-0.01-0.18,0
				c0.07,0.01,0.05,0-0.06-0.02c0.1,0.04,0.1,0.03-0.01-0.03c-0.09,0.66-0.17,1.32-0.26,1.98c0.68-0.13,1.35-0.26,2.02-0.39
				c0.58-0.11,1.19-0.19,1.69-0.54c0.59-0.41,0.91-1.1,0.73-1.82c-0.17-0.69-0.76-1.22-1.49-1.2l0.76,1.85
				c0.05-0.05,0.16-0.12,0.12-0.1c0.06-0.02,0.21-0.03,0.13-0.03c0.13,0.04,0.15,0.04,0.07,0.02c-0.05-0.06-0.03-0.04,0.06,0.05
				c-0.04-0.04,0.05,0.07,0.06,0.08c0.02,0.07,0.02,0.08,0.02,0.01c0,0.07,0.01,0.13,0.01,0.2c0.01,0.19,0.02,0.4,0.07,0.59
				c0.11,0.41,0.35,0.79,0.74,0.98l0.55-2.01c-1.78-0.05-3.57-0.1-5.35-0.15C331.52,232.4,331.52,234.56,332.91,234.6"/>
			<path style="clip-path:url(#SVGID_00000068639054483857390600000000382831701590837677_);fill:#4A688B;" d="M333.87,245.02
				c-2.38-0.35-4.76-0.71-7.14-1.06c-0.47-0.07-0.95-0.15-1.58-0.25v-1.45c0-8.31,0.02-16.62-0.04-24.92
				c-0.01-0.79-0.38-1.69-0.87-2.33c-1.37-1.77-2.93-3.39-4.31-5.15c-0.44-0.56-0.77-1.38-0.78-2.08
				c-0.07-5.27-0.04-10.55-0.04-15.82v-1.05c-0.81-0.54-1.5-0.99-2.41-1.6c0.1-0.39,0.13-1.03,0.42-1.5
				c5.65-8.9,11.33-17.78,17-26.67c0.04-0.07,0.13-0.11,0.35-0.29c2.01,3.14,4.01,6.26,6,9.39c2.03,3.18,4.08,6.36,6.08,9.56
				c1.95,3.13,4.14,6.12,5.8,9.41l-0.4,0.17c-0.72,0.49-1.44,0.97-2.29,1.54c0,5.48-0.02,11.1,0.02,16.73
				c0.01,0.95-0.25,1.65-0.88,2.35c-1.5,1.66-2.98,3.36-4.36,5.12c-0.44,0.57-0.78,1.39-0.79,2.09c-0.05,8.35-0.06,16.7,0,25.05
				c0.01,1.28-0.44,1.6-1.61,1.73c-2.39,0.25-4.76,0.68-7.14,1.03H333.87z M350.3,188.96c-5.32-8.36-10.52-16.52-15.81-24.82
				c-5.41,8.34-10.7,16.49-16.1,24.82H350.3z M338.9,202.13h-7.93v5.26h7.93V202.13z M341.99,216.37v-7.21h-6.57
				c0.69,1.63,1.33,3.16,1.99,4.68c1.24,2.81,1.24,2.81,4.33,2.62C341.78,216.46,341.82,216.43,341.99,216.37 M341.96,240.19
				c-1.28-2.08-2.43-3.99-3.63-5.87c-0.16-0.25-0.52-0.51-0.8-0.53c-0.99-0.06-1.99-0.03-2.94-0.03v6.42H341.96z M341.59,224.43
				c-1.21-2.04-2.33-3.96-3.48-5.86c-0.16-0.27-0.45-0.65-0.7-0.66c-1.06-0.07-2.14-0.03-3.12-0.03v6.56H341.59z M326.31,240.16
				h6.71v-6.2c-3.02-0.63-3.44-0.45-4.76,2.01c-0.48,0.89-0.99,1.76-1.44,2.66C326.59,239.07,326.5,239.57,326.31,240.16
				 M332.77,217.93c-3.08-0.25-3.08-0.25-4.62,2.17c-0.35,0.55-0.81,1.06-1.07,1.65c-0.36,0.81-0.59,1.68-0.91,2.65h6.61V217.93z
				 M340.4,195.51v4.84c3.75,1.7,5.36-1.12,7.26-3.19c0.32-0.35,0.24-1.07,0.35-1.65H340.4z M320.51,202.04
				c0,1.69-0.02,3.3,0.03,4.9c0.01,0.18,0.38,0.51,0.59,0.51c2.03,0.04,4.05,0.02,6.43,0.02c-0.93-1.86-1.67-3.43-2.49-4.95
				c-0.13-0.24-0.54-0.45-0.83-0.46C323.06,202,321.89,202.04,320.51,202.04 M321.19,195.51c1.44,1.69,2.82,3.31,4.22,4.91
				c0.12,0.14,0.37,0.24,0.57,0.24c1.12,0.02,2.25,0.01,3.33,0.01v-5.17H321.19z M336.07,226c0.9,2.08,1.72,3.99,2.58,5.89
				c0.1,0.22,0.45,0.45,0.69,0.46c0.89,0.06,1.79,0.02,2.68,0.02V226H336.07z M320.71,194h8.58v-3.03
				c-0.19-0.07-0.31-0.15-0.43-0.15c-1.89-0.01-3.78-0.02-5.67-0.02c-2.97,0-2.97,0-2.63,2.97
				C320.57,193.81,320.61,193.85,320.71,194 M326.46,216.69c0.92-0.23,2.08-0.2,2.28-0.62c1.05-2.18,1.85-4.47,2.79-6.87h-5.07
				V216.69z M338.79,190.93h-7.94v3.03h7.94V190.93z M340.28,194h7.62v-3.08h-7.62V194z M347.89,201.95
				c-0.98,0.12-2.28-0.1-2.66,0.39c-1.14,1.47-1.91,3.22-2.94,5.06h5.6V201.95z M326.49,225.99v6.48c0.77-0.11,1.86,0,2.03-0.34
				c0.94-1.93,1.65-3.96,2.52-6.14H326.49z M332.78,232.34v-6.36c-0.12-0.01-0.23-0.01-0.35-0.02c-0.73,2.1-1.46,4.21-2.22,6.38
				H332.78z M334.2,209.89v6.53h2.81C336.11,214.33,335.24,212.3,334.2,209.89 M334.44,232.25h2.71c-0.87-2.15-1.69-4.17-2.51-6.19
				c-0.07,0.03-0.14,0.06-0.21,0.08V232.25z M340.52,207.4c0.11,0.03,0.23,0.06,0.34,0.08c0.83-1.77,1.66-3.55,2.52-5.38h-2.86
				V207.4z M329,207.48c0.12-0.04,0.24-0.08,0.36-0.13v-5.23h-2.77C327.43,203.98,328.21,205.73,329,207.48 M332.67,210.8
				c-0.08-0.02-0.16-0.04-0.23-0.06c-0.7,1.88-1.4,3.76-2.11,5.68h2.34V210.8z M323.92,200.62c-1.17-1.28-2.13-2.32-3.32-3.63v3.63
				H323.92z M339.31,217.92c0.89,1.51,1.68,2.85,2.48,4.2c0.06-0.04,0.13-0.08,0.19-0.12v-4.07H339.31z M342.05,233.86h-2.4
				c0.79,1.27,1.47,2.37,2.16,3.48c0.08-0.04,0.16-0.08,0.24-0.13V233.86z M326.53,233.83v2.02c0.07,0.01,0.15,0.02,0.22,0.02
				c0.32-0.64,0.65-1.28,1.03-2.04H326.53z"/>
			
				<rect x="330.21" y="175.4" style="clip-path:url(#SVGID_00000068639054483857390600000000382831701590837677_);fill:#4A688B;" width="9.11" height="7.22"/>
		</g>
		<g style="clip-path:url(#SVGID_00000173873343616703868150000002322894363489260193_);">
			<text transform="matrix(0.8052 0.593 -0.593 0.8052 164.0105 481.9098)" class="st2 st3 st4">H</text>
		</g>
		<g style="clip-path:url(#SVGID_00000173873343616703868150000002322894363489260193_);">
			<text transform="matrix(0.895 0.446 -0.446 0.895 200.8133 507.665)" class="st2 st3 st4">A</text>
		</g>
		<g style="clip-path:url(#SVGID_00000173873343616703868150000002322894363489260193_);">
			<text transform="matrix(0.9503 0.3113 -0.3113 0.9503 237.2456 524.8473)" class="st2 st3 st4">T</text>
		</g>
		<g style="clip-path:url(#SVGID_00000173873343616703868150000002322894363489260193_);">
			<text transform="matrix(0.985 0.1724 -0.1724 0.985 272.117 535.4144)" class="st2 st3 st4">T</text>
		</g>
		<g style="clip-path:url(#SVGID_00000173873343616703868150000002322894363489260193_);">
			<text transform="matrix(0.9985 0.0552 -0.0552 0.9985 307.6899 540.6429)" class="st2 st3 st4">I</text>
		</g>
		<g style="clip-path:url(#SVGID_00000173873343616703868150000002322894363489260193_);">
			<text transform="matrix(0.9968 -0.0798 0.0798 0.9968 332.5767 541.9557)" class="st2 st3 st4">N</text>
		</g>
		<g style="clip-path:url(#SVGID_00000173873343616703868150000002322894363489260193_);">
			<text transform="matrix(0.9667 -0.2559 0.2559 0.9667 378.485 537.1689)" class="st2 st3 st4">G</text>
		</g>
		<g style="clip-path:url(#SVGID_00000173873343616703868150000002322894363489260193_);">
			<text transform="matrix(0.9123 -0.4094 0.4094 0.9123 421.585 524.4757)" class="st2 st3 st4">E</text>
		</g>
		<g style="clip-path:url(#SVGID_00000173873343616703868150000002322894363489260193_);">
			<text transform="matrix(0.8332 -0.5529 0.5529 0.8332 455.9701 508.3379)" class="st2 st3 st4">N</text>
		</g>
	</g>
</g>
</svg>
