<?xml version="1.0" encoding="utf-8"?>
<!-- Generator: Adobe Illustrator 28.0.0, SVG Export Plug-In . SVG Version: 6.00 Build 0)  -->
<svg version="1.1" id="Layer_1" xmlns="http://www.w3.org/2000/svg" xmlns:xlink="http://www.w3.org/1999/xlink" x="0px" y="0px"
	 viewBox="0 0 85.18 85.39" style="enable-background:new 0 0 85.18 85.39;" xml:space="preserve">
<style type="text/css">
	.st0{fill:#FFFFFF;}
	.st1{fill:#4A678B;}
	.st2{font-family:'AvenirNextLTPro-Bold';}
	.st3{font-size:29.9183px;}
</style>
<g>
	<circle class="st0" cx="42.56" cy="42.69" r="42.69"/>
	<g>
		<path class="st1" d="M36.18,57.37c0-5.3,0-10.5,0-15.7c0-0.7,0.01-1.4-0.09-2.09c-0.72-4.72-3.97-7.61-9.42-8.36
			c-1.33-0.18-2.67-0.27-3.96-0.39c7.22-4.65,34.03-4.49,40.86,0.13c-1.9,0.14-4.06,0.07-6.11,0.5c-4.77,1.01-7.84,4.95-7.87,9.82
			c-0.03,4.83-0.01,9.67-0.01,14.5c0,0.5,0,1,0,1.57C45.08,57.37,40.73,57.37,36.18,57.37z"/>
		<path class="st1" d="M26.49,57.14c-3.83,0-7.48,0-11.31,0c0-1.58,0.01-3.1,0-4.61c-0.01-0.74-0.02-1.49-0.09-2.23
			c-0.22-2.4-1.23-4.26-3.61-5.16c-2.42-0.91-4.55-0.36-6.46,1.3c-0.24,0.21-0.47,0.42-0.75,0.67c-0.35-3.42,3.58-8.55,8.92-11.87
			c5.64-3.51,11.38-4.24,17.36-0.93c-0.04,0.16-0.03,0.29-0.09,0.33c-3.05,2.22-4.16,5.22-4.01,8.96
			C26.63,48.06,26.49,52.53,26.49,57.14z"/>
		<path class="st1" d="M58.51,57.09c0-4.41-0.14-8.73,0.04-13.04c0.16-3.89-0.72-7.18-4.14-9.43c2.91-2.53,9.19-3.19,13.82-1.24
			c6.8,2.87,12.34,8.72,12.64,13.83c-0.45-0.39-0.76-0.68-1.08-0.94c-1.92-1.56-4.04-2.02-6.38-1.09c-2.23,0.89-3.33,2.66-3.45,4.97
			c-0.12,2.27-0.03,4.55-0.03,6.94C66.07,57.09,62.38,57.09,58.51,57.09z"/>
		<path class="st1" d="M42.99,12.75c3.63-0.01,6.62,2.91,6.65,6.5c0.03,3.69-2.9,6.64-6.62,6.65c-3.72,0.02-6.65-2.91-6.63-6.62
			C36.42,15.65,39.33,12.77,42.99,12.75z"/>
		<path class="st1" d="M16.26,18.26c3.69,0,6.59,2.86,6.58,6.49c-0.01,3.65-2.89,6.5-6.58,6.5c-3.68,0-6.59-2.86-6.59-6.49
			C9.68,21.12,12.57,18.26,16.26,18.26z"/>
		<path class="st1" d="M68.74,31.25c-3.68,0-6.57-2.86-6.58-6.5c-0.01-3.63,2.9-6.49,6.58-6.49c3.69,0,6.58,2.86,6.58,6.5
			C75.33,28.39,72.42,31.25,68.74,31.25z"/>
	</g>
	<g>
		<text transform="matrix(1 0 0 1 33.0546 78.7225)" class="st1 st2 st3">+</text>
	</g>
</g>
</svg>
