<?xml version="1.0" encoding="utf-8"?>
<!-- Generator: Adobe Illustrator 28.0.0, SVG Export Plug-In . SVG Version: 6.00 Build 0)  -->
<svg version="1.1" id="Layer_1" xmlns="http://www.w3.org/2000/svg" xmlns:xlink="http://www.w3.org/1999/xlink" x="0px" y="0px"
	 viewBox="0 0 85.2 85.4" style="enable-background:new 0 0 85.2 85.4;" xml:space="preserve">
<style type="text/css">
	.st0{fill:#FFFFFF;}
	.st1{fill:#4A678A;}
</style>
<g>
	<circle class="st0" cx="42.6" cy="42.7" r="42.7"/>
	<g>
		<path class="st1" d="M80.9,29.7c-1.1,1.5-2.5,2.7-4.1,3.6c-1.6,0.9-3.3,1.6-5.1,2c1,0.2,1.9,0.1,2.8,0.1c0.9-0.1,1.8-0.2,2.7-0.5
			c-0.1,0.2-0.1,0.3-0.2,0.4c-0.6,1.3-1.6,2.2-2.8,3c-1.4,0.9-2.9,1.5-4.5,1.8c-0.7,0.1-1.3,0.2-2,0.3c0.3,0.1,0.5,0.1,0.7,0.2
			c1.3,0.3,2.7,0.5,4.1,0.5c0.5,0,1-0.1,1.5-0.1c0,0.3-0.2,0.6-0.4,0.8c-0.5,0.9-1.3,1.5-2.1,2c-1.8,1.2-3.9,1.8-6,2.4
			c-0.7,0.2-1.4,0.4-2.1,0.6c-0.1,0-0.2,0.1-0.3,0.2c-0.2,0.1-0.1,0.2,0,0.3c0.2,0.1,0.5,0.2,0.7,0.2c1.1,0.2,2.3,0.3,3.4,0.4
			c0.5,0.1,1,0,1.5,0c-0.1,0.1-0.1,0.2-0.2,0.3c-1.2,1.4-2.7,2.4-4.4,3.1c-1.2,0.5-2.5,0.8-3.8,1c-1.1,0.1-2.2,0.1-3.4,0.1
			c-0.2,0-0.4,0-0.6,0c-0.1,0-0.2,0.1-0.2,0.2c-1,1.3-2,2.5-3.1,3.8c-0.8,1-1.6,2-2.4,3c-0.4,0.5-0.7,0.9-1.1,1.4
			c0.1-0.2,0.1-0.4,0.2-0.6c0.5-1.2,0.9-2.5,1.4-3.7c1.4-3.3,3-6.5,4.8-9.6c1.1-1.9,2.4-3.7,3.7-5.5c2.1-2.7,4.5-5.2,7.3-7.2
			c1.6-1.2,3.3-2.2,5.2-2.9c2.6-1,5.3-1.5,8.1-1.4c0,0,0.1,0,0.1,0C80.6,29.7,80.7,29.7,80.9,29.7z"/>
		<path class="st1" d="M59.8,35.8c0,0.5,0,1.1,0,1.6c0.1,0.7-0.1,1.3-0.5,1.9c-0.4,0.6-0.6,1.2-1,1.8c0-0.1,0-0.2,0-0.2
			c0-5.3,0-10.7,0-16c0-1.2,0.4-2.3,1.1-3.3c0.2-0.2,0.3-0.4,0.5-0.7c-0.1,0-0.2,0-0.3,0c-1.2,0-2.4,0-3.6,0c-1.1,0-2.1,0-3.2,0
			c-4.7,0-9.5,0-14.2,0c-2.6,0-5.1,0-7.7,0c-2.8,0-5,1.9-5.4,4.6c-0.1,0.3-0.1,0.6-0.1,0.9c0,10.5,0,21,0,31.5c0,1.5,0,3,0,4.5
			c0,1.4-0.4,2.7-1.3,3.8c-0.1,0.1-0.2,0.2-0.3,0.4c0.5,0,1,0,1.5,0c5.1,0,10.3,0,15.4,0c4.1,0,8.1,0,12.2,0c3.1,0,5.5-2.4,5.5-5.5
			c0-2.5,0-19.1,0-21.6c0-0.1,0.1-0.3,0.2-0.4c0.4-0.5,0.8-1,1.3-1.6c0,0.1,0,0.2,0,0.2c0,3.2,0,20.5,0,23.6
			c-0.1,3.2-2.3,5.8-5.3,6.5c-0.6,0.1-1.2,0.2-1.7,0.2c-9.6,0-19.2,0-28.7,0c-1.3,0-2.6,0-3.9,0c-2.9,0-5.4-2.3-5.4-5.3
			c0-3.5,0-6.9,0-10.4c0-0.5,0.3-0.8,0.8-0.8c2.7,0,5.5,0,8.2,0c0.1,0,0.2,0,0.3,0c0-0.1,0-0.2,0-0.3c0-5.9,0-11.8,0-17.7
			c0-2.4,0-4.9,0-7.3c0-3.5,2.9-6.6,6.4-6.8c1.7-0.1,3.4,0,5.1,0c1.3,0,2.6,0,3.9,0c8.1,0,16.1,0,24.2,0c2.5,0,4.6,1.5,5.3,3.7
			c0.1,0.2,0.1,0.5,0.2,0.7c0.1,0.4,0.1,0.8-0.3,1.2c-0.4,0.4-0.7,0.8-1.1,1.3c0-0.4,0-0.7,0-1c0-0.6,0-1.2-0.2-1.8
			c-0.6-1.6-2.1-2.7-3.9-2.6c-1.7,0.1-3.2,1.3-3.6,2.9c-0.1,0.4-0.1,0.8-0.1,1.1c0,3.1,0,6.2,0,9.3c0,0.1,0,0.2,0,0.3 M16.1,53
			c0,0.1,0,0.2,0,0.3c0,3.1,0,6.2,0,9.2c0,0.9,0.3,1.7,0.8,2.4c1,1.4,2.8,2,4.4,1.4c1.6-0.5,2.8-2.1,2.8-3.7c0-3.1,0-6.2,0-9.3
			c0-0.1,0-0.2,0-0.3C21.4,53,18.7,53,16.1,53z"/>
		<path class="st1" d="M41.5,62.7c4.3,0,8.7,0,13,0c0.4,0,0.7,0.1,0.8,0.4c0.2,0.5-0.1,1-0.7,1c-0.7,0-1.4,0-2.2,0c-8,0-16,0-24,0
			c-0.5,0-0.9-0.3-0.8-0.8c0-0.4,0.3-0.6,0.6-0.6c0.4,0,0.8,0,1.2,0C33.4,62.7,37.5,62.7,41.5,62.7z"/>
		<path class="st1" d="M41.5,58.6c4.3,0,8.7,0,13,0c0.2,0,0.3,0,0.5,0c0.3,0.1,0.5,0.4,0.5,0.7c0,0.3-0.2,0.6-0.6,0.7
			c-0.1,0-0.3,0-0.4,0c-6.7,0-13.4,0-20.1,0c-2,0-4,0-6,0c-0.4,0-0.7-0.2-0.8-0.6c-0.1-0.5,0.2-0.8,0.8-0.8c1.6,0,3.1,0,4.7,0
			C35.8,58.6,38.7,58.6,41.5,58.6z"/>
		<path class="st1" d="M41.5,54.6c4.3,0,8.7,0,13,0c0.2,0,0.3,0,0.5,0c0.3,0.1,0.5,0.4,0.5,0.7c0,0.3-0.2,0.6-0.6,0.7
			c-0.1,0-0.3,0-0.4,0c-6.7,0-13.4,0-20.1,0c-2,0-4,0-6,0c-0.4,0-0.7-0.2-0.8-0.6c-0.1-0.5,0.2-0.8,0.8-0.8c1.6,0,3.1,0,4.7,0
			C35.8,54.6,38.7,54.6,41.5,54.6z"/>
		<path class="st1" d="M41.5,50.6c4.3,0,8.7,0,13,0c0.2,0,0.3,0,0.5,0c0.3,0.1,0.5,0.4,0.5,0.7c0,0.3-0.2,0.6-0.6,0.7
			c-0.1,0-0.3,0-0.4,0c-6.7,0-13.4,0-20.1,0c-2,0-4,0-6,0c-0.4,0-0.7-0.2-0.8-0.6c-0.1-0.5,0.2-0.8,0.8-0.8c1.6,0,3.1,0,4.7,0
			C35.8,50.6,38.7,50.6,41.5,50.6z"/>
		<path class="st1" d="M41.5,43.9c-4.3,0-8.6,0-12.9,0c-0.1,0-0.2,0-0.2,0c-0.5,0-0.7-0.3-0.7-0.8c0-0.4,0.3-0.7,0.7-0.7
			c1.3,0,2.7,0,4,0c5.5,0,11,0,16.5,0c1.9,0,3.8,0,5.7,0c0.3,0,0.5,0,0.7,0.3c0.2,0.2,0.2,0.5,0.1,0.8c-0.1,0.3-0.4,0.4-0.7,0.4
			c-1,0-2,0-2.9,0C48.3,43.9,44.9,43.9,41.5,43.9C41.5,43.9,41.5,43.9,41.5,43.9z"/>
		<path class="st1" d="M41.5,46.5c4.3,0,8.6,0,12.9,0c0.1,0,0.1,0,0.2,0c0.5,0,0.8,0.3,0.8,0.7c0,0.4-0.3,0.7-0.8,0.7
			c-0.7,0-1.4,0-2.1,0c-3.5,0-6.9,0-10.4,0c-4.5,0-9,0-13.5,0c-0.1,0-0.3,0-0.4,0c-0.4-0.1-0.6-0.4-0.5-0.8c0-0.3,0.3-0.6,0.7-0.6
			c0.4,0,0.7,0,1.1,0C33.4,46.5,37.4,46.5,41.5,46.5z"/>
		<path class="st1" d="M41.5,34.4c4.3,0,8.7,0,13,0c0.2,0,0.3,0,0.5,0.1c0.3,0.1,0.5,0.5,0.4,0.8c-0.1,0.3-0.4,0.6-0.7,0.6
			c-7.8,0-15.5,0-23.3,0c-1,0-2,0-3.1,0c-0.3,0-0.6-0.2-0.7-0.5c-0.1-0.3,0-0.6,0.2-0.8c0.2-0.1,0.4-0.2,0.6-0.2c1.9,0,3.8,0,5.7,0
			C36.6,34.4,39,34.4,41.5,34.4z"/>
		<path class="st1" d="M41.5,38.4c3.7,0,7.5,0,11.2,0c0.6,0,1.2,0,1.9,0c0.5,0,0.9,0.3,0.9,0.7c0,0.4-0.3,0.7-0.9,0.7
			c-0.9,0-1.8,0-2.8,0c-2.6,0-5.1,0-7.7,0c-2,0-4.1,0-6.1,0c-3.2,0-6.4,0-9.6,0c-0.5,0-0.8-0.3-0.8-0.7c0-0.4,0.3-0.7,0.7-0.7
			c0.4,0,0.7,0,1.1,0c1.8,0,3.6,0,5.4,0c1.4,0,2.8,0,4.1,0C39.8,38.4,40.6,38.4,41.5,38.4C41.5,38.4,41.5,38.4,41.5,38.4z"/>
		<path class="st1" d="M42.6,30.4c-1.7,0-3.3,0-5,0c-0.6,0-0.9-0.4-0.8-0.9c0.1-0.3,0.4-0.5,0.7-0.6c0.3,0,0.6,0,0.9,0c3,0,6,0,9,0
			c0.1,0,0.1,0,0.2,0c0.4,0.1,0.7,0.4,0.7,0.7c0,0.4-0.3,0.7-0.7,0.7c-0.8,0-1.7,0-2.5,0C44.3,30.4,43.4,30.4,42.6,30.4z"/>
		<path class="st1" d="M42.6,25.4c0.8,0,1.7,0,2.5,0c0.5,0,0.8,0.3,0.8,0.7c0,0.4-0.3,0.7-0.8,0.7c-1.7,0-3.5,0-5.2,0
			c-0.4,0-0.7-0.3-0.7-0.7c0-0.4,0.3-0.7,0.7-0.7C40.8,25.4,41.7,25.4,42.6,25.4C42.6,25.4,42.6,25.4,42.6,25.4z"/>
	</g>
</g>
</svg>
