<?xml version="1.0" encoding="UTF-8"?><svg id="Layer_1" xmlns="http://www.w3.org/2000/svg" viewBox="0 0 450 350"><defs><style>.cls-1{fill:#5d8d85;}.cls-1,.cls-2,.cls-3,.cls-4,.cls-5,.cls-6,.cls-7,.cls-8,.cls-9,.cls-10,.cls-11,.cls-12,.cls-13,.cls-14,.cls-15,.cls-16,.cls-17,.cls-18,.cls-19,.cls-20,.cls-21,.cls-22,.cls-23,.cls-24,.cls-25,.cls-26,.cls-27,.cls-28,.cls-29{stroke-width:0px;}.cls-2{fill:#f4b46e;}.cls-3{fill:#d8674c;}.cls-4{fill:#f8f1e4;}.cls-5{fill:#fcd692;}.cls-6{fill:#acba84;}.cls-7{fill:#e48558;}.cls-8{fill:#81af8b;}.cls-9{fill:#a1b887;}.cls-10{fill:#ec9d63;}.cls-11{fill:#f7e0d3;}.cls-12{fill:#fbf8ec;}.cls-13{fill:#72ac8b;}.cls-14{fill:#fbf9ee;}.cls-15{fill:#404364;}.cls-16{fill:#b5bd85;}.cls-17{fill:#fcda9c;}.cls-18{fill:#98b587;}.cls-19{fill:#fbf5ea;}.cls-20{fill:#60968d;}.cls-21{fill:#f8e7d8;}.cls-22{fill:#f8ebdd;}.cls-23{fill:#fad287;}.cls-24{fill:#76ad8b;}.cls-25{fill:#90b488;}.cls-26{fill:#588583;}.cls-27{fill:#54598c;}.cls-28{fill:#e6915f;}.cls-29{fill:#8ab289;}</style></defs><path class="cls-11" d="m253.32,334.12c-.5,0-.99-.02-1.49-.03-.02-1.77.54-4.76-.16-5.09-3.39-1.61-2.94-4.33-2.91-7.07,3.03-.02,6.06-.15,9.08-.04,2.73.1,4.07-1.12,4.81-3.7,1.35-4.7,2.97-9.31,4.47-13.96,2.48.99,4.9,2.16,7.44,2.93,13.57,4.11,16.94,1.26,21.59-9.01.82-.77,1.54-1.75,2.49-2.28,2.52-1.42,5.14-2.79,7.71-.02-.73,6.89-1.45,13.78-2.18,20.67,1.08,5.39.04,7.27-5.02,9.22-1.12.43-2.14,1.12-3.2,1.7.35.39.7.79,1.05,1.18,2.53,0,5.1.22,7.59-.11.97-.13,2.31-1.41,2.53-2.38.65-2.87.82-5.85,1.18-8.79,1.93.31,2.94-.25,3.38-2.42,1.03-5.03,2.4-9.99,3.38-13.98,3.85,5.24,7.92,10.78,12.19,16.58,2.46-1.94,4.29-3.39,6.08-4.81-2.59-4.12-4.95-7.88-7.31-11.64-.23-1.21-.46-2.42-.69-3.64,3.9-1.85,5.71-4.89,6.14-9.23.57-5.78,2.96-7.37,8.68-6.51,3.94.59,7.86,1.25,11.79,1.89,1.61.3,3.23.56,4.83.91,3.45.76,6.77,1.1,9.24-2.21.58-.92,1.55-1.78,1.66-2.76.54-4.51,3.65-6.7,7.25-8.53,3.14-1.59,6.28-3.18,9.43-4.76,7.49-2.16,12.44-7.21,12.92-13.2,1.44-.61,3.2-.9,4.24-1.92,1.83-1.79,3.63-2.74,6.31-2.73,6.98.03,8.22-1.22,8.28-8.26.02-2.6,1.07-3.71,3.35-3.05,2.3.67,4.43,1.96,6.63,2.98-11.93,75.22-89.07,122.26-161.27,98.59-.78-.48-1.57-.97-2.35-1.46-1-.03-2-.07-3-.1-.53-.48-1.06-.96-1.59-1.43-.49-.01-.99-.02-1.48-.04-1.03-.5-2.07-1-3.1-1.5Zm85.22-13.81c-1.32-.52-2.27-1.28-2.86-1.06-3.72,1.39-4.88,4.68-5.38,8.49,2.48-2.24,4.96-4.48,8.23-7.43Z"/><path class="cls-12" d="m89.83,83.27c1.19-.3,2.49-.4,3.55-.94,3.59-1.84,6.93-4.26,10.66-5.7,6.92-2.66,14.1-4.68,21.09-7.17,9.49-3.38,19.32-3.01,29.14-3.05,2.47,0,4.94-.71,7.41-1.09.49-.08,1.08-.37,1.46-.2,6.72,2.96,11.74-.88,16.91-4.16.34.37.82.69,1,1.12,5.55,13.32,11.83,26.19,22.42,36.42.07.07-.34.65-.53.99-10.04-2.27-20.09-4.53-30.13-6.8-5-.83-10.01-1.67-15.01-2.5-.77.26-1.54.51-3.21,1.07,6.22,3.86,11.53,7.15,16.84,10.44,1.85,1.17,3.71,2.34,5.56,3.52-.55,5.3-1.02,10.62-1.74,15.9-.13.96-1.17,1.92-2,2.62-.69.59-1.7.8-2.56,1.18-.46-.12-.93-.24-1.39-.36-2.22-2.73-4.45-5.46-6.67-8.18-.59-.57-1.18-1.14-1.77-1.71-.16-.09-.33-.18-.49-.27.18.07.36.14.54.21.02,1.29.04,2.58.07,3.87-.68.52-1.29,1.19-2.05,1.55-3.59,1.66-8.08,2.4-10.65,5.03-4.15,4.25-7.04,9.72-10.47,14.67-.96-.06-2.02.11-2.87-.24-3.34-1.35-6.62-2.86-9.93-4.31l.02.03c-.53-.18-1.06-.36-1.58-.54-.41.15-.83.31-1.24.46.82,1.11,1.58,2.28,2.48,3.33,2.63,3.04,5.32,6.03,7.98,9.04-2.57,2.82-5.15,5.64-7.72,8.47-4.37-.29-5.64-4-7.62-6.92-3.93-11.36-7.83-22.73-11.8-34.08-.44-1.27-1.26-2.4-1.9-3.6-3.07-6.85-6.15-13.7-9.22-20.55-1.52-2.52-3.04-5.04-4.56-7.55Z"/><path class="cls-21" d="m426.11,240.05c-2.2-1.02-4.33-2.32-6.63-2.98-2.28-.66-3.33.45-3.35,3.05-.06,7.04-1.29,8.3-8.28,8.26-2.68-.01-4.48.94-6.31,2.73-1.04,1.02-2.8,1.3-4.24,1.92-1.03-3.22-2.75-5.82-6.46-6.1-5.21-.39-10.38-.25-15.17,2.29-4.36,1.55-8.18,1.79-11.31-2.72-4.46-6.41-7.71-6.55-13.99-1.24-4.58,4.07-9.16,8.15-13.75,12.22-2.96,1.92-6.04,3.3-9.69,2.31-.04-.5-.09-1-.13-1.5.46-.12.92-.36,1.37-.35,3.28.09,5.75-.93,6.42-4.52.69-3.67-1.7-5.21-4.5-6.47-1.61-.73-3.4-1.26-4.71-2.36-1.24-1.03-3.42-2.19-1.6-4.49,2.87-1.51,5.94-2.75,8.58-4.6,6.4-4.48,8.15-10.41,5.4-17.68-.89-2.36-2.2-4.56-3.32-6.83-.53-1.78-1.05-3.56-1.58-5.35.25.05.57.02.73.17,7.25,6.47,11.98,7.02,20.96,2.5.64-.32,1.54-.51,2.21-.34,8.12,2.16,12.87-4.67,19.22-7.19.64-.25,1.15-1.36,1.31-2.15.36-1.84.71-3.75.63-5.61-.16-3.56,1.21-5.16,4.89-5.01,4.44.17,8.91.28,13.33-.05,2.67-.2,5.25-1.52,7.93-1.9,3.01-.43,6.09-.47,9.14-.46,1.19,0,2.37.83,3.57.88,2.85.11,5.35.4,5.81,4.02.07.54,1.31.92,2.01,1.38,1.02,6.58,2.78,13.15,2.9,19.75.17,9.46-.86,18.95-1.38,28.42Z"/><path class="cls-4" d="m355.8,106.99c.85.31,1.71.63,2.56.94-1.39,1.41-2.77,2.82-4.16,4.23-.24.04-.47.11-.7.2-.33.22-.66.45-.99.67-4.65-.95-9.29-1.96-13.96-2.82-1.62-.3-3.31-.24-4.96-.34-.72,0-1.45,0-2.17,0-1.57.31-3.15.61-4.72.92-.91.65-2.11,1.1-2.69,1.97-5.67,8.41-8.19,17.93-9.52,27.85-2.46,1.21-4.92,2.41-7.39,3.62-9.79,2.86-18.76,7.42-27.09,13.27,1.65-4.33,3.3-8.66,4.96-12.99,2.66-8.47,5.33-16.95,7.99-25.42-.54-.36-1.08-.73-1.61-1.09-.45.86-.89,1.71-1.34,2.57-2.8,3.37-5.61,6.74-8.41,10.11-.9,1.03-2.02,1.94-2.66,3.11-3.49,6.33-6.87,12.73-10.29,19.1-.53,1.08-1.05,2.16-1.88,3.86-.25-1.16-.31-1.72-.5-2.23-2.23-6.22-4.49-12.43-6.74-18.65l.02.02c-.92-2.84-1.84-5.68-2.77-8.51-.37.1-.73.2-1.1.3v19.83c.38,3.21.76,6.41,1.15,9.62-.22.2-.45.4-.67.6-2.71-1.9-5.41-3.79-8.12-5.69-.6-.43-1.21-.86-1.81-1.29-.15.17-.3.33-.44.5.65.86,1.29,1.71,1.94,2.57v.06c1.67,2.92,3.33,5.84,4.99,8.77-1.28.05-2.57.03-3.84.17-2.76.3-4.01,2.67-3.09,5.72-.13,3.07-.57,6.21,3.47,7.49.52.17.73,2.1.65,3.18-.06.91-.75,1.78-1.16,2.67-5.38,2.96-10.76,5.92-16.15,8.88-.48-.65-1.1-1.24-1.42-1.95-1.26-2.77-2.43-5.58-3.64-8.38-.07-16.32-.14-32.64-.22-48.96,0-.51.01-1.03.02-1.54.09-.25.08-.5-.02-.74.02-2.55.04-5.11.06-7.66.28-1.54.56-3.08.87-4.79,2.38,1.01,4.54,1.92,6.69,2.82,5.62,1.17,11.25,2.34,16.87,3.51h21.27c-1.67-.72-2.31-.99-2.95-1.27l-3.81-1.8c-4.82-2.02-9.63-4.05-14.7-6.18,1.04-.55,1.86-.99,2.67-1.42,3.01-.76,6.02-1.52,9.02-2.28.99,1.49,2.01,4.25,2.96,4.22,2.46-.05,5.99-.64,7.04-2.31,1.27-2.01,2.43-2.83,4.44-3.09,3.37-.43,6.78-.65,10.12-1.22,3.84-.66,8.82.68,9.71-4.99,1.96-.34,3.67-.36,5.17-.94,6.6-2.55,12.98-5.77,19.73-7.77,6.47-1.91,13.28-2.68,19.96-3.82,2.36-.4,3.31.8,3.49,3.27.33,4.38,1.09,8.72,1.72,13.52h8.15Z"/><path class="cls-14" d="m228.37,14.46c1.43.22,3.03.98,4.25.58,9.28-3.08,18.89-4.21,28.5-3.47,8.24.64,16.37,2.7,24.56,4.11,11.01,1.9,19.86,8.59,28.38,14.74,8.7,6.28,16.59,14.27,21.85,24.13,1.68,3.13,4.96,5.51,4.59,9.62-.45-.2-1.07-.28-1.32-.62-2.71-3.71-5.29-7.52-8.06-11.18-3.76-4.99-5.09-5.15-10.93-2.55-4.14,1.85-8.37,3.54-12.66,5.04-5.33,1.87-10.86,3.21-16.11,5.27-7.64,2.99-15.07,6.58-23.56,6.35.94-2.58,1.89-5.15,2.83-7.73,2.69-8.07,5.38-16.14,8.08-24.21.12-.43.24-.86.35-1.28-.33.22-.67.44-1,.66-.19.08-.3.22-.32.42-6.88,7.19-13.75,14.39-20.63,21.58-.26.21-.53.41-.79.62,0,0,.01-.01.01-.01-6.98,8.31-13.97,16.63-21.11,25.14.22-3.47.78-6.77.58-10.03-.65-10.39-1.58-20.77-2.4-31.15-.91-4.4-1.82-8.79-2.73-13.19-.79-4.27-1.58-8.54-2.38-12.82Z"/><path class="cls-19" d="m267.88,66.47c8.49.23,15.92-3.36,23.56-6.35,5.25-2.06,10.78-3.4,16.11-5.27,4.28-1.5,8.51-3.19,12.66-5.04,5.83-2.6,7.17-2.44,10.93,2.55,2.77,3.67,5.35,7.48,8.06,11.18.25.34.87.42,1.32.62,4.51,7.25,6.19,15.43,7.59,23.65.91,5.33,1.31,10.75,1.93,15.98,1.93,1.07,3.85,2.13,5.77,3.19-2.65,0-5.3,0-8.15,0-.64-4.79-1.39-9.14-1.72-13.52-.19-2.47-1.13-3.67-3.49-3.27-6.68,1.14-13.49,1.9-19.96,3.82-6.75,2-13.13,5.22-19.73,7.77-1.5.58-3.21.6-5.17.94-.89,5.67-5.87,4.33-9.71,4.99-3.34.58-6.75.79-10.12,1.22-2.01.26-3.17,1.08-4.44,3.09-1.05,1.67-4.59,2.26-7.04,2.31-.96.02-1.97-2.73-2.96-4.23,5.36-2.82,10.72-5.63,16.09-8.45,5.56-3.35,11.39-6.32,16.75-11.78-2.48.24-3.85.38-5.22.51-4.35.76-8.71,1.51-13.06,2.27-.37.12-.75.23-1.12.35-.47.04-.94.09-1.41.13-8.86,1.88-17.72,3.76-26.58,5.65-.26-.44-.84-1.15-.73-1.28.72-.87,1.63-1.57,2.39-2.4,7.71-8.4,12.7-18.45,17.46-28.64Z"/><path class="cls-19" d="m22.5,191.87c1.3-20.42,7.27-39.49,17.12-57.31,2.47-4.47,6.2-8.25,9.32-12.36,1.96-2.58,3.88-5.19,5.81-7.79.42.6.84,1.2,1.26,1.79,2.57,6.87,5.14,13.75,7.71,20.62,4.32,8.7,8.64,17.41,12.97,26.11.54,1.49,1.08,2.98,1.62,4.47-2.5-.56-5.01-1.13-7.52-1.69-.23-.06-.45-.12-.67-.18.15.14.3.27.44.41,1.09,1.2,2.26,2.34,3.27,3.62,4.24,5.37,8.44,10.78,12.65,16.17.04.71.07,1.42.11,2.13-.17.31-.35.61-.52.92-.81.65-1.61,1.31-2.42,1.96-7.07.98-13.68-1.21-20.4-2.87-6.17-1.52-12.49-3.98-18.34,1.01-.34.48-.68.95-1.02,1.43l-2.28,6.14c-.1.73-.2,1.47-.3,2.2-.1,2.53-.19,5.05-.29,7.58-1.12.48-2.25.97-3.8,1.63-.36-1.47-.57-2.78-1-4.01-.87-2.52-1.16-5.95-2.96-7.28-3.07-2.27-7.13-3.21-10.77-4.71Z"/><path class="cls-21" d="m248.77,321.93c-.04,2.74-.49,5.47,2.91,7.07.7.33.14,3.32.16,5.09-8.32-1.45-16.59-3.48-24.98-4.18-6.87-.58-13.95-.13-20.8.84-12.23,1.73-24.29,5.08-36.56,6.07-10.52.85-21.28-.12-31.83-1.23-14.97-1.57-29-6.62-42.3-13.64-.88-.47-1.69-1.08-2.53-1.62-.83-1.21-1.52-2.56-2.52-3.61-2.34-2.46-3.42-5.31-2.74-8.6.22-1.06,1.17-2.33,2.11-2.76.6-.27,1.81.86,2.76,1.32,1.56.75,3.08,1.84,4.72,2.09,2.35.35,4.79.08,7.19.07.25.02.49.06.73.12.48.04.95.08,1.43.12,2.68.44,5.36.89,8.04,1.34,1.17,2.02,2.35,4.03,3.87,6.63.24-2.28.38-3.64.52-5,9.64.68,19.27,1.37,28.91,2.05,1.05,1.81,2.11,3.61,3.16,5.42.73,1.54,1.46,3.08,2.2,4.62-.57.76-1.14,1.52-2.12,2.83h11.38c.07-.29.14-.58.2-.87-1.92-.76-3.84-1.52-5.75-2.28-.71-3.03-1.43-6.06-2.14-9.05,2.39-.59,3.8-.93,5.21-1.28,2.88-.27,5.78-.38,8.63-.85,5.54-.91,11.04-2.02,16.56-3.04,1.25,3.29,2.7,6.53,3.66,9.9.6,2.11,1.74,2.38,3.56,2.37,8.86-.07,17.71-.05,26.57-.07,5.86,0,11.72,0,17.59-.01,4.07.04,8.14.09,12.21.13Z"/><path class="cls-22" d="m104.35,308.84c-2.4,0-4.84.28-7.19-.07-1.64-.25-3.16-1.34-4.72-2.09-.96-.46-2.17-1.59-2.76-1.32-.95.43-1.9,1.69-2.11,2.76-.68,3.29.4,6.14,2.74,8.6,1,1.05,1.69,2.4,2.52,3.61-5.56-3.44-11.32-6.6-16.65-10.38-8.51-6.04-15.81-13.45-22.43-21.51-.37-.46-.47-1.14-.69-1.72-.84-2.21-1.35-4.63-2.63-6.54-.85-1.27-2.8-1.79-4.25-2.65-1.27-1.79-2.54-3.57-3.81-5.36,2.16-3.4,4.32-6.8,6.73-10.6,4.77-.27,10.16-.7,15.56-.84,6.34-.16,6.79-.43,6.73-6.6-.02-2.69-.2-5.07,3.71-5.13,1.09-.02,2.15-1.89,3.22-2.91.74.07,1.47.13,2.21.19,5.18,2.57,10.32,5.19,15.53,7.69,8.55,4.11,17.13,8.14,25.7,12.2.25.25.5.51.76.76.27.47.55.95.82,1.42-2.49,1.54-4.81,3.65-7.52,4.49-6.17,1.92-12.59,3.04-18.8,4.82-10.08,2.89-13.92,9.84-9.6,17.91,1.6,2.99,4.42,5.53,7.18,7.65,2.95,2.27,6.48,3.79,9.76,5.64Z"/><path class="cls-22" d="m424.59,191.87c-.7-.46-1.94-.84-2.01-1.38-.46-3.63-2.95-3.92-5.81-4.02-1.2-.05-2.38-.87-3.57-.88-3.05,0-6.13.03-9.14.46-2.68.38-5.25,1.7-7.93,1.9-4.42.33-8.89.22-13.33.05-3.67-.14-5.04,1.46-4.89,5.01.08,1.86-.26,3.76-.63,5.61-.16.79-.67,1.9-1.31,2.15-6.35,2.52-11.11,9.35-19.22,7.19-.67-.18-1.57.01-2.21.34-8.98,4.52-13.7,3.97-20.96-2.5-.16-.15-.48-.12-.73-.17,0,0,0,0,0,0-.02-1.33-.04-2.66-.06-3.98.07-.47.15-.94.22-1.4.2-.26.39-.53.59-.79.23-.3.47-.6.7-.91.7,1.13,1.4,2.25,2.1,3.38.52-.06,1.04-.12,1.56-.18.6-2.49,1.2-4.98,1.8-7.47,2.28-1.32,4.55-2.64,6.83-3.96,1.02-.5,2.05-1,3.07-1.5,7.14-3.3,14.28-6.6,21.42-9.9.25-.04.49-.12.71-.24.54-.05,1.09-.09,1.63-.14l.31-.04s0-.3,0-.3c.13-.31.26-.61.39-.92,8.37-4.03,12.55-10.58,8-19.96-1.55-3.2-.79-7.51-1.09-11.32,3.26-5.67,6.53-11.33,9.79-17,.56,1.34.81,2.98,1.74,3.97,6.83,7.32,12.89,15.11,18.11,23.75,6.26,10.36,10.21,21.5,13.77,32.89.22.7.1,1.51.13,2.27Z"/><path class="cls-4" d="m78.32,246.07c-1.07,1.02-2.13,2.89-3.22,2.91-3.91.06-3.73,2.45-3.71,5.13.05,6.18-.4,6.45-6.73,6.6-5.4.13-10.79.57-15.56.84-2.41,3.8-4.57,7.2-6.73,10.6-3.05-5.7-6.5-11.22-9.06-17.13-5.22-12.04-8.99-24.58-9.98-37.73-.63-8.45-.57-16.94-.83-25.42,3.64,1.5,7.69,2.44,10.77,4.71,1.8,1.33,2.09,4.76,2.96,7.28.43,1.23.64,2.54,1,4.01,1.55-.67,2.68-1.15,3.8-1.63,0,0-.13.08-.13.08.17.26.35.52.52.78,1.85,4.34,3.7,8.69,5.55,13.03,2.8,5.88,7.87,9.57,12.91,13.27,6.15,4.22,12.3,8.45,18.45,12.67Z"/><path class="cls-26" d="m248.74,98.79c8.86-1.88,17.72-3.76,26.58-5.65.47-.04.94-.09,1.41-.13.37-.12.75-.23,1.12-.35-.41.45-.73,1.13-1.23,1.3-4.08,1.41-8.22,2.66-12.3,4.09-9.48,3.31-18.94,6.67-28.39,10.05-.91.33-1.75.88-2.62,1.34,20.71-2.9,39.95-10.39,59.4-17.99-.77-.45-1.29-.76-1.81-1.06,1.37-.13,2.74-.27,5.22-.51-5.36,5.45-11.19,8.43-16.75,11.78-2.9.16-5.99-.27-8.66.59-7.4,2.39-14.53,5.63-21.95,7.96-6.29,1.97-12.51,5.23-19.54,3.02-.74-.23-1.75.4-3.21.79,10.19,1.97,19.54,3.86,28.92,5.56,5.03.91,10.11,1.48,15.17,2.21.64.28,1.28.55,2.95,1.27-7.85,0-14.56,0-21.27,0-.45-.71-.78-1.92-1.36-2.06-4.49-1.04-9.02-1.94-13.57-2.71-.56-.09-1.29.81-1.94,1.26-2.15-.91-4.31-1.82-6.69-2.82-.31,1.71-.59,3.25-.87,4.79,0-1.44,0-2.88,0-4.33l-1.68-.37c-.46,1.36-1.29,2.71-1.31,4.08-.12,9.16-.06,18.32-.06,27.47,0,9.9,0,19.81,0,29.71l-.51.03c-.12-1.09-.24-2.17-.36-3.26,0-14.92.02-29.84.03-44.76.03-3.91.12-7.83.02-11.74-.01-.48-1-.93-1.54-1.4-1.77.75-3.54,1.51-5.31,2.26-2.11-.24-4.31-.96-6.32-.61-5.26.92-10.44,2.31-14.97,3.35.64.38,1.79,1.06,2.94,1.74-6.56-.11-13.12-.21-19.67-.32.01-.32.03-.65.04-.97.37-.07.73-.15,1.1-.22,1.01,0,2.06.16,3.04-.03,12.12-2.38,24.24-4.8,36.35-7.22,1.53-.31,3.05-.71,4.57-1.07-1.62-.63-3.06-.33-4.52-.2-2.06.18-4.27.75-6.18.24-4.79-1.27-9.45-3.06-14.17-4.61-4.54-1.49-9.2-2.67-13.6-4.48-4.48-1.84-8.81-3.85-13.82-3.12-5.31-3.29-10.62-6.59-16.84-10.45,1.67-.56,2.44-.81,3.21-1.07,1.47,1.03,2.82,2.38,4.44,3.03,16.6,6.64,33.48,12.44,50.98,16.28,1.93.42,3.88.77,5.82,1.16.08-.38.17-.76.25-1.14-5.22-1.68-10.62-2.94-15.6-5.14-7.46-3.28-15.13-5.64-23.01-7.6-2.79-.69-5.25-2.7-7.87-4.1,10.04,2.27,20.09,4.53,30.13,6.8,2.1.91,4.2,1.82,6.85,2.98-2.83-4.93-5.18-9.33-7.82-13.54-5.96-9.51-11.98-18.98-18.18-28.34-.97-1.46-2.97-2.24-4.5-3.33,0,0-.02-.1-.02-.1-.1-.41-.21-.83-.31-1.24-2.35-6.46-4.72-12.92-6.98-19.41-.22-.65.3-1.55.49-2.33,0-.03.24-.04.33,0,.1.05.17.18.25.28,2.81,5.19,5.26,10.62,8.49,15.52,10.39,15.74,21.01,31.33,31.69,46.88,2.63,3.84,5.83,7.28,8.78,10.91h0c1.62,3.42,3.06,3.96,5.57,1.54,1.89-1.82,3.32-4.14,4.9-6.28,6.37-8.67,12.85-17.28,19.04-26.08,5.25-7.46,10.38-15.03,15.18-22.79,3.99-6.43,7.42-13.21,11.11-19.83.02-.2.13-.34.32-.42.22.21.43.42.65.63-2.69,8.07-5.38,16.14-8.08,24.21-.88.34-2.08.42-2.59,1.05-5.37,6.75-7.26,15.96-14.94,21.09-.1.07-.16.2-.23.3-2.8,4.78-5.69,9.51-8.34,14.38-.8,1.48-.91,3.34-1.34,5.02,1.82-.6,3.65-1.19,5.47-1.79Z"/><path class="cls-14" d="m187.01,48.08c3.73-8.98,10.32-15.22,18.77-19.7,2.56-1.36,5.12-2.74,7.57-4.29,4.31-2.74,4.27-2.8,6.63,1.22-.6,3.52-1.19,7.05-1.79,10.57-.09.22-.18.45-.27.67-2.29,14.22-4.54,28.44-2.77,42.93.09.74-.51,1.56-.78,2.35-4.84-6.28-9.68-12.56-14.52-18.84-.1-.24-.28-.38-.54-.42-1.33-1.53-2.66-3.06-3.99-4.59,0,0,.03.04.03.04-.25-.3-.49-.6-.74-.91,0,0,.06.07.06.07-.29-.3-.58-.61-.87-.91-1.56-1.72-3.11-3.44-4.67-5.16h-.3c-.38-.29-.76-.57-1.14-.85l.22-.12c.06-.23-.02-.4-.21-.53-.23-.51-.46-1.03-.7-1.54Z"/><path class="cls-16" d="m367.94,96.04c4.98-4.2,9.63-8.92,15.06-12.43,4.82-3.11,10.44-2.95,15.39.68,5.98,4.39,6.5,10.62,5.12,17.13-1.92,9.11-6.72,16.97-11.57,24.76-4.03-.15-2.38-3.25-2.43-5.13-.19-6.41-.12-6.9-6.17-7.69-4.31-.57-5.72-2.5-5.39-6.5.26-3.03-1.17-4.79-4.04-6.09-2.24-1.01-4-3.11-5.97-4.73Z"/><path class="cls-6" d="m367.94,96.04c1.97,1.62,3.72,3.72,5.97,4.73,2.87,1.3,4.29,3.05,4.04,6.09-.34,4,1.08,5.93,5.39,6.5,6.05.79,5.98,1.28,6.17,7.69.05,1.88-1.59,4.98,2.43,5.13-.37.94-.74,1.88-1.12,2.81-3.26,5.67-6.53,11.33-9.79,17-1.19-.84-2.66-1.47-3.51-2.58-1.52-1.99-2.53-4.38-4.01-6.4-1-1.36-2.69-2.21-3.68-3.57-4.9-6.73-7.63-15.1-15.08-19.92-.34-.22-.37-.9-.55-1.36,1.38-1.41,2.77-2.82,4.16-4.23,3.2-3.96,6.39-7.93,9.59-11.89Z"/><path class="cls-16" d="m56.01,116.2c-.42-.6-.84-1.19-1.26-1.79-2.42-8.38-2.77-16.86.74-24.9,6.13-14.03,22.18-17.18,33.39-6.89.28.25.62.43.94.65,1.52,2.52,3.04,5.04,4.56,7.55-.88,2.89-3.05,2.49-5.26,2.09-4.47-.81-8.61-1.05-12.33,2.72-3.35,3.39-7.25,6.31-11.2,9.01-3.05,2.09-5.42,4.16-5.9,8.17-.15,1.26-2.4,2.27-3.69,3.39Z"/><path class="cls-20" d="m277.81,34.32c-3.68,6.62-7.12,13.4-11.11,19.83-4.81,7.75-9.93,15.32-15.18,22.79-6.2,8.8-12.67,17.41-19.04,26.08-1.57,2.14-3,4.46-4.9,6.28-2.51,2.42-3.95,1.88-5.57-1.54.92.3,1.84.61,3.07,1.02v-4.31c0-30.52-.02-61.03.04-91.55,0-1.85.57-3.7.87-5.54.79,2.37,1.59,4.73,2.38,7.1.79,4.27,1.58,8.54,2.38,12.82-.36,1.14-.98,2.26-1.04,3.41-.15,2.87-.05,5.75-.05,8.63,0,19.07,0,38.13,0,57.2,0,1.32,0,2.64,0,4.72,1.36-.97,2.11-1.26,2.47-1.81,2.95-4.41,5.9-8.82,8.7-13.32,1.3-2.1,4.53-3.28,3.35-6.64,1.57-2.08,3.34-4.04,4.66-6.27,3.12-5.28,8.32-9.64,7.56-16.68,0,0-.01.01-.01.01.26-.21.53-.41.79-.62,6.88-7.19,13.75-14.39,20.63-21.58Z"/><path class="cls-26" d="m225.99,7.37c-.3,1.85-.86,3.7-.87,5.54-.05,30.52-.04,61.03-.04,91.55v4.31c-1.23-.41-2.15-.71-3.07-1.02,0,0,0,0,0,0-.51-2.04-1.02-4.08-1.54-6.12.26-2.13.73-4.26.73-6.39.06-20,.05-40,0-60.01,0-1.32-.49-2.63-.75-3.95,0-2.04.01-4.08.02-6.12,1.33-6.66,2.66-13.31,3.99-19.97.38.05.76.09,1.14.14.13.67.25,1.35.38,2.02Z"/><path class="cls-20" d="m220.48,101.64c.51,2.04,1.02,4.08,1.54,6.12-2.94-3.63-6.14-7.07-8.78-10.91-10.68-15.55-21.3-31.14-31.69-46.88-3.24-4.91-5.68-10.33-8.49-15.52,3.9,3.9,7.8,7.8,11.72,11.68.7.69,1.49,1.3,2.23,1.95.23.51.46,1.03.7,1.54-.13.15-.27.31-.4.46l.61.07s-.22.12-.22.12c.38.28.76.56,1.14.84,0,0,.3.01.3.01,1.2,3.11,2.11,6.38,3.67,9.3,3.13,5.84,6.36,11.65,10.04,17.14,2.66,3.97,6.12,7.41,9.22,11.08h0c.89,1.56,1.7,3.18,2.69,4.68,1.85,2.81,3.81,5.55,5.72,8.32Z"/><path class="cls-20" d="m179.3,57.25c1.53,1.09,3.53,1.87,4.5,3.33,6.2,9.36,12.22,18.83,18.18,28.34,2.64,4.22,4.99,8.62,7.82,13.54-2.65-1.15-4.75-2.06-6.85-2.98.19-.34.6-.92.53-.99-10.59-10.23-16.86-23.1-22.42-36.42-.18-.44-.66-.75-1-1.12-.25-1.24-.51-2.47-.76-3.71Z"/><path class="cls-4" d="m46.18,277.52c1.46.86,3.4,1.38,4.25,2.65,1.28,1.91,1.79,4.33,2.63,6.54-2.29-3.06-4.59-6.13-6.88-9.19Z"/><path class="cls-20" d="m220.48,25.17c0,2.04-.01,4.08-.02,6.12-.76,1.53-1.52,3.06-2.27,4.58.6-3.52,1.19-7.05,1.79-10.57.17-.04.34-.08.51-.14Z"/><path class="cls-21" d="m253.32,334.12c1.03.5,2.07,1,3.1,1.5-1.03-.5-2.07-1-3.1-1.5Z"/><path class="cls-21" d="m262.48,337.18c.78.49,1.57.97,2.35,1.46-.78-.49-1.57-.97-2.35-1.46Z"/><path class="cls-21" d="m257.9,335.65c.53.48,1.06.96,1.59,1.43-.53-.48-1.06-.96-1.59-1.43Z"/><path class="cls-20" d="m178.97,55.91c.1.41.21.83.31,1.24-.1-.41-.21-.83-.31-1.24Z"/><path class="cls-23" d="m248.77,321.93c-4.07-.04-8.14-.09-12.21-.13.25-5.81.72-11.62.7-17.43-.03-7.46-.59-14.92-.68-22.39-.12-11.18-.03-22.36-.03-33.54,3.32-.05,6.64-.09,9.96-.14,4.31.03,8.63.06,12.94.09,1.54,0,3.09,0,4.63.01.75,0,1.5,0,2.25,0,.28,0,.55-.01.83-.02,2.72,4.5,5.44,8.99,8.66,14.32-7.42-1.42-13.98-2.67-20.53-3.92-.18.56-.36,1.12-.54,1.67,5.74,3.08,11.5,6.15,17.22,9.28.79.43,1.38,1.24,2.07,1.87-.62.55-1.15,1.26-1.86,1.64-3.27,1.76-6.59,3.43-9.89,5.13l.19.84c2.58-.13,5.15-.26,7.73-.39.72.86,2.1,1.77,2.03,2.56-.22,2.62-.91,5.2-1.51,7.78-1.17,5.02-2.4,10.03-3.6,15.05-1.51,4.65-3.13,9.27-4.47,13.96-.74,2.58-2.08,3.8-4.81,3.7-3.02-.11-6.06.02-9.08.04Z"/><path class="cls-27" d="m326.05,301.07c2.36,3.76,4.72,7.52,7.31,11.64-1.79,1.42-3.63,2.87-6.08,4.81-4.27-5.81-8.34-11.35-12.19-16.58-.98,3.98-2.36,8.94-3.38,13.98-.44,2.17-1.46,2.73-3.38,2.42-1.38-.27-2.75-.54-4.13-.81.73-6.89,1.45-13.78,2.18-20.67.68-5.55,1.3-11.11,2.09-16.65.2-1.38.95-2.68,1.45-4.02,3.05-.03,6.11-.05,9.16-.08.74.07,1.48.15,2.22.22,1.29.28,2.58.55,3.87.83.02.23-.05.43-.22.59-.7.06-1.4.11-1.78.14.2,1.6.49,2.9.51,4.21.06,4.45-.22,8.92.14,13.34.18,2.26,1.45,4.43,2.23,6.64Z"/><path class="cls-24" d="m267.13,304.23c1.2-5.02,2.43-10.03,3.6-15.05.6-2.58,1.29-5.16,1.51-7.78.07-.79-1.32-1.71-2.04-2.56,2.79-.7,5.59-1.39,8.38-2.09h0c-.77,2.04-1.53,4.08-2.3,6.12-.06.11-.11.22-.17.33.06-.11.12-.21.18-.32,3.05-2.56,6.11-5.11,9.16-7.67.32,9.16,2.95,17.25,10.7,22.94-4.66,10.27-8.02,13.12-21.59,9.01-2.54-.77-4.97-1.94-7.44-2.93Z"/><path class="cls-6" d="m350.38,245.26c6.28-5.3,9.53-5.17,13.99,1.24,3.14,4.51,6.96,4.27,11.31,2.72.49,1.39,1.44,2.8,1.38,4.16-.29,5.92,3.82,9.19,7.33,12.85-3.14,1.59-6.29,3.17-9.43,4.76-3.6,1.83-6.7,4.01-7.25,8.53-.12.97-1.09,1.84-1.67,2.75-.35-.63-1.02-1.28-1-1.89.13-3.6-.68-6.82-2.14-10.2-1.5-3.47-2.2-7.2-5.37-9.77-.81-.66-1.36-1.88-1.62-2.94-1.07-4.44-2.53-8.66-5.54-12.2Z"/><path class="cls-9" d="m350.38,245.26c3.01,3.54,4.48,7.76,5.54,12.2.26,1.06.81,2.28,1.62,2.94,3.17,2.58,3.86,6.3,5.37,9.77,1.46,3.38,2.27,6.6,2.14,10.2-.02.62.65,1.26,1,1.89-2.47,3.3-5.8,2.96-9.24,2.21-1.6-.35-3.22-.61-4.83-.91,1.38-3.89-.81-6.61-2.95-9.43-4.18-5.51-8.26-11.1-12.39-16.66,4.58-4.07,9.16-8.15,13.75-12.22Z"/><path class="cls-18" d="m336.63,257.48c4.12,5.56,8.2,11.15,12.39,16.66,2.14,2.82,4.33,5.54,2.95,9.43-3.93-.63-7.86-1.3-11.79-1.89-5.73-.86-8.11.73-8.68,6.51-.43,4.35-2.24,7.39-6.14,9.24-.13-2.06-.26-4.11-.38-6.17.11-1.81.23-3.61.34-5.42,1.1,1.39,2.2,2.78,3.29,4.17.43-.27.86-.54,1.29-.81-.57-4.15-1.15-8.3-1.72-12.44.4-.48,1.19-1.01,1.13-1.42-.72-5.19-1.56-10.37-2.37-15.54,3.65.99,6.74-.39,9.69-2.31Z"/><path class="cls-8" d="m296.16,298.14c-7.75-5.69-10.38-13.78-10.7-22.94,2.05.26,4.1.52,6.15.78,1.79,3.46,3.71,3.51,6.18.51,1.17-1.43,2.9-2.4,4.38-3.58.74.95,1.47,1.9,2.18,2.82.95-.56,1.67-.99,2.4-1.42,1.05.29,2.11.58,3.16.86-.5,1.34-1.26,2.64-1.45,4.02-.79,5.54-1.41,11.1-2.09,16.65-2.57-2.77-5.19-1.39-7.71.02-.96.54-1.67,1.51-2.49,2.28Z"/><path class="cls-16" d="m384.38,266.23c-3.51-3.67-7.61-6.93-7.33-12.85.07-1.36-.89-2.77-1.38-4.16,4.79-2.54,9.96-2.68,15.17-2.29,3.71.28,5.43,2.87,6.46,6.1-.47,5.99-5.42,11.05-12.91,13.2Z"/><path class="cls-16" d="m304.19,316.51c1.38.27,2.75.54,4.13.81-.36,2.94-.53,5.92-1.18,8.79-.22.97-1.56,2.25-2.53,2.38-2.49.34-5.05.11-7.59.11-.35-.39-.7-.79-1.05-1.18,1.06-.57,2.08-1.26,3.2-1.7,5.05-1.95,6.1-3.83,5.02-9.22Z"/><path class="cls-15" d="m338.54,320.31c-3.27,2.95-5.75,5.19-8.23,7.43.5-3.81,1.65-7.1,5.38-8.49.59-.22,1.54.54,2.86,1.06Z"/><path class="cls-15" d="m324.98,291.26c.13,2.06.26,4.11.38,6.17.23,1.21.46,2.42.69,3.64-.78-2.21-2.05-4.38-2.23-6.64-.36-4.42-.08-8.89-.14-13.34-.02-1.31-.31-2.61-.51-4.21.38-.03,1.08-.09,1.78-.14.03.27.06.54.08.8-.02,4.57-.04,9.15-.05,13.72Z"/><path class="cls-9" d="m76.69,162.94c-4.32-8.7-8.64-17.41-12.97-26.11.77-1.44,2.05-2.83,2.2-4.33.3-3.04,1.68-4.22,4.59-5.07,5.08-1.49,10.19-3.23,13.9-7.46,1.07-1.21,2.24-2.8,3.64-3.17,4.87-1.28,9.87-2.1,15.25-3.18.04-.3.18-1.28.31-2.25.64,1.2,1.46,2.34,1.9,3.6,3.97,11.35,7.88,22.71,11.8,34.08-1.48-.83-3.14-1.44-4.4-2.52-4.44-3.83-9.92-4.3-14.48-1.18-4.27,2.92-8.68,5.64-12.94,8.57-.81.56-1.77,1.69-1.75,2.54.07,3.2-.91,5.08-4.43,5.18-.89.03-1.76.85-2.63,1.3Z"/><path class="cls-26" d="m132.65,147.5c-2.67-3.01-5.35-6-7.98-9.04-.9-1.04-1.66-2.21-2.48-3.33.41-.15.83-.31,1.24-.46.53.18,1.06.36,1.58.54,0,0-.02-.03-.02-.03.61.86,1.05,1.97,1.87,2.55,12.61,8.93,25.28,17.78,37.92,26.66,6.08,4.27,12.14,8.57,18.66,13.18-.19-2.14-.3-3.48-.42-4.83-1.01-3.06-2.03-6.11-3.04-9.17-4.97-13-9.97-25.99-14.88-39.01-1.01-2.67-1.67-5.47-2.49-8.21,2.22,2.73,4.45,5.46,6.67,8.19,5.13,13.97,10.25,27.94,15.38,41.92.45-.12.9-.24,1.35-.36-.07-1.43-.1-2.87-.23-4.3-.09-.94-.33-1.86-.51-2.79.57-.34,1.43-.55,1.66-1.05,2.82-6.29,5.55-12.63,8.31-18.95-.12,1.25.18,2.77-.43,3.71-4.59,7.13-4.81,15.6-7.34,23.34-.57,1.75-.91,3.57-1.36,5.36.3.15.6.29.9.44.7-1.08,1.67-2.06,2.07-3.24,2.53-7.57,4.99-15.17,7.36-22.79.97-3.12,1.81-6.3,2.46-9.5.33-1.61.09-3.33.11-5.01.77-1.22,1.54-2.45,2.31-3.67-.42,6.91-.84,13.81-1.26,20.72-.83.64-2.1,1.11-2.42,1.94-1.13,2.92-1.88,5.99-2.88,8.97-.97,2.9-2.19,5.72-3.08,8.64-.55,1.8-.68,3.72-1,5.59-.39.31-.78.61-1.17.92.08.08.16.16.25.25l.92-1.17c1.12-.74,2.37-1.34,3.33-2.26,3.1-2.96,5.99-6.13,9.17-9,1.21-1.09,2.97-1.58,4.48-2.35-4.92,7.72-10.58,14.69-19.38,18.78,4.42,3.46,8.47,6.63,12.52,9.81-.34.69-.68,1.37-1.02,2.06-4.38-2.91-8.77-5.83-13.42-8.92-.56,2.52-.69,4.74-1.54,6.63-2.54,5.59-5.36,11.05-8.07,16.57-1.54,1.9-3.09,3.8-4.63,5.7-.16-.09-.33-.17-.49-.26.24-.78.47-1.57.71-2.35,3.4-7.17,6.81-14.35,10.21-21.52-.38-.2-.75-.4-1.13-.6-2.96,2.26-6.15,4.26-8.79,6.85-1.94,1.91-3.9,2.58-6.41,2.29,3.34-2.99,6.69-5.98,10.03-8.97-.27-.34-.54-.68-.8-1.03-2.53,1.54-5.24,2.85-7.56,4.67-4.6,3.6-8.97,7.51-13.52,11.19-.3.25-1.26-.32-1.92-.51,5.09-4.6,10.18-9.19,15.27-13.79,1.08-.86,2.15-1.73,3.23-2.59-.13-.32-.26-.63-.39-.95-1.2-.08-2.39-.23-3.59-.24-4.32-.03-8.65.17-12.96-.07-3.31-.19-6.59-1.32-9.89-1.31-3.6.02-7.19.88-10.79,1.37-.51-.03-1.01-.05-1.52-.08-.27-.22-.54-.45-.81-.67-1-.02-2.01-.04-3.01-.06-4.01-1.34-8.03-2.68-12.04-4.02.1-.4.2-.8.3-1.19,1.11,0,2.21,0,3.32,0,.76.48,1.5,1.34,2.28,1.38,12.78.59,25.56,1.26,38.35,1.51,6.62.13,13.25-.49,20.1-.79-4.35-2.68-8.43-5.01-12.31-7.62-5.87-3.94-11.62-8.07-17.41-12.13-3.95-2.77-7.35-6.52-12.6-6.94l-.04-.02c-.24-.24-.49-.48-.73-.72l-.04-.04-.72-.73-.05-.05c-.24-.24-.48-.48-.72-.72l-.04-.04-.73-.72c-.75-.51-1.51-1.03-2.26-1.54Zm51.43,34.21c-.04.11-.1.22-.1.32,0,.04.17.07.27.1.04-.11.1-.22.1-.32,0-.04-.17-.07-.26-.1Zm-.92,1.94c-.11.03-.24.04-.32.11-.03.03.04.18.07.28.11-.03.24-.04.32-.11.03-.03-.04-.18-.07-.28Z"/><path class="cls-18" d="m76.69,162.94c.88-.46,1.74-1.28,2.63-1.3,3.52-.1,4.5-1.99,4.43-5.18-.02-.85.93-1.98,1.75-2.54,4.26-2.93,8.67-5.66,12.94-8.57,4.56-3.12,10.04-2.65,14.48,1.18,1.26,1.08,2.92,1.69,4.4,2.52,1.98,2.92,3.24,6.63,7.62,6.92-.15.73-.24,1.48-.45,2.19-1.37,4.74-2.76,9.47-4.16,14.21-.21.7-.53,2-.73,1.98-4.11-.26-5.67,3.11-8.05,5.37-.62.59-1.91.7-2.87.64-2.91-.21-3.92,1.17-3.62,3.87-1.02-.51-2.04-1.02-3.06-1.52-.62-.38-1.24-.76-1.85-1.15-7.04-4.46-14.07-8.92-21.11-13.39l-.75-.79s.03.03.03.03c-.54-1.49-1.08-2.98-1.62-4.47Z"/><path class="cls-6" d="m103.61,111.37c-.14.98-.27,1.96-.31,2.25-5.39,1.08-10.38,1.9-15.25,3.18-1.4.37-2.57,1.95-3.64,3.17-3.71,4.23-8.82,5.97-13.9,7.46-2.91.86-4.29,2.03-4.59,5.07-.15,1.5-1.43,2.89-2.2,4.33-2.57-6.87-5.14-13.75-7.71-20.62,1.29-1.12,3.54-2.13,3.69-3.39.49-4.01,2.85-6.08,5.9-8.17,3.95-2.71,7.85-5.62,11.2-9.01,3.72-3.77,7.85-3.53,12.33-2.72,2.21.4,4.38.8,5.26-2.09,3.07,6.85,6.15,13.7,9.22,20.55Z"/><path class="cls-19" d="m195.23,139.02c-2.75,6.32-5.48,12.66-8.31,18.95-.22.5-1.09.71-1.66,1.05-2.82-12.24-7.21-23.81-14.59-34.1.87-.38,1.87-.59,2.56-1.18.83-.7,1.87-1.66,2-2.62.72-5.28,1.19-10.59,1.74-15.9,7.03,2.65,14.08,5.28,21.09,7.98.37.14.51.85.76,1.29-2.76,1.04-5.51,2.07-8.27,3.11,0,0,.03-.09.03-.09-.47.11-.94.23-1.4.34-3.15,1.44-6.29,2.89-9.44,4.33-.37.07-.73.15-1.1.22-.01.32-.03.65-.04.97,6.56.11,13.12.21,19.67.32,6.36-.51,12.62-1.39,18.35-4.47,1.77-.75,3.54-1.51,5.31-2.26.33,4.24.65,8.47.98,12.71l-.6,2.93c-.27-.04-.54-.07-.81-.11-.19-2.23-.38-4.46-.57-6.69-.29.01-.58.03-.87.04-.36,5.89-.73,11.78-1.05,16.95-3.95,0-7.01.08-10.06-.06-.71-.03-1.38-.8-2.07-1.23.5-.59.9-1.54,1.51-1.7,1.57-.42,3.23-.64,4.85-.66,2.11-.02,3.42-.57,3.41-3,0-2.21-.26-4.54-2.87-4.54-3.95,0-7.53-.35-10.31-3.57-.37-.43-1.44-.27-2.19-.38-.77,1.22-1.54,2.45-2.31,3.67-1.26,2.56-2.51,5.12-3.77,7.68Z"/><path class="cls-25" d="m105.05,184.22c-.29-2.69.72-4.08,3.62-3.87.96.07,2.25-.05,2.87-.64,2.38-2.26,3.94-5.63,8.05-5.37.2.01.52-1.28.73-1.98,1.4-4.73,2.79-9.47,4.16-14.21.21-.71.3-1.46.45-2.19,2.57-2.82,5.15-5.64,7.72-8.47.75.51,1.51,1.03,2.26,1.54.24.24.49.48.73.72,0,0,.04.04.04.04.24.24.48.48.72.72,0,0,.05.05.05.05.24.24.48.49.72.73,0,0,.04.04.04.04.24.24.49.48.73.72,0,0,.04.02.04.02,1.52,1.54,3.04,3.07,4.56,4.61.75.51,1.5,1.03,2.26,1.54h0c.51.51,1.02,1.01,1.54,1.51h0c.5.29,1,.56,1.49.84.77.74,1.54,1.48,2.32,2.22,1.28,1.02,2.55,2.03,3.83,3.05,0,0,0,0,0,0,.5.28,1,.55,1.5.83.25.24.5.48.74.72.78.5,1.56,1,2.35,1.5,1.4,1.33,5.07-.06,4.42,3.71-1.73-.21-3.48-.69-5.19-.57-5.36.36-10.71.95-16.07,1.45-7.39,1.05-14.78,2.1-22.17,3.16h-3.32c-.1.4-.2.8-.3,1.19,4.01,1.34,8.03,2.68,12.04,4.02,1.01.28,2.02.56,3.03.83-1.54,2.21-3.16,4.36-4.6,6.63-.9,1.42-2.24,3.08-2.11,4.51.26,2.95,1.38,5.82,2.14,8.72-.51,0-1.02,0-1.53,0-1.14-.9-2.31-1.77-3.41-2.72-2.45-2.13-4.86-4.31-7.28-6.47-1.15-1.41-2.19-2.93-3.48-4.19-1.8-1.76-3.79-3.32-5.7-4.97Zm31.76-25.87c.4-.35.81-.7,1.21-1.05-.79-1.13-1.59-2.26-2.38-3.4-.48.5-1.43,1.32-1.36,1.44.74,1.07,1.66,2.03,2.52,3.02Z"/><path class="cls-18" d="m137.79,139.73c3.42-4.95,6.32-10.43,10.47-14.67,2.57-2.63,7.06-3.37,10.65-5.03.76-.35,1.37-1.02,2.05-1.55.7,2.8,1.41,5.61,2.11,8.41.02.25.04.51.06.76.02.5.04,1.01.05,1.51.01.77.02,1.53.04,2.3,2.28,8.91,4.56,17.82,6.85,26.73l-.06.06c-5.29-3.38-10.42-7.07-15.92-10.06-4.91-2.67-10.24-4.57-15.39-6.81l-.9-1.66Z"/><path class="cls-20" d="m179.76,122.19c3.15-1.44,6.29-2.89,9.44-4.33.47-.11.94-.23,1.4-.34,0,0-.03.09-.03.09,4.75-.91,9.5-1.82,14.25-2.73-.06-.34-.12-.68-.18-1.02-1.94.21-3.87.43-5.81.64-.25-.44-.39-1.15-.76-1.29-7.01-2.7-14.06-5.33-21.09-7.98-1.85-1.17-3.71-2.34-5.56-3.52,5.01-.73,9.34,1.28,13.82,3.12,4.4,1.81,9.06,2.99,13.6,4.48,4.72,1.55,9.37,3.34,14.17,4.61,1.91.5,4.12-.06,6.18-.24,1.46-.13,2.9-.44,4.52.2-1.52.36-3.03.76-4.57,1.07-12.11,2.43-24.23,4.85-36.35,7.22-.98.19-2.02.03-3.04.03Z"/><path class="cls-20" d="m137.79,139.73c.3.55.6,1.11.9,1.66.6.92.99,2.13,1.82,2.7,9.55,6.55,19.16,13,28.76,19.48,1.53,1.02,3.06,2.04,4.58,3.05.76.51,1.53,1.02,2.29,1.54,1.36,2.93,3.53,4.63,6.88,4.59.12,1.35.24,2.69.42,4.83-6.52-4.61-12.58-8.91-18.66-13.18-12.64-8.88-25.31-17.73-37.92-26.66-.82-.58-1.26-1.69-1.87-2.55,3.3,1.45,6.58,2.96,9.93,4.31.85.34,1.91.17,2.87.24Z"/><path class="cls-20" d="m172.81,92.69c2.61,1.41,5.08,3.41,7.87,4.1,7.88,1.95,15.55,4.31,23.01,7.6,4.99,2.2,10.39,3.46,15.6,5.14-.08.38-.17.76-.25,1.14-1.94-.38-3.89-.73-5.82-1.16-17.5-3.84-34.38-9.64-50.98-16.28-1.62-.65-2.97-2.01-4.44-3.03,5,.83,10.01,1.67,15.01,2.5Z"/><path class="cls-20" d="m170.68,124.92c7.38,10.29,11.77,21.86,14.59,34.1.18.93.42,1.85.51,2.79.14,1.43.16,2.87.23,4.3-.45.12-.9.24-1.35.36-5.13-13.97-10.25-27.94-15.38-41.92.46.12.93.24,1.39.36Z"/><path class="cls-20" d="m163.07,126.89c-.7-2.8-1.41-5.61-2.11-8.41-.02-1.29-.04-2.58-.07-3.87l-.05.06c.59.57,1.18,1.14,1.77,1.71.82,2.74,1.48,5.54,2.49,8.21,4.91,13.02,9.91,26.01,14.88,39.01-1.02-.26-2.04-.52-3.06-.78v-1.52c-2.75-7.7-5.45-15.42-8.32-23.08-.33-.89-1.57-1.45-2.39-2.16-.26-.77-.51-1.53-.77-2.3-.25-.51-.5-1.02-.75-1.54,0-.25,0-.5,0-.76-.5-.76-1-1.53-1.5-2.29-.02-.5-.04-1.01-.05-1.51-.02-.25-.04-.51-.06-.76Z"/><path class="cls-20" d="m125.01,135.22c-.53-.18-1.06-.36-1.58-.54.53.18,1.06.36,1.58.54Z"/><path class="cls-20" d="m160.89,114.6c-.18-.07-.36-.14-.54-.21.16.09.33.18.49.27,0,0,.05-.06.05-.06Z"/><path class="cls-8" d="m334.44,210.98c1.12,2.27,2.43,4.47,3.32,6.83,2.75,7.27,1,13.21-5.4,17.68-2.64,1.85-5.71,3.08-8.58,4.6-.28-1.03-.77-2.05-.8-3.08-.25-8.73-4.44-11.34-12.25-7.57-.37-1.78-.16-4.52-1.22-5.17-2.99-1.85-3.33-4.75-4.43-7.48-.87-2.16-2.43-4.02-3.42-6.14-.98-2.1-1.63-4.36-2.43-6.55.6-.06,1.19-.11,2.73-.25-6.78-7.93-13.09-15.3-18.62-21.77,8.86-.51,18.49-1.07,28.12-1.63-1.24,3.34-1.89,6.45,2.68,7.84.35.11.45.88.75,1.27,2.09,2.63,3.87,5.65,6.39,7.77,3.09,2.59,6.82,4.42,10.2,6.54-2.1,4.56-1.25,6.28,2.94,7.11Z"/><path class="cls-29" d="m334.44,210.98c-4.19-.83-5.04-2.55-2.94-7.11-3.39-2.12-7.11-3.95-10.2-6.54-2.53-2.12-4.31-5.13-6.39-7.77-.31-.39-.41-1.17-.75-1.27-4.57-1.39-3.93-4.5-2.68-7.84.51-.02,1.01-.04,1.52-.05,1.59.11,3.49,2.04,4.57-.79h0c1.53-.27,3.05-.54,4.58-.82,1.32-.56,2.65-1.12,5-2.11-1.9-.1-2.63-.14-3.36-.18-3.09-.98-6.18-1.97-9.27-2.95-.76-.02-1.51-.04-2.27-.05h0c-1.72-.51-3.5-.87-5.14-1.58-1.2-.51-2.21-1.46-3.3-2.22,1.09-1.48,2.52-2.83,3.2-4.48,1.65-3.99,2.95-8.12,4.39-12.19.53-.81,1.07-1.62,1.6-2.43-.76,5.76,4.36,8.31,7.01,12.05,1.94,2.74,2.93,7.02,7.44,7.55.39.05.54,1.78.87,2.7.62,1.75,1.02,3.64,1.99,5.17,1.44,2.28,3.22,4.36,5.01,6.4.94,1.08,2.07,2.16,3.34,2.75,2.57,1.2,5.3,2.08,7.96,3.08-2.28,1.32-4.55,2.64-6.83,3.96-1.82,1.42-3.64,2.85-5.47,4.27-.23.3-.47.6-.7.91-.2.26-.39.53-.59.79-.07.47-.15.94-.22,1.41.02,1.33.04,2.65.06,3.98,0,0,0,0,0,0,.53,1.78,1.05,3.56,1.58,5.35Z"/><path class="cls-15" d="m310.74,229.45c7.81-3.77,12-1.16,12.25,7.57.03,1.03.52,2.05.8,3.08-1.81,2.31.37,3.47,1.6,4.49,1.31,1.1,3.11,1.63,4.71,2.36,2.8,1.27,5.19,2.8,4.5,6.47-.67,3.59-3.14,4.61-6.42,4.52-.45-.01-.91.23-1.37.35,0,0,0,.09,0,.09-.21-.23-.42-.45-.62-.68-1.06-1.02-2.44-1.87-3.12-3.1-1.04-1.9-1.6-4.07-2.36-6.13-1.28-1.05-2.56-2.09-3.84-3.14.3-3.36.61-6.73.87-9.61-2.48-1.45-5.08-2.96-7.68-4.48.19-.37.38-.74.57-1.12.06-.22.09-.45.11-.67Z"/><path class="cls-3" d="m320.71,248.47c.76,2.06,1.32,4.23,2.36,6.13.67,1.23,2.05,2.08,3.12,3.1.21.23.42.45.62.68,0,0,0-.09,0-.09.04.5.09,1,.13,1.5.81,5.18,1.65,10.35,2.37,15.54.06.41-.73.95-1.13,1.42-1-.21-2.01-.41-3.01-.62-1.29-.28-2.58-.55-3.87-.83.01-3.5.65-7.16-.14-10.47-.85-3.57-3.21-6.76-4.61-10.23-1.74-4.32-.45-6.06,4.16-6.14Z"/><path class="cls-18" d="m373.44,178.53c-.54.05-1.09.09-1.63.14-.24.08-.47.16-.71.24-7.14,3.3-14.28,6.6-21.42,9.9-.47-1.95-.71-4-1.48-5.82-.68-1.59-2.12-2.84-2.98-4.37-2.62-4.71-5.06-9.53-7.68-14.24-2.87-5.16-6.26-10.07-8.69-15.43-1.52-3.34-4.52-6.37-3.62-10.59.05-.12.11-.23.16-.35-.07.1-.13.2-.2.31-.24,0-.49.02-.73.03-3.33.75-6.66,1.51-9.99,2.26,1.33-9.92,3.85-19.44,9.52-27.85.58-.87,1.78-1.32,2.69-1.97,1.57-.31,3.15-.61,4.72-.92.72,0,1.45,0,2.17,0,.62,1.39,1.18,2.81,1.88,4.16.52.99,1.45,1.79,1.82,2.81,2.13,5.87,6.56,9.91,11.31,13.42,1.77,1.31,2.22,2.37,2.73,4.3,1.44,5.38,1.39,11.34,7.31,14.96,3.26,1.99,5.79,5.61,7.86,8.98,1.36,2.21,1.07,5.42,4.65,5.97.53.08,1.22,1.03,1.32,1.66.63,3.7,1.11,7.42,1.64,11.13-.13.31-.26.61-.38.92-.12.09-.22.21-.3.34Z"/><path class="cls-9" d="m374.12,177.28c-.53-3.71-1.01-7.43-1.64-11.13-.11-.63-.79-1.58-1.32-1.66-3.58-.55-3.29-3.76-4.65-5.97-2.08-3.37-4.6-6.99-7.86-8.98-5.92-3.62-5.88-9.58-7.31-14.96-.52-1.93-.96-2.99-2.73-4.3-4.75-3.51-9.18-7.55-11.31-13.42-.37-1.02-1.3-1.83-1.82-2.81-.71-1.34-1.26-2.77-1.88-4.16,1.66.1,3.34.04,4.96.34,4.67.86,9.31,1.87,13.96,2.82.33-.22.66-.45.98-.67.23-.09.46-.16.7-.2.18.46.21,1.14.55,1.36,7.45,4.82,10.18,13.19,15.08,19.92.99,1.36,2.68,2.21,3.68,3.57,1.49,2.02,2.49,4.4,4.01,6.4.84,1.11,2.32,1.73,3.51,2.58.3,3.81-.47,8.12,1.09,11.32,4.56,9.39.37,15.94-8,19.96Z"/><path class="cls-26" d="m314.49,140.61c3.33-.75,6.66-1.51,9.99-2.26-.76.77-1.53,1.54-2.29,2.3-1.47.72-2.98,1.37-4.39,2.19-13.78,8.01-27.56,16.04-41.31,24.11-2.74,1.61-5.37,3.41-8.06,5.12.13.34.26.68.39,1.02,18.21,2.63,36.52,4.02,54.96,3.41.73.04,1.46.08,3.36.18-2.35,1-3.67,1.55-5,2.12-1.53.28-3.05.55-4.58.83,0,0,0,0,0,0-1.52.02-3.04.04-4.56.06-.55-.26-1.09-.73-1.65-.75-11.47-.55-22.95-1.03-34.42-1.59-2-.1-3.98-.49-5.98-.75-.25-.25-.51-.51-.76-.76-.11-.06-.22-.11-.34-.17.11.06.21.12.32.19.25.25.51.51.76.76.94,1.61,1.88,3.22,3.28,5.6-2.44-1.13-3.99-1.85-5.55-2.56-.05-.56-.09-1.12-.14-1.67-.17.05-.35.1-.52.14.21.52.43,1.03.64,1.55,2.05,5.86,4.1,11.73,6.15,17.59l.03,2.24-.12.1c-.86-1.04-1.97-1.96-2.55-3.15-1.98-4.04-3.77-8.16-5.63-12.25-.33-2.76-.65-5.52-.98-8.28.54-.74,1.08-1.49,1.83-2.51-1.7-.53-2.98-.93-4.26-1.34-2.43-1.49-4.86-2.98-7.29-4.47-1.04-1.64-2.07-3.29-3.11-4.93-1.66-2.92-3.32-5.84-4.98-8.77,2.11,1.91,4.37,3.69,6.29,5.78,2.7,2.91,5.15,6.05,7.7,9.09.3-.17.6-.35.91-.52-1.32-5.44-2.51-10.92-4.04-16.29-.46-1.62-1.91-2.96-2.9-4.43v-19.83c.37-.1.73-.2,1.1-.3.92,2.84,1.84,5.68,2.77,8.51-3.41.19-1.61,2.78-1.38,3.88,1.86,8.75,3.98,17.44,6.1,26.12.12.5.92.84,1.98,1.75-1.57-8.08-2.93-15.4-4.42-22.69-.63-3.06-1.52-6.06-2.29-9.09,2.25,6.21,4.5,12.43,6.74,18.65.18.51.24,1.07.5,2.23.83-1.7,1.36-2.78,1.88-3.86.16,1,.32,1.99.48,2.99,1.45-.65,2.01-1.4,2.46-2.21,2.45-4.35,5.04-8.62,7.25-13.09,1.53-3.08,4.11-5.98,2.76-9.9,2.8-3.37,5.61-6.74,8.41-10.11-1.54,3.69-2.97,7.43-4.66,11.05-4.69,10.1-9.52,20.14-14.23,30.23-.97,2.09-1.67,4.3-2.59,6.7,13.6-8.17,26.73-16.06,39.85-23.94-.33-.1-.8-.24-1.27-.37,2.46-1.21,4.92-2.41,7.39-3.62Zm-45.85,18.52c-.32-.21-.64-.56-.83-.5-.25.08-.61.6-.54.72.19.32.57.53.87.78.15-.3.3-.6.5-1Zm-10.88-26c-.03-.11-.04-.24-.11-.32-.02-.03-.18.05-.28.07.03.11.04.24.11.32.02.03.18-.05.28-.07Z"/><path class="cls-20" d="m307.1,144.23c.47.14.94.28,1.27.37-13.11,7.88-26.25,15.77-39.85,23.94.92-2.39,1.62-4.61,2.59-6.7,4.71-10.09,9.54-20.13,14.23-30.23,1.68-3.62,3.11-7.36,4.66-11.05.45-.86.89-1.71,1.34-2.57.54.36,1.08.73,1.61,1.09-2.66,8.47-5.33,16.95-7.99,25.42-3.18,4.18-5.21,8.9-7.54,13.48.32.16.64.31.97.47.54-.32,1.08-.64,1.61-.95,8.33-5.86,17.3-10.41,27.09-13.27Z"/><path class="cls-20" d="m270.12,121.79c-5.06-.73-10.14-1.3-15.17-2.21-9.38-1.7-18.73-3.59-28.92-5.56,1.45-.38,2.47-1.02,3.21-.79,7.03,2.21,13.24-1.05,19.54-3.02,7.42-2.33,14.55-5.56,21.95-7.96,2.67-.86,5.76-.43,8.66-.59-5.36,2.82-10.72,5.63-16.09,8.45-3.01.76-6.02,1.52-9.02,2.28-3.49.68-6.97,1.35-9.78,1.9,6.04,1.79,12.4,3.71,18.77,5.54.95.27,2.02.12,3.04.16,1.27.6,2.54,1.2,3.81,1.8Z"/><path class="cls-17" d="m248.74,181.88c.41-.89,1.09-1.76,1.16-2.67.08-1.08-.12-3.02-.65-3.18-4.04-1.28-3.6-4.42-3.47-7.49,3.47-1.07,5.79,1.19,8.29,2.89-.44,2.21-.88,4.43-1.32,6.64-.77,1.54-1.55,3.09-2.32,4.63-.43,4.77-.79,9.56-1.33,14.32-.27,2.34-1,4.55-4.04,4.55.02-.93.03-1.87.05-2.8.73-3.7,1.45-7.41,2.18-11.11-.02-.39-.04-.78-.06-1.17v.02c.26-.16.52-.31.79-.47.24-1.39.49-2.77.73-4.16Z"/><path class="cls-20" d="m223.45,174.86c.12,1.09.24,2.17.36,3.26l.51-.03c0-9.9,0-19.81,0-29.71,0-9.16-.06-18.32.06-27.47.02-1.37.85-2.72,1.31-4.08l1.68.37v4.33c-.02,2.55-.04,5.11-.05,7.66-.1.07-.29.18-.27.21.07.19.19.36.29.53,0,.51-.01,1.03-.02,1.54-.49,1.24-1.41,2.49-1.42,3.73-.11,12.79-.03,25.59-.1,38.38-.01,1.99-.47,3.98-.73,5.97-.68,0-1.36,0-2.03.01.14-1.57.27-3.13.41-4.7Z"/><path class="cls-20" d="m281.6,130.68c1.35,3.92-1.24,6.83-2.76,9.9-2.21,4.46-4.8,8.74-7.25,13.09-.46.81-1.01,1.57-2.46,2.21-.16-1-.32-1.99-.48-2.99,3.42-6.37,6.79-12.77,10.29-19.1.65-1.17,1.76-2.08,2.66-3.11Z"/><path class="cls-20" d="m255.68,147.51c.99,1.47,2.44,2.81,2.9,4.43,1.54,5.38,2.72,10.85,4.04,16.29-.3.17-.6.35-.91.52-2.56-3.04-5.01-6.18-7.7-9.09-1.93-2.08-4.18-3.86-6.29-5.78,0,0,0-.06,0-.06.11-.59.21-1.19.31-1.78,2.71,1.9,5.41,3.79,8.12,5.68.27.1.55.2.82.3-.05-.3-.1-.6-.15-.89-.38-3.21-.76-6.41-1.15-9.62Z"/><path class="cls-26" d="m225.07,179.55c.25-1.99.72-3.98.73-5.97.07-12.79,0-25.59.1-38.38.01-1.25.92-2.49,1.42-3.73.07,16.32.14,32.64.22,48.96-.82-.29-1.64-.58-2.46-.87Z"/><path class="cls-2" d="m225.07,179.55c.82.29,1.64.58,2.46.87,1.2,2.8,2.38,5.61,3.64,8.38.33.72.94,1.31,1.43,1.95.85.9,1.7,1.81,2.55,2.71-.14.48-.28.95-.42,1.43-1.47.54-2.95,1.09-4.42,1.63-.47.18-.94.36-1.41.53-.45-.63-.9-1.25-1.35-1.88,2.38-3.31.08-6.59-.18-9.85-.2-2.5-1.74-4.14-4.54-4.03-.5-.3-.99-.6-1.49-.9.57-.28,1.14-.56,1.71-.85.68,0,1.36,0,2.03-.01Z"/><path class="cls-15" d="m254.07,171.42c-2.51-1.7-4.82-3.96-8.29-2.89-.92-3.05.34-5.42,3.1-5.72,1.27-.14,2.56-.12,3.84-.17,1.04,1.64,2.07,3.29,3.11,4.93-.58,1.28-1.17,2.56-1.75,3.84Z"/><path class="cls-20" d="m235.14,193.47c-.85-.9-1.7-1.81-2.55-2.71,5.38-2.96,10.76-5.92,16.15-8.88-.24,1.39-.49,2.77-.73,4.15-.26.16-.53.31-.79.47,0,0,0-.02,0-.02-3.48,2.24-6.95,4.48-10.43,6.72-.55.09-1.1.18-1.65.27Z"/><path class="cls-20" d="m234.93,119.56c.65-.44,1.38-1.35,1.94-1.26,4.55.77,9.08,1.66,13.57,2.71.58.14.91,1.34,1.36,2.06-5.62-1.17-11.25-2.34-16.87-3.51Z"/><path class="cls-26" d="m266.31,120c-1.02-.04-2.09.11-3.04-.16-6.38-1.83-12.73-3.75-18.77-5.54,2.8-.54,6.29-1.22,9.78-1.9-.82.43-1.63.87-2.67,1.42,5.07,2.13,9.89,4.16,14.7,6.18Z"/><path class="cls-26" d="m280.01,157.51c-.54.32-1.08.64-1.61.95-.32-.16-.64-.31-.97-.47,2.32-4.58,4.35-9.3,7.54-13.48-1.65,4.33-3.3,8.66-4.95,12.99Z"/><path class="cls-9" d="m331.42,109.88c-1.57.31-3.15.61-4.72.92,1.57-.31,3.15-.61,4.72-.92Z"/><path class="cls-26" d="m248.04,152.04c-.1.59-.21,1.19-.31,1.78-.65-.86-1.3-1.71-1.94-2.57.15-.17.3-.33.44-.5.6.43,1.21.86,1.81,1.29Z"/><path class="cls-26" d="m227.33,129.93c-.1-.18-.22-.35-.29-.53-.01-.03.18-.14.27-.21.1.25.11.49.02.74Z"/><path class="cls-6" d="m353.5,112.37c-.33.22-.66.45-.98.67.33-.22.66-.45.98-.67Z"/><path class="cls-26" d="m256.41,56.51c.76,7.04-4.44,11.41-7.56,16.68-1.32,2.23-3.09,4.19-4.66,6.27-1.09,1.04-2.36,1.94-3.22,3.13-2.57,3.57-4.98,7.26-7.59,11.12-.96-1.04-1.27-1.23-1.26-1.4.42-6.93.92-13.86,1.27-20.79.11-2.13-.19-4.27-.28-6.41-.05-1.11-.05-2.22-.05-3.33,0-1.23.05-2.46.08-3.69.12-5.88.24-11.76.35-17.63.82,10.38,1.75,20.76,2.4,31.15.2,3.26-.36,6.56-.58,10.03,7.15-8.51,14.13-16.82,21.11-25.14Z"/><path class="cls-1" d="m233.48,40.47c-.12,5.88-.23,11.76-.35,17.63-.02,1.23-.07,2.46-.08,3.69,0,1.11,0,2.22.05,3.33.09,2.14.39,4.28.28,6.41-.35,6.93-.85,13.86-1.27,20.79-.01.17.3.35,1.26,1.4,2.62-3.86,5.02-7.54,7.59-11.12.86-1.2,2.14-2.1,3.22-3.13,1.18,3.36-2.05,4.54-3.35,6.64-2.8,4.51-5.75,8.91-8.7,13.32-.37.55-1.11.84-2.47,1.81,0-2.08,0-3.4,0-4.72,0-19.07,0-38.13,0-57.2,0-2.88-.1-5.76.05-8.63.06-1.15.68-2.28,1.04-3.41.91,4.4,1.82,8.79,2.73,13.19Z"/><path class="cls-20" d="m248.74,98.79c-1.82.6-3.65,1.19-5.47,1.79.43-1.68.54-3.54,1.34-5.02,2.64-4.87,5.54-9.6,8.34-14.38.06-.11.13-.24.23-.3,7.68-5.13,9.57-14.34,14.94-21.09.51-.64,1.71-.72,2.59-1.05-.94,2.58-1.89,5.15-2.83,7.73-4.76,10.19-9.76,20.25-17.46,28.64-.76.83-1.68,1.53-2.39,2.4-.11.14.47.84.73,1.28Z"/><path class="cls-26" d="m278.13,33.9c.33-.22.67-.44,1-.66-.12.43-.24.86-.35,1.28-.22-.21-.43-.42-.65-.63Z"/><path class="cls-26" d="m257.19,55.9c-.26.21-.53.41-.79.62.26-.21.53-.41.79-.62Z"/><path class="cls-20" d="m290.91,90.4c.52.3,1.03.6,1.81,1.06-19.45,7.6-38.68,15.08-59.4,17.99.87-.45,1.7-1.01,2.62-1.34,9.45-3.38,18.91-6.74,28.39-10.05,4.08-1.42,8.21-2.68,12.3-4.09.5-.17.82-.86,1.23-1.3,4.35-.76,8.71-1.52,13.06-2.27Z"/><path class="cls-20" d="m276.73,93.02c-.47.04-.94.09-1.41.13.47-.04.94-.09,1.41-.13Z"/><path class="cls-25" d="m59.87,233.4c-5.04-3.7-10.11-7.38-12.91-13.27-.13-1.88-.28-3.77-.39-5.66-.07-1.34-.45-2.82-.04-4.01,1.03-3.01,3.42-4.31,6.57-4.05,2.75.22,4.89-.06,5.72-3.44.28-1.12,2.28-2.19,3.68-2.59,2.16-.61,4.54-.42,6.72-.98,1.21-.31,2.91-1.23,3.18-2.22.98-3.55,3.35-4.08,6.42-3.8,2.17.19,4.11-.12,4.82-2.64.81-.65,1.61-1.31,2.42-1.96.17-.31.35-.61.53-.92-.04-.71-.07-1.42-.11-2.13,1.6,1.54,3.2,3.07,4.81,4.6,3.05,4.59,6.11,9.18,9.16,13.77-7.12.39-14.19,1.01-20.68,4.44,2.37,5.43,2.12,5.98-3.4,7.78-3.03.98-6.17,1.67-7.08,5.5-.15.62-1.51,1.2-2.39,1.33-1.49.22-3.06-.05-4.56.1-3.99.42-5.12,2.54-3.52,6.18.54,1.24.71,2.64,1.06,3.96Z"/><path class="cls-18" d="m83.65,190.74c-.71,2.52-2.66,2.84-4.82,2.64-3.07-.27-5.44.25-6.42,3.8-.27.98-1.97,1.91-3.18,2.22-2.18.55-4.56.36-6.72.98-1.41.4-3.41,1.46-3.68,2.59-.83,3.39-2.97,3.66-5.72,3.44-3.15-.25-5.54,1.04-6.57,4.05-.41,1.19-.03,2.67.04,4.01.1,1.89.26,3.77.39,5.66-1.85-4.34-3.7-8.69-5.55-13.03-.17-.26-.35-.52-.52-.78,0,0,.13-.08.13-.08.1-2.53.19-5.05.29-7.58.1-.73.2-1.47.3-2.2.76-2.05,1.52-4.09,2.28-6.14.34-.48.68-.95,1.02-1.43,5.85-4.99,12.17-2.54,18.34-1.01,6.72,1.66,13.33,3.84,20.4,2.87Z"/><path class="cls-16" d="m91.29,190.34c-1.6-1.53-3.2-3.07-4.81-4.6-4.21-5.39-8.41-10.8-12.65-16.17-1.01-1.27-2.18-2.41-3.27-3.62l.23-.23c2.5.56,5.01,1.13,7.51,1.69,0,0-.03-.03-.03-.03.25.26.5.53.75.79,7.04,4.46,14.07,8.92,21.11,13.39.61.39,1.23.77,1.85,1.15-.3,2.54-7.05,7.35-10.7,7.64Z"/><path class="cls-22" d="m41.61,196.46c-.1.73-.2,1.47-.3,2.2.1-.73.2-1.47.3-2.2Z"/><path class="cls-22" d="m44.91,188.89c-.34.48-.68.95-1.02,1.43.34-.48.68-.95,1.02-1.43Z"/><path class="cls-16" d="m70.57,165.95c-.15-.14-.3-.27-.44-.41.22.06.45.12.67.18,0,0-.23.23-.23.23Z"/><path class="cls-16" d="m86.6,187.86c-.18.31-.35.61-.53.92.18-.31.35-.61.53-.92Z"/><path class="cls-17" d="m218.97,321.82c-8.86.01-17.71,0-26.57.07-1.82.01-2.96-.26-3.56-2.37-.96-3.38-2.41-6.61-3.66-9.9-.35-1.11-.7-2.21-1.05-3.32-.84-3.02-1.67-6.04-2.5-9.06-.87-4.09-1.9-8.16-2.59-12.29-1.57-9.37-2.98-18.77-4.45-28.16,2.51.83,5.03,1.67,7.55,2.5.24.08.47.16.7.24-.18-.13-.36-.26-.55-.39-1.07-1.23-2.14-2.46-3.2-3.69l.23-.23c4.83-1.04,10.11-.01,15.34-3.25-5.59-.89-10.32-1.64-15.83-2.51,1.88-1.02,2.98-1.62,4.08-2.21,1.36.4,2.72,1.12,4.08,1.13,9.38.12,18.75.09,28.13.11.52,1.18.82,2.54,1.61,3.5,1.73,2.1,1.92,6.44.5,8.41-1,1.38-2,3.17-2.02,4.79-.16,12.58-.05,25.16-.12,37.74-.02,3.22-.21,6.31,2.85,8.56.71.52.89,2.03.95,3.1.14,2.41.05,4.83.05,7.24Z"/><path class="cls-5" d="m218.97,321.82c0-2.41.09-4.83-.05-7.24-.06-1.07-.24-2.58-.95-3.1-3.06-2.25-2.87-5.35-2.85-8.56.06-12.58-.05-25.16.12-37.74.02-1.62,1.02-3.41,2.02-4.79,1.42-1.97,1.23-6.31-.5-8.41-.79-.96-1.09-2.32-1.61-3.5,1.8-.04,3.6-.08,5.41-.13,5.34.03,10.67.07,16.01.1,0,11.18-.09,22.36.03,33.54.08,7.46.65,14.93.68,22.39.02,5.81-.45,11.62-.7,17.43-5.86,0-11.72,0-17.59.01Z"/><path class="cls-13" d="m104.35,308.84c-3.28-1.85-6.8-3.37-9.76-5.64-2.75-2.11-5.58-4.65-7.18-7.65-4.32-8.08-.48-15.03,9.6-17.91,6.22-1.78,12.64-2.89,18.8-4.82,2.71-.84,5.02-2.96,7.52-4.49.29-.01.59-.02.88-.03,1.99,1.81,3.98,3.63,5.96,5.44.26.29.53.57.79.86.75,3.4-2.45,7.34,1.45,10.73.59-1.31,1.03-2.3,1.47-3.29.32,4.02.57,8.04.98,12.05.24,2.35-.63,3.71-2.77,4.74-3.47,1.66-6.8,3.62-10.19,5.45-1.46.75-2.92,1.49-4.37,2.24-.94.09-1.88.18-2.64.25-.13,1.45-.24,2.55-.34,3.64-2.68-.44-5.36-.89-8.05-1.33-.48-.04-.95-.08-1.43-.12-.24-.06-.48-.1-.73-.12Z"/><path class="cls-27" d="m121.91,304.28c3.39-1.83,6.72-3.8,10.19-5.45,2.14-1.02,3.01-2.39,2.77-4.74-.41-4.01-.66-8.03-.97-12.05-.04-2.02-.09-4.03-.14-6.05.38-1.01.6-2.13,1.19-3,.51-.74,1.45-1.19,2.2-1.77,3.31-.2,6.62-.39,9.93-.59,1,.09,2,.17,3,.26.27,1.86.58,3.71.81,5.57.79,6.47,1.55,12.94,2.31,19.4.56,5.9,1.13,11.8,1.69,17.69-.07,1.62-.14,3.24-.21,4.86-1.31.39-2.49.75-3.66,1.1-1.05-1.81-2.11-3.61-3.16-5.42-1.3-4.48-2.6-8.97-3.9-13.46-6.65,4.43-13.74,5.63-20.6,7.43-.48-1.26-.97-2.53-1.45-3.79Z"/><path class="cls-13" d="m154.89,313.57c-.56-5.9-1.13-11.8-1.69-17.69,3.57,1.53,7.14,3.05,10.72,4.58.77.48,1.54.97,2.31,1.45.76.02,1.52.05,2.28.07,4.61,3.61,10.39,2.99,15.64,4.31.35,1.11.7,2.21,1.05,3.32-5.52,1.03-11.02,2.13-16.56,3.04-2.85.47-5.75.58-8.63.85-1.7.02-3.4.05-5.1.07Z"/><path class="cls-13" d="m123.36,308.07c6.87-1.8,13.95-2.99,20.6-7.43,1.3,4.49,2.6,8.98,3.9,13.46-9.64-.69-19.28-1.37-28.91-2.06.07-.86.15-1.72.22-2.58,1.4-.47,2.79-.93,4.19-1.4Z"/><path class="cls-15" d="m119.17,309.47c-.07.86-.15,1.72-.22,2.58-.14,1.36-.28,2.71-.52,5-1.52-2.6-2.7-4.61-3.87-6.63.1-1.1.21-2.19.34-3.64.76-.07,1.7-.16,2.64-.25.54.98,1.09,1.97,1.64,2.95Z"/><path class="cls-15" d="m156.92,323.83c1.92.76,3.84,1.52,5.75,2.28-.07.29-.14.58-.2.87h-11.38c.98-1.31,1.55-2.07,2.12-2.83,1.24-.1,2.47-.21,3.71-.31Z"/><path class="cls-16" d="m156.92,323.83c-1.24.1-2.47.21-3.71.31-.73-1.54-1.46-3.08-2.2-4.62,1.17-.35,2.35-.7,3.66-1.1.07-1.62.14-3.24.21-4.86,1.7-.02,3.4-.04,5.11-.07-1.41.35-2.82.69-5.21,1.28.71,2.99,1.42,6.02,2.14,9.05Z"/><path class="cls-22" d="m105.08,308.96c.48.04.95.08,1.43.12-.48-.04-.95-.08-1.43-.12Z"/><path class="cls-29" d="m59.87,233.4c-.34-1.32-.51-2.72-1.06-3.96-1.59-3.64-.47-5.76,3.52-6.18,1.51-.16,3.07.12,4.56-.1.87-.13,2.24-.71,2.39-1.33.92-3.83,4.06-4.52,7.08-5.5,5.53-1.8,5.78-2.35,3.4-7.78,6.49-3.43,13.55-4.05,20.68-4.44,0,0,.01,0,.01,0,.51.51,1.01,1.03,1.52,1.54.51,1.02,1.02,2.03,1.53,3.05.5.51,1.01,1.03,1.51,1.54h0c2.29,4.33,4.59,8.67,6.88,13,2.4,4.31,4.86,8.59,7.16,12.96.46.88.33,2.07.48,3.11-7.09-3.9-14.05-8.08-21.32-11.6-4.53-2.2-9.54-3.41-14.34-5.07-.14.35-.28.7-.43,1.04,2.33,1.88,4.81,3.62,6.97,5.68,4.44,4.24,8.72,8.65,13.06,12.99-2.48-1.25-4.85-2.97-7.47-3.62-3.13-.78-6.52-.99-9.73-.69-1.02.09-1.81,2.59-2.74,3.96-.99,1.44-2.02,2.85-3.03,4.28-.74-.06-1.47-.13-2.21-.19-6.15-4.22-12.3-8.45-18.45-12.67Z"/><path class="cls-8" d="m80.53,246.27c1.01-1.43,2.05-2.84,3.03-4.28.93-1.37,1.72-3.87,2.74-3.96,3.21-.29,6.6-.08,9.73.69,2.63.65,4.99,2.37,7.47,3.62,4.06,4.55,8.32,8.93,12.11,13.69,2.44,3.06,4.19,6.66,6.25,10.01l-.11.11c-8.57-4.06-17.15-8.09-25.7-12.2-5.21-2.5-10.36-5.13-15.53-7.69Z"/><path class="cls-8" d="m124.22,268.3c-.29.01-.59.02-.88.03-.27-.47-.55-.95-.82-1.42l.11-.11c.53.5,1.06.99,1.59,1.49Z"/><path class="cls-8" d="m122.52,266.92c-.25-.25-.5-.51-.76-.76,0,0,.11-.11.11-.11.26.26.51.51.77.77l-.11.11Z"/><path class="cls-25" d="m322.19,140.65c.76-.77,1.53-1.54,2.29-2.3.24-.01.49-.02.73-.03l.04.04c-.9,4.22,2.1,7.25,3.62,10.59,2.43,5.35,5.81,10.27,8.69,15.43,2.62,4.71,5.06,9.52,7.68,14.24.85,1.54,2.29,2.78,2.98,4.37.78,1.82,1.01,3.87,1.48,5.82-1.02.5-2.05,1-3.07,1.5-2.66-1.01-5.39-1.88-7.96-3.08-1.27-.59-2.39-1.68-3.34-2.75-1.78-2.04-3.56-4.12-5.01-6.4-.97-1.53-1.37-3.43-1.99-5.17-.33-.93-.48-2.66-.87-2.7-4.52-.53-5.5-4.81-7.44-7.55-2.65-3.74-7.77-6.29-7.01-12.05,1.04-.9,2.19-1.7,3.1-2.72,2.09-2.35,4.07-4.81,6.09-7.23Z"/><path class="cls-21" d="m334.31,198.55c1.82-1.42,3.64-2.85,5.47-4.27-.6,2.49-1.2,4.98-1.8,7.47-.52.06-1.04.12-1.56.18-.7-1.13-1.4-2.25-2.1-3.38Z"/><path class="cls-21" d="m332.86,205.63c-.02-1.33-.04-2.65-.06-3.98.02,1.33.04,2.65.06,3.98Z"/><path class="cls-9" d="m373.44,178.53c.08-.13.18-.25.3-.34,0,0,0,.3,0,.3l-.31.04Z"/><path class="cls-9" d="m371.1,178.91c.24-.08.47-.16.71-.24-.22.12-.46.2-.71.24Z"/><path class="cls-21" d="m333.02,200.25c.2-.26.39-.53.59-.79-.2.26-.39.53-.59.79Z"/><path class="cls-19" d="m40.89,206.32c.17.26.35.52.52.78-.17-.26-.35-.52-.52-.78Z"/><path class="cls-4" d="m223.04,179.56c-.57.28-1.14.56-1.71.85-1.28,1.26-2.56,2.51-3.85,3.77-.99-1.05-1.98-2.11-2.96-3.16-3.14.47-6.29.94-8.7,1.3-1.85,2.31-3.42,4.27-4.99,6.23l-.04-.04c-4.05-3.17-8.1-6.35-12.52-9.81,8.8-4.09,14.46-11.06,19.38-18.78,0,0-.08-.06-.08-.06.38-.53.76-1.05,1.15-1.58.63-.81,1.25-1.62,1.88-2.43-.18-.19-.36-.38-.53-.56-4.25,2.5-8.51,5.01-12.88,7.59.99-5.02,1.93-9.75,2.87-14.48.42-6.91.84-13.81,1.26-20.72.75.11,1.81-.06,2.19.38,2.79,3.22,6.36,3.58,10.31,3.57,2.61,0,2.87,2.33,2.87,4.54,0,2.43-1.31,2.98-3.41,3-1.62.02-3.28.24-4.85.66-.61.16-1.01,1.11-1.51,1.7.69.43,1.36,1.2,2.07,1.23,3.05.14,6.1.06,10.06.06.32-5.17.68-11.06,1.05-16.95.29-.01.58-.03.87-.04.19,2.23.38,4.46.57,6.69.27.04.54.07.81.11.2-.98.4-1.95.6-2.93.19.13.37.28.54.43,0,14.92-.02,29.84-.03,44.76-.14,1.57-.27,3.13-.41,4.7Z"/><path class="cls-20" d="m216.65,119.22c-5.73,3.08-12,3.96-18.35,4.47-1.15-.68-2.3-1.36-2.94-1.74,4.53-1.04,9.71-2.43,14.97-3.35,2.01-.35,4.21.37,6.32.61Z"/><path class="cls-20" d="m223.47,130.1c-.17-.15-.35-.29-.54-.43-.32-4.24-.65-8.47-.98-12.71.54.47,1.52.92,1.54,1.4.1,3.91.01,7.82-.02,11.74Z"/><path class="cls-1" d="m218.19,35.87c.76-1.53,1.52-3.06,2.27-4.58.26,1.32.75,2.63.75,3.95.05,20,.06,40,0,60.01,0,2.13-.48,4.26-.73,6.39-1.91-2.77-3.87-5.51-5.72-8.32-.99-1.5-1.8-3.11-2.69-4.67,1.79.76,3.57,1.53,5.36,2.29.51-4.63,1.31-9.25,1.46-13.89.24-7.6.07-15.22.06-22.83,0-5.01.02-10.02-.09-15.02-.02-.89-.61-1.77-.94-2.65.09-.22.18-.45.27-.67Z"/><path class="cls-20" d="m217.92,36.54c.33.88.92,1.76.94,2.65.11,5.01.09,10.01.09,15.02,0,7.61.18,15.23-.06,22.83-.15,4.64-.95,9.26-1.46,13.89-1.02-3.04-2.04-6.08-3.06-9.11.28-.78.87-1.61.78-2.35-1.77-14.49.47-28.71,2.77-42.93Z"/><path class="cls-26" d="m214.37,81.82c1.02,3.04,2.04,6.08,3.06,9.11-1.79-.76-3.57-1.53-5.36-2.29,0,0,0,0,0,0-1.03-1.94-2.05-3.88-3.08-5.82-2.21-4.21-4.54-8.36-6.59-12.64-1.09-2.28-1.72-4.79-2.55-7.2,4.84,6.28,9.68,12.56,14.52,18.84Z"/><path class="cls-1" d="m199.85,62.98c.84,2.41,1.46,4.92,2.55,7.2,2.05,4.28,4.38,8.44,6.59,12.64,1.02,1.94,2.05,3.88,3.08,5.82-3.1-3.67-6.56-7.11-9.22-11.08-3.68-5.49-6.92-11.31-10.04-17.14-1.56-2.92-2.47-6.19-3.67-9.3,1.56,1.72,3.11,3.44,4.67,5.16.29.3.58.61.87.91,0,0-.06-.07-.06-.07.25.3.49.6.74.9,0,0-.03-.04-.03-.04-.05,2.73,1.31,4.23,3.99,4.59.25.04.43.18.54.42Z"/><path class="cls-26" d="m199.32,62.56c-2.68-.35-4.05-1.85-3.99-4.59,1.33,1.53,2.66,3.06,3.99,4.59Z"/><path class="cls-1" d="m187.92,50.15l-.61-.07c.13-.15.27-.31.4-.46.2.13.27.3.21.53Z"/><path class="cls-1" d="m188.84,51.1c-.38-.28-.76-.56-1.14-.84.38.28.76.56,1.14.84Z"/><path class="cls-26" d="m195.35,58.02c-.25-.3-.49-.6-.74-.9.25.3.49.6.74.9Z"/><path class="cls-26" d="m194.67,57.19c-.29-.3-.58-.61-.87-.91.29.3.58.61.87.91Z"/><path class="cls-1" d="m291.61,275.98c-2.05-.26-4.1-.52-6.15-.78-3.05,2.55-6.11,5.11-9.16,7.67h0c.77-2.04,1.53-4.08,2.3-6.12.06-.11.12-.22.18-.32-.06.11-.12.21-.18.32-2.79.7-5.59,1.39-8.38,2.09-2.58.13-5.15.26-7.73.39l-.19-.84c3.3-1.7,6.62-3.37,9.89-5.13.71-.38,1.25-1.08,1.86-1.64-.68-.63-1.27-1.44-2.07-1.87-5.72-3.14-11.47-6.2-17.22-9.28.18-.56.36-1.12.54-1.67,6.55,1.25,13.11,2.5,20.53,3.92-3.22-5.33-5.94-9.83-8.66-14.32,0-.23-.04-.44-.14-.64-.97-1.84-1.94-3.68-2.91-5.52.11-.88.22-1.76.35-2.73,4.18,3.48,8.04,6.69,11.91,9.9.25.69.5,1.37.76,2.06.24.26.49.53.73.79h0c.2,3.05,1.41,5.32,4.58,6.13v-.02c-.07,1.99-.04,3.92,2.27,4.2,0-3.56.09-6.9-.03-10.23-.06-1.81-.48-3.61-.73-5.41.32-3.87.63-7.75.95-11.62.55-.04,1.11-.09,1.66-.13,1.49,8.36,2.99,16.73,4.39,24.57,3.87-3.6,7.98-7.44,12.1-11.28,0,.48,0,.96,0,1.44-2.4,4.8-4.79,9.59-7.32,14.66,1.97-.38,3.79-.73,5.62-1.07-.19.61-.38,1.22-.57,1.83-2.01,1.23-3.89,2.85-6.06,3.6-3.08,1.07-3.68,2.87-2.81,5.66-.09.46-.18.93-.27,1.39Z"/><path class="cls-10" d="m236.54,248.44c-5.34-.03-10.67-.07-16.01-.1-.29-2.49-.57-4.99-.86-7.49,2.24-.28,4.31-.72,3.68-3.79,1.26-2.39,3.54-4.54,1.82-7.63.76-2.51,1.37-5.08,2.37-7.49.36-.88,1.83-2.06,2.52-1.9,3.73.85,7.38,2.08,11.06,3.19,1.39.43,2.78.86,4.22,1.31.38,7.91.77,15.84,1.15,23.76-3.32.05-6.64.09-9.96.14Z"/><path class="cls-28" d="m246.51,248.31c-.39-7.93-.77-15.85-1.15-23.76-1.44-.45-2.83-.88-4.22-1.31,1.76-.27,3.52-.55,5.28-.82.32.56.65,1.12.97,1.68.17,2.6.34,5.2.51,7.89,2.44-.96,3.92-5.24,3.84-11.07-1.47.31-2.83.6-4.2.89-.36-.03-.72-.05-1.08-.08-1.95-1.33-3.89-2.65-5.5-3.74,5.13-1.02,10.37-2.05,15.6-3.09,2.49.53,4.99,2.84,7.47-.03,4.5.01,9.01-.07,13.5.11,1.12.04,2.21.9,3.31,1.39-3.81,0-7.63-.07-11.44.04-1.03.03-2.72.35-2.97.98-1.48,3.85-3.22,7.75-3.74,11.77-.59,4.59,0,9.33.12,14.01,0,.12.39.23.77.45.18-.48.35-.92.52-1.37.97,1.84,1.94,3.68,2.91,5.52-.23.22-.46.44-.69.66-.75,0-1.5,0-2.25,0-1.54,0-3.09,0-4.63-.01-4.31-.03-8.63-.06-12.94-.09Z"/><path class="cls-2" d="m259.45,248.4c1.54,0,3.09,0,4.63.01-1.54,0-3.09,0-4.63-.01Z"/><path class="cls-2" d="m266.33,248.41c.23-.22.46-.44.69-.66.1.2.15.42.14.64-.28,0-.55.01-.83.02Z"/><path class="cls-10" d="m320.71,248.47c-4.61.08-5.89,1.82-4.16,6.14,1.4,3.48,3.76,6.66,4.61,10.23.79,3.31.15,6.97.14,10.47-.74-.07-1.48-.15-2.22-.22-2.81-3.09-2.79-6.86-3.24-10.76-.39-3.38-2.52-6.57-3.87-9.84.33-2.06.66-4.12.99-6.18.24-.46.48-.93.72-1.39,1.07-.53,2.13-1.06,3.2-1.59,1.28,1.05,2.56,2.09,3.84,3.14Z"/><path class="cls-2" d="m311.96,254.49c1.36,3.27,3.49,6.46,3.87,9.84.45,3.9.43,7.67,3.24,10.76-3.05.03-6.11.05-9.16.08-1.05-.29-2.11-.58-3.16-.86.18-1.06.28-2.14.55-3.17,1.4-5.55,2.85-11.08,4.28-16.63,0,0,.19-.04.19-.04l.19.03Z"/><path class="cls-17" d="m325.16,276.14c1.01.21,2.01.41,3.01.62.57,4.15,1.15,8.29,1.72,12.44-.43.27-.86.54-1.29.81-1.1-1.39-2.2-2.78-3.29-4.17-.1-2.77-.19-5.54-.29-8.3-.03-.27-.06-.53-.08-.8.17-.16.24-.36.22-.59Z"/><path class="cls-1" d="m276.3,282.86c-.06.11-.12.21-.18.32.06-.11.11-.22.17-.33,0,0,0,0,0,0Z"/><path class="cls-27" d="m325.03,277.54c.1,2.77.19,5.54.29,8.3-.11,1.81-.23,3.61-.34,5.42.02-4.58.04-9.15.05-13.72Z"/><path class="cls-3" d="m311.58,254.51c-1.43,5.54-2.87,11.08-4.28,16.63-.26,1.04-.37,2.11-.55,3.17-.73.43-1.45.86-2.4,1.42-.71-.92-1.45-1.87-2.18-2.82-.5-.77-.99-1.54-1.49-2.31,1.4-1.81,2.7-3.7,4.22-5.4,2.41-2.69,5.03-5.21,4.9-9.23.59-.49,1.18-.97,1.77-1.46Z"/><path class="cls-23" d="m300.68,270.6c.5.77.99,1.54,1.49,2.31-1.48,1.18-3.21,2.15-4.38,3.58-2.46,3-4.39,2.95-6.18-.51.09-.46.18-.93.27-1.39,3.36,1.67,4.44-1.38,6.2-3,.87-.33,1.73-.66,2.6-.98Z"/><path class="cls-8" d="m172.32,207.92c-.24.78-.47,1.57-.71,2.35.16.09.33.17.49.26,1.54-1.9,3.09-3.8,4.63-5.7.15,3.32.3,6.64.45,9.96-1.26.05-2.53.13-3.79.15-4.5.07-5.59,1.14-5.6,5.61-.01,3.93.01,7.86.02,11.78-2.06-3.68-4.12-7.37-6.18-11.05-.76,1.82-.92,3.44-.73,5.02.69,5.6,1.49,11.19,2.25,16.78,0,0-.02.02-.02.02-2.8-1.29-5.6-2.57-8.4-3.86-1.59-3.78-2.96-7.71-6.82-9.92-.29-.55-.58-1.11-.87-1.66,1.51-4-2.34-2.76-3.79-3.87,0-.45,0-.89.01-1.34-.51-.51-1.01-1.03-1.52-1.54,0-.25,0-.51,0-.76-.49-1.25-.9-2.55-1.5-3.76-1.34-2.71-1-4.64,2.24-5.42,4.34-1.55,8.67-3.09,13-4.64,6.39-3.67,12.77-7.33,18.73-10.75-.56,3.65-1.22,7.99-1.89,12.32Z"/><path class="cls-29" d="m142.48,210.99c-3.24.78-3.58,2.71-2.24,5.42.6,1.2,1.01,2.5,1.5,3.76-1.46-1.4-2.99-2.73-4.36-4.2-3.67-3.92-7.28-7.9-10.92-11.86h0c0-.51,0-1.02,0-1.53-.76-2.9-1.88-5.77-2.14-8.72-.13-1.44,1.21-3.09,2.11-4.51,1.44-2.27,3.06-4.43,4.6-6.63l.02-.02c.26-.02.52-.05.77-.07.51.03,1.01.05,1.52.08,10.19,3.11,20.52,4.91,31.22,3.27,1-.15,2.11.33,3.16.52-5.09,4.6-10.18,9.19-15.27,13.79-3.04,3.07-6.08,6.13-9.12,9.2-.28.51-.57,1.01-.85,1.52Z"/><path class="cls-22" d="m177.19,214.8c-.15-3.32-.3-6.64-.46-9.96,2.71-5.51,5.54-10.97,8.07-16.57.86-1.89.98-4.11,1.54-6.63,4.65,3.09,9.04,6.01,13.42,8.92-.53,1.95-1.05,3.89-1.58,5.84-2.19-.56-4.39-1.13-6.58-1.69-.5-1.18-1-2.36-1.94-4.58-1.61,3.37-2.69,5.65-3.78,7.93.31.2.61.4.92.6,1.07-.31,2.13-.63,3.2-.94,1.79,1.17,3.58,2.33,5.37,3.5-2.17,4.51-4.33,9.02-6.5,13.53-3.9.02-7.79.03-11.69.05Z"/><path class="cls-1" d="m156.22,167.43c-.25-.24-.5-.48-.74-.72-.5-.28-1-.55-1.5-.83,0,0,0,0,0,0-1.28-1.02-2.55-2.03-3.83-3.05-.77-.74-1.54-1.48-2.32-2.22-.5-.28-1-.56-1.49-.83,0,0,0,0,0,0-.51-.5-1.02-1.01-1.54-1.51,0,0,0,0,0,0-.75-.51-1.5-1.03-2.26-1.54-1.52-1.54-3.04-3.07-4.56-4.61,5.24.42,8.65,4.17,12.6,6.94,5.79,4.06,11.54,8.19,17.41,12.13,3.89,2.61,7.96,4.94,12.31,7.62-6.85.29-13.48.92-20.1.79-12.79-.26-25.57-.92-38.35-1.51-.78-.04-1.52-.9-2.28-1.38,7.39-1.05,14.78-2.1,22.17-3.15.8.26,1.6.73,2.4.74,7.68.06,15.36.03,24.01.03-2.23-.72-3.69-1.18-5.15-1.65.65-3.77-3.03-2.38-4.42-3.71-.78-.5-1.56-1-2.35-1.5Z"/><path class="cls-20" d="m172.32,207.92c.66-4.34,1.33-8.67,1.89-12.32-5.96,3.42-12.34,7.09-18.73,10.75,1.83-1.77,3.74-3.47,5.48-5.33,1.58-1.69,2.99-3.54,4.48-5.33,0,0,0,0,0,0,.25-.25.51-.51.76-.76h0c2.51.29,4.47-.38,6.41-2.29,2.63-2.58,5.83-4.59,8.79-6.85.38.2.75.4,1.13.6-3.4,7.17-6.81,14.35-10.21,21.52Z"/><path class="cls-20" d="m200.05,148.38c-.94,4.73-1.87,9.47-2.87,14.48,4.38-2.58,8.63-5.08,12.88-7.59.18.19.36.38.53.56-.63.81-1.25,1.62-1.88,2.43-.38.53-.76,1.05-1.15,1.58,0,0,.08.06.08.06-1.51.76-3.27,1.25-4.48,2.35-3.18,2.87-6.07,6.04-9.17,9-.96.91-2.21,1.51-3.33,2.26h0c.32-1.87.45-3.8,1-5.59.89-2.92,2.11-5.74,3.08-8.64,1-2.98,1.75-6.05,2.88-8.97.32-.83,1.59-1.3,2.42-1.94Z"/><path class="cls-20" d="m167.72,186.49c-1.06-.19-2.16-.68-3.16-.52-10.7,1.64-21.03-.16-31.22-3.27,3.6-.49,7.19-1.35,10.79-1.37,3.29-.02,6.57,1.12,9.89,1.31,4.31.25,8.64.04,12.96.07,1.2,0,2.39.16,3.59.24.13.32.26.63.39.95-1.08.86-2.15,1.73-3.23,2.59Z"/><path class="cls-20" d="m195.23,139.02c1.26-2.56,2.51-5.12,3.77-7.68-.02,1.67.22,3.4-.11,5.01-.65,3.2-1.49,6.38-2.46,9.5-2.38,7.62-4.83,15.22-7.36,22.79-.39,1.18-1.36,2.17-2.07,3.24-.3-.15-.6-.29-.9-.44.45-1.79.78-3.61,1.36-5.36,2.54-7.75,2.75-16.21,7.34-23.34.6-.94.31-2.46.43-3.71Z"/><path class="cls-20" d="m143.33,209.47c3.04-3.07,6.08-6.13,9.12-9.2.65.19,1.62.76,1.92.51,4.54-3.68,8.91-7.59,13.52-11.19,2.32-1.81,5.02-3.13,7.56-4.67.27.34.54.68.8,1.03-3.34,2.99-6.69,5.98-10.03,8.97,0,0,0,0,0,0-.25.25-.51.51-.76.76,0,0,0,0,0,0-2.77,1.88-5.48,3.86-8.33,5.62-4.55,2.8-9.18,5.45-13.78,8.16Z"/><path class="cls-1" d="m176.91,162.81c1.02.26,2.04.52,3.06.78,1.02,3.06,2.03,6.11,3.04,9.17-3.34.05-5.52-1.66-6.88-4.59.6-.59,1.7-1.18,1.7-1.76,0-1.2-.59-2.39-.93-3.59Z"/><path class="cls-25" d="m198.2,196.41c.53-1.95,1.05-3.9,1.58-5.84.34-.69.68-1.37,1.02-2.06,0,0,.04.04.03.04.93,3.01,1.87,6.01,2.87,9.2-.31.08-.9.22-1.49.37-.79-.05-1.57-.11-2.35-.16l.02.02-.22-.76c-.49-.27-.97-.54-1.46-.81Z"/><path class="cls-20" d="m190.67,173.52l-.92,1.17c-.08-.08-.16-.16-.25-.25.39-.31.78-.61,1.17-.92,0,0,0,0,0,0Z"/><path class="cls-29" d="m131.02,182.71c-1.01-.28-2.02-.56-3.03-.83,1,.02,2.01.04,3.02.06.01.25.03.5.04.75l-.02.02Z"/><path class="cls-20" d="m184.08,181.71c.09.03.26.06.26.1,0,.11-.06.22-.1.32-.09-.03-.26-.06-.27-.1,0-.11.06-.22.1-.32Z"/><path class="cls-20" d="m183.16,183.65c.03.1.1.25.07.28-.08.07-.21.08-.32.11-.03-.1-.1-.25-.07-.28.08-.07.21-.08.32-.11Z"/><path class="cls-1" d="m137.17,151.3c-.24-.24-.48-.49-.72-.73.24.24.48.49.72.73Z"/><path class="cls-1" d="m136.41,150.52c-.24-.24-.48-.48-.72-.72.24.24.48.48.72.72Z"/><path class="cls-1" d="m135.64,149.76c-.24-.24-.49-.48-.73-.72.24.24.49.48.73.72Z"/><path class="cls-1" d="m137.93,152.06c-.24-.24-.49-.48-.73-.72.24.24.49.48.73.72Z"/><path class="cls-20" d="m131.05,182.69c-.01-.25-.02-.5-.04-.75.27.22.54.45.81.67-.26.02-.52.05-.77.07Z"/><path class="cls-6" d="m103.52,208.69c-.51-1.02-1.02-2.03-1.53-3.05-.51-.51-1.01-1.03-1.52-1.54,0,0-.01,0-.01,0-3.05-4.59-6.11-9.18-9.16-13.77,3.65-.28,10.39-5.1,10.7-7.64,1.02.51,2.04,1.02,3.06,1.52,1.91,1.65,3.9,3.21,5.7,4.97,1.29,1.26,2.33,2.79,3.48,4.19.75,2.29,1.23,4.51-1.93,5.35-3.01.8-3.95,2.82-4.33,5.78-.27,2.03.44,5.08-2.93,5.72,0,0,0,0,0,0-.5-.51-1.01-1.03-1.51-1.54Z"/><path class="cls-19" d="m79.04,168.16c-.25-.26-.5-.53-.75-.79.25.26.5.53.75.79Z"/><path class="cls-26" d="m198.83,114.49c1.94-.21,3.87-.43,5.81-.64.06.34.12.68.18,1.02-4.75.91-9.5,1.82-14.25,2.73,2.75-1.04,5.51-2.08,8.27-3.11Z"/><path class="cls-26" d="m190.6,117.52c-.47.11-.94.23-1.4.34.47-.11.94-.23,1.4-.34Z"/><path class="cls-9" d="m105.04,210.24c3.37-.63,2.67-3.68,2.93-5.72.39-2.96,1.33-4.98,4.33-5.78,3.16-.84,2.67-3.07,1.93-5.35,2.42,2.16,4.83,4.34,7.28,6.47,1.1.95,2.27,1.82,3.41,2.72.51.51,1.02,1.02,1.53,1.53,0,0,0,0,0,0,1.18,2.9.24,4.26-2.63,5.83-2.22,1.21-4.28,4.19-4.82,6.73-1.29,6.03-.91,6.12-7.08,6.56-2.29-4.33-4.59-8.66-6.88-12.99Z"/><path class="cls-26" d="m162.99,172.63c1.46.47,2.92.94,5.15,1.65-8.65,0-16.33.02-24.01-.03-.8,0-1.6-.48-2.4-.74,5.35-.5,10.7-1.09,16.07-1.45,1.71-.12,3.46.36,5.19.57Z"/><path class="cls-18" d="m136.81,158.36c-.87-.99-1.78-1.94-2.52-3.02-.08-.11.88-.94,1.36-1.44.79,1.13,1.59,2.26,2.38,3.4-.4.35-.81.7-1.21,1.05Z"/><path class="cls-20" d="m150.15,162.82c1.28,1.02,2.55,2.03,3.83,3.05-1.28-1.02-2.55-2.03-3.83-3.05Z"/><path class="cls-20" d="m156.22,167.43c.78.5,1.56,1,2.35,1.5-.78-.5-1.56-1-2.35-1.5Z"/><path class="cls-20" d="m142.53,156.69c.75.51,1.5,1.03,2.26,1.54-.75-.51-1.5-1.03-2.26-1.54Z"/><path class="cls-20" d="m144.79,158.24c.51.5,1.02,1.01,1.54,1.51-.51-.5-1.02-1.01-1.54-1.51Z"/><path class="cls-18" d="m126.45,204.11c-.51-.51-1.02-1.02-1.53-1.53.51,0,1.02,0,1.53,0,0,.51,0,1.02,0,1.53Z"/><path class="cls-20" d="m146.34,159.76c.5.28,1,.56,1.49.83-.5-.28-1-.56-1.49-.83Z"/><path class="cls-20" d="m153.98,165.87c.5.28,1,.55,1.5.83-.5-.28-1-.55-1.5-.83Z"/><path class="cls-26" d="m176.91,162.81c.35,1.2.93,2.4.93,3.59,0,.59-1.1,1.18-1.7,1.76-.76-.51-1.53-1.02-2.29-1.54-1.53-1.02-3.06-2.04-4.58-3.05-9.6-6.48-19.21-12.93-28.76-19.48-.83-.57-1.23-1.78-1.82-2.7,5.15,2.24,10.47,4.14,15.39,6.81,5.5,2.99,10.63,6.67,15.92,10.06.12.11.25.21.37.32l-.31-.38c-2.28-8.91-4.56-17.82-6.85-26.73.49,0,.98,0,1.46,0,0,.25,0,.5,0,.76.25.51.5,1.02.75,1.54.26.77.51,1.53.77,2.3.31,1.6.37,3.31.98,4.79,1.94,4.79,4,9.54,6.16,14.23,1,2.16,2.36,4.14,3.56,6.21,0,.51,0,1.02,0,1.52Z"/><path class="cls-1" d="m164.68,131.46c-.49,0-.98,0-1.46,0-.01-.77-.02-1.53-.04-2.3.5.76,1,1.53,1.5,2.29Z"/><path class="cls-1" d="m163.07,126.89c.02.25.04.51.06.76-.02-.25-.04-.51-.06-.76Z"/><path class="cls-1" d="m169.27,163.57c1.53,1.02,3.06,2.04,4.58,3.05-1.53-1.02-3.06-2.04-4.58-3.05Z"/><path class="cls-1" d="m176.91,161.29c-1.2-2.06-2.56-4.05-3.56-6.21-2.17-4.69-4.23-9.44-6.16-14.23-.6-1.49-.67-3.19-.98-4.79.82.71,2.05,1.26,2.39,2.16,2.86,7.66,5.56,15.38,8.31,23.08Z"/><path class="cls-1" d="m165.44,133.75c-.25-.51-.5-1.02-.75-1.54.25.51.5,1.02.75,1.54Z"/><path class="cls-24" d="m280.83,216.34c-1.1-.49-2.19-1.35-3.31-1.39-4.5-.17-9-.09-13.5-.11-.52-2.76-1.04-5.53-1.56-8.29.53-1.44,1.56-2.9,1.48-4.3-.18-3.05-.93-6.07-1.45-9.1,1.35-2.99,2.69-5.98,4.04-8.97,1.86,4.09,3.65,8.22,5.63,12.25.58,1.18,1.69,2.1,2.55,3.14.07.56.15,1.11.22,1.67.18-.05.35-.1.53-.15-.21-.54-.42-1.08-.63-1.62-.01-.75-.02-1.5-.03-2.24,0-3.1,0-6.21,0-9.25,3.43,2.68,6.47,5.42,9.86,7.62,4.72,3.05,9.7,5.69,14.57,8.51.8,2.19,1.45,4.45,2.43,6.55.99,2.12,2.55,3.99,3.42,6.14,1.1,2.73,1.44,5.64,4.43,7.48,1.06.66.85,3.39,1.22,5.17-.01.23-.05.45-.11.67-.22.38-.43.76-.65,1.13-.05,1.94-.1,3.88-.14,5.82.04,3.02.09,6.03.13,9.05-2.32,1.26-4.63,2.52-6.95,3.77,0-.48,0-.96,0-1.44,1.67-.96,1.92-1.83.07-3.01-1.43-.92-2.68-2.14-3.94-3.3-2.18-2.01-4.37-4.03-6.44-6.15-1.25-1.29-3.19-2.77-3.23-4.21-.11-3.9-.43-7.05-4.71-6.59-.88-2.85-1.57-5.09-2.26-7.32-.56-.51-1.13-1.02-1.69-1.54Z"/><path class="cls-1" d="m299.22,204.1c-4.87-2.82-9.86-5.46-14.57-8.51-3.4-2.2-6.44-4.94-9.86-7.62,0,3.04,0,6.15,0,9.25-2.05-5.86-4.1-11.73-6.15-17.59l.02-.02c1.56.72,3.11,1.44,5.55,2.56-1.39-2.38-2.34-3.99-3.28-5.6,0,0,.02-.02.02-.02,1.99.26,3.98.66,5.98.75,11.47.56,22.95,1.04,34.42,1.59.56.03,1.1.49,1.65.75,0,.24,0,.49,0,.73-.51.02-1.01.03-1.52.05-9.63.56-19.26,1.12-28.12,1.63,5.53,6.47,11.83,13.84,18.62,21.77-1.54.14-2.14.2-2.73.25Zm-19.4-17.03c-.21-.09-.47-.3-.62-.24-.15.06-.32.44-.26.59.06.15.44.32.59.26.15-.06.2-.39.29-.6Zm2.78,2.99c.09-.21.3-.47.24-.62-.06-.15-.39-.2-.6-.29-.09.21-.3.47-.24.62.06.15.39.2.6.29Z"/><path class="cls-20" d="m322.19,140.65c-2.02,2.42-4,4.87-6.09,7.23-.91,1.02-2.06,1.82-3.1,2.72-.53.81-1.07,1.62-1.6,2.43-1.48.76-2.96,1.52-4.44,2.28-1.36-.02-2.99-.54-4.03.03-4.18,2.26-8.15,4.89-12.24,7.3-4.76,2.81-9.58,5.53-14.37,8.29.11.48.21.95.32,1.43,1.77.13,3.62.65,5.3.32,5.6-1.13,10.97-.29,16.5.65,4.49.76,9.2.16,13.82.16,0,0,0,0,0,0,.43.47.86.95,1.29,1.42.33-.45.65-.91.98-1.36,3.09.99,6.18,1.97,9.27,2.95-18.44.6-36.74-.78-54.95-3.41-.13-.34-.26-.68-.39-1.02,2.68-1.71,5.31-3.51,8.06-5.12,13.75-8.07,27.53-16.09,41.31-24.11,1.41-.82,2.92-1.46,4.39-2.19Z"/><path class="cls-26" d="m312.24,173.5c-4.61,0-9.33.6-13.82-.16-5.54-.94-10.91-1.78-16.5-.65-1.68.34-3.53-.19-5.3-.32-.11-.48-.21-.95-.32-1.43,4.79-2.76,9.6-5.48,14.37-8.29,4.1-2.41,8.07-5.05,12.24-7.3,1.04-.56,2.67-.05,4.03-.03-6.38,4.55-12.77,9.1-18.91,13.47,3.94.54,8.38,1.22,12.84,1.71.93.1,1.94-.51,2.92-.79,1.09.76,2.11,1.71,3.3,2.22,1.64.7,3.42,1.07,5.14,1.58Z"/><path class="cls-22" d="m303.8,169.7c-.97.28-1.98.89-2.92.79-4.46-.49-8.91-1.17-12.84-1.71,6.14-4.37,12.52-8.92,18.91-13.47,1.48-.76,2.96-1.52,4.44-2.28-1.44,4.07-2.74,8.2-4.39,12.19-.68,1.65-2.11,2.99-3.2,4.48Z"/><path class="cls-8" d="m312.99,180.4c0-.24,0-.49,0-.73,1.52-.02,3.04-.04,4.56-.06-1.08,2.83-2.98.9-4.57.79Z"/><path class="cls-8" d="m317.56,179.62c1.53-.27,3.05-.55,4.58-.83-1.53.27-3.05.55-4.58.83Z"/><path class="cls-26" d="m314.51,173.55c-.33.45-.65.91-.98,1.36-.43-.47-.86-.95-1.29-1.42.76.02,1.51.04,2.27.05Z"/><path class="cls-17" d="m309.84,237.08c.05-1.94.1-3.88.15-5.82,0,0,.07-.02.07-.02,2.6,1.52,5.2,3.03,7.68,4.48-.26,2.89-.56,6.25-.87,9.61-1.06.53-2.13,1.06-3.19,1.59.34-1.58.68-3.17,1.06-4.94-3.65.02-4.72-2.04-4.9-4.9Z"/><path class="cls-21" d="m326.81,258.38c-.21-.23-.42-.45-.62-.68.21.23.42.45.62.68Z"/><path class="cls-8" d="m310.05,231.24s-.07.02-.07.02c.21-.38.43-.75.64-1.13-.19.37-.38.74-.57,1.12Z"/><path class="cls-25" d="m325.2,138.32c.07-.1.13-.2.2-.31-.05.12-.11.23-.16.35,0,0-.04-.04-.04-.04Z"/><path class="cls-22" d="m266.52,184.18c-1.35,2.99-2.69,5.98-4.04,8.97-1.81-4.24-3.62-8.48-5.43-12.73.07-.25.14-.5.21-.75,2.76-1.26,5.52-2.52,8.28-3.78.33,2.76.65,5.52.98,8.28Z"/><path class="cls-20" d="m259.53,135.88c.77,3.03,1.67,6.03,2.29,9.09,1.49,7.29,2.85,14.6,4.42,22.69-1.05-.91-1.86-1.24-1.98-1.75-2.12-8.69-4.24-17.38-6.1-26.12-.23-1.1-2.03-3.69,1.38-3.88,0,0-.01-.02-.01-.02Z"/><path class="cls-22" d="m254.07,171.42c.58-1.28,1.17-2.56,1.75-3.84,2.43,1.49,4.86,2.98,7.29,4.47-.41.65-.68,1.48-1.25,1.91-1.99,1.47-4.08,2.79-6.14,4.17-.99-.02-1.98-.04-2.97-.07.44-2.21.88-4.43,1.32-6.64Z"/><path class="cls-20" d="m255.72,178.13c2.05-1.38,4.15-2.7,6.14-4.17.57-.42.84-1.26,1.25-1.91,1.28.4,2.56.8,4.26,1.34-.74,1.02-1.29,1.76-1.83,2.51-2.76,1.26-5.52,2.52-8.28,3.78-.51-.51-1.03-1.03-1.54-1.54Z"/><path class="cls-20" d="m268.64,159.13c-.2.41-.35.71-.5,1-.3-.25-.68-.46-.87-.78-.07-.11.29-.63.54-.72.18-.06.5.29.83.5Z"/><path class="cls-1" d="m268.64,179.64c-.21-.52-.43-1.03-.64-1.55.17-.05.35-.1.52-.14.05.56.09,1.12.14,1.67,0,0-.02.02-.02.02Z"/><path class="cls-20" d="m257.75,133.12c-.1.03-.25.1-.28.07-.07-.09-.08-.21-.11-.32.1-.03.26-.1.28-.07.07.08.08.21.11.32Z"/><path class="cls-1" d="m270.17,175.82c-.11-.06-.21-.12-.32-.19.11.06.22.11.34.17l-.02.02Z"/><path class="cls-1" d="m270.19,175.8c.25.25.51.51.76.76,0,0-.02.02-.02.02-.25-.25-.51-.51-.76-.76,0,0,.02-.02.02-.02Z"/><path class="cls-27" d="m257.06,180.42c1.81,4.24,3.62,8.48,5.43,12.73.52,3.03,1.27,6.05,1.45,9.1.08,1.4-.95,2.87-1.47,4.3-.94.36-1.88.71-2.82,1.07-.43-2.91.19-6.29-3.15-7.83-1.44,1.58-2.67,2.93-3.9,4.28-2.76.73-6.62-.42-7.41,4.4h8.1c2.12-.22,4.23-.44,6.35-.66-1.03,2.35-2.05,4.71-3.08,7.06-5.23,1.04-10.47,2.07-15.6,3.09,1.61,1.09,3.55,2.42,5.5,3.74,0,.24-.02.47-.05.7-1.76.27-3.52.55-5.28.82-3.68-1.1-7.33-2.33-11.06-3.18-.69-.16-2.16,1.03-2.52,1.9-1,2.41-1.61,4.98-2.37,7.48-.56,1.47-1.12,2.94-1.69,4.43-1.44-.62-2.53-1.09-3.67-1.58.95-5.54,1.84-10.77,2.73-16.01,0,0,.29.02.29.03,1.39-2.4,2.27-5.24,5.35-6.19,2.34-.57,4.69-1.14,7.03-1.71,3.21-.81,6.43-1.63,9.71-2.46-.89-1.25-1.39-1.95-1.89-2.65.1-.45.19-.9.29-1.35.57-.13,1.14-.26,1.72-.39,3.05,0,3.78-2.21,4.04-4.55.55-4.76.9-9.55,1.33-14.32,2.21-.76,4.42-1.52,6.63-2.27Z"/><path class="cls-22" d="m245.05,201.56c-.57.13-1.14.26-1.71.38-1.99,1.9-6.3-1.32-7.39,3.35,2.88.45,5.47.99,7.1-2,.5.7.99,1.4,1.89,2.65-3.28.83-6.5,1.65-9.71,2.46-1.64-3.96-3.28-7.92-4.93-11.88,1.47-.54,2.95-1.09,4.42-1.63,2.9,2.79,6.33,4.18,10.38,3.86-.02.93-.03,1.87-.05,2.8Z"/><path class="cls-27" d="m245.1,198.76c-4.06.32-7.48-1.07-10.38-3.86.14-.48.28-.96.42-1.43.55-.09,1.1-.18,1.65-.27,5.54,2.01,7.97-1.84,10.48-5.55-.72,3.7-1.45,7.41-2.18,11.11Z"/><path class="cls-22" d="m247.28,187.65c-2.51,3.71-4.95,7.56-10.48,5.55,3.48-2.24,6.95-4.48,10.43-6.72.02.39.04.78.06,1.17Z"/><path class="cls-26" d="m257.06,180.42c-2.21.76-4.42,1.52-6.63,2.27.77-1.54,1.55-3.09,2.32-4.63.99.02,1.98.04,2.97.07.51.51,1.03,1.03,1.54,1.54-.07.25-.14.5-.21.75Z"/><path class="cls-22" d="m247.21,186.5c.26-.16.53-.31.79-.47-.27.16-.53.31-.79.47Z"/><path class="cls-4" d="m256.83,157.13c.05.3.1.6.15.89-.27-.1-.54-.2-.82-.3.22-.2.45-.4.67-.6Z"/><path class="cls-3" d="m214.52,181.01c.99,1.05,1.98,2.11,2.96,3.16,1.23,1.51,2.47,3.02,3.7,4.52,2.12,2.16,4.24,4.32,6.36,6.48.45.63.9,1.25,1.35,1.88.46,2.42,2.96,5.05-.71,7.06-1.81,1.01-3.61,2.02-5.42,3.02-.51.27-1.02.53-1.53.8-.24.2-.47.41-.71.61-.27.05-.54.1-.81.15-.55-1.87-.76-3.93-1.72-5.56-2.4-4.11-5.17-8-7.73-12.02-2.79-4.38-2.55-5.3,1.65-8,.94-.6,1.75-1.4,2.61-2.1Z"/><path class="cls-20" d="m227.54,195.19c-2.12-2.16-4.24-4.32-6.35-6.48.55-2.47,1.09-4.93,1.64-7.4,2.81-.11,4.35,1.53,4.54,4.03.26,3.26,2.56,6.54.18,9.85Z"/><path class="cls-8" d="m228.17,204.12c3.67-2.01,1.17-4.64.71-7.06.47-.18.94-.36,1.41-.54,1.64,3.96,3.28,7.92,4.92,11.88-2.34.57-4.69,1.14-7.03,1.71,0-2,0-3.99-.01-5.99Z"/><path class="cls-10" d="m222.82,181.31c-.55,2.47-1.09,4.93-1.64,7.4-1.23-1.51-2.47-3.02-3.7-4.52,1.28-1.26,2.56-2.51,3.85-3.77.5.3.99.6,1.49.9Z"/><path class="cls-2" d="m222.55,216.28c-.89,5.23-1.79,10.46-2.73,16.01,1.14.49,2.23.96,3.67,1.58.57-1.49,1.13-2.96,1.69-4.43,1.72,3.1-.56,5.25-1.82,7.64-3.55-1.05-6.99-.57-10.33.83-.58.24-.94.98-1.41,1.49.54.43,1.05,1.18,1.62,1.24,2.13.2,4.29.18,6.44.23.28,2.5.57,4.99.86,7.49-1.8.04-3.6.08-5.4.13-9.38-.02-18.75.01-28.13-.11-1.37-.02-2.72-.74-4.08-1.13,4.05-4.45,8.1-8.89,12.15-13.34-.32-.32-.65-.65-.97-.97-.65.54-1.3,1.08-1.96,1.63-.93.32-1.85.64-2.78.97-1.12.71-2.23,1.43-3.35,2.14-.52.24-1.05.49-1.57.73-.29.22-.58.43-.87.65-2.07,1.02-4.13,2.04-6.41,3.16.99-4.67,1.94-9.1,2.88-13.54.26-3.54.52-7.09.79-10.63,1.18-.56,2.35-1.6,3.53-1.62,12.73-.14,25.47-.12,38.2-.14Z"/><path class="cls-1" d="m192.14,234.55c.65-.54,1.3-1.08,1.96-1.63.32.32.65.65.97.97-4.05,4.45-8.1,8.9-12.15,13.34-1.1.59-2.2,1.19-4.08,2.21,5.51.87,10.23,1.62,15.83,2.51-5.23,3.23-10.52,2.2-15.35,3.25-.16-.08-.33-.15-.49-.23.09.15.17.31.26.46,1.07,1.23,2.14,2.46,3.2,3.69l-.16.15c-2.51-.83-5.03-1.67-7.54-2.5-.76-.47-1.53-.93-2.29-1.4-2.23-.78-4.41-1.74-6.69-2.29-3.64-.88-7.35-1.49-11.04-2.21.03-.23.05-.46.08-.7,1.88-.44,3.77-.87,5.72-1.32-3.51-3.7-6.89-7.26-10.27-10.82.2-.22.39-.44.59-.66,1.35.62,2.69,1.24,4.04,1.87,2.8,1.29,5.6,2.57,8.4,3.86.1.33.2.66.31.99.1-.06.19-.13.29-.19-.19-.27-.38-.54-.57-.81-.76-5.59-1.57-11.18-2.25-16.78-.19-1.58-.03-3.2.73-5.02,2.06,3.68,4.12,7.37,6.18,11.05.58,2.46,1.16,4.92,1.66,7.03,3.78-6.85,7.46-13.54,11.15-20.23-2.01,6.23-4.03,12.46-6.04,18.7-1.32,4.1-2.63,8.21-3.95,12.31l1.68.43c.28-1.37.43-2.79.86-4.12,2-6.18,4.07-12.33,6.11-18.49.25.23.5.46.74.69-.94,4.43-1.89,8.87-2.88,13.54,2.27-1.12,4.34-2.14,6.41-3.16l.26.27c-.46.83-.91,1.67-1.37,2.5l.88.66c1.68-1.57,3.36-3.15,5.05-4.72h0c.25-.26.51-.51.76-.76h0c.51-.26,1.01-.51,1.52-.76h0c.49-.57.97-1.12,1.46-1.67Zm-15.99,12.37c-.06.11-.12.21-.17.32.06-.11.12-.21.18-.32.06-.11.12-.21.17-.32-.06.11-.12.21-.18.32Zm3.82-3.06c.39-.31.78-.61,1.17-.92-.08-.08-.16-.16-.25-.25-.31.39-.61.78-.92,1.17-.39.31-.78.61-1.16.92.08.08.16.16.25.25.31-.39.61-.78.92-1.16Z"/><path class="cls-24" d="m172.3,255.38c.76.47,1.53.93,2.29,1.4,1.47,9.39,2.88,18.79,4.45,28.16.69,4.12,1.72,8.19,2.59,12.29-.7.15-1.7.66-2.06.37-1.5-1.22-2.81-2.67-4.19-4.04-4.99-5.85-9.89-11.79-15.02-17.52-2.92-3.27-6.22-6.2-9.34-9.29-.13-.57-.27-1.13-.4-1.69,1.41-.41,2.89-.67,4.2-1.28,3.03-1.42,5.99-3.01,8.97-4.53,1.26.39,2.51.78,4.15,1.29,1.33-1.57,2.84-3.36,4.36-5.14Z"/><path class="cls-18" d="m175.39,293.56c1.38,1.37,2.69,2.82,4.19,4.04.35.29,1.35-.23,2.06-.37.83,3.02,1.67,6.04,2.5,9.06-5.24-1.32-11.02-.7-15.64-4.31,6.33-1,6.74-1.5,6.89-8.42Z"/><path class="cls-1" d="m182.3,259.13c.18.13.36.26.55.39-.23-.08-.47-.16-.7-.24,0,0,.16-.15.16-.15Z"/><path class="cls-16" d="m122.63,266.81c-.26-.26-.51-.51-.77-.77-2.06-3.36-3.81-6.96-6.25-10.01-3.79-4.76-8.05-9.15-12.11-13.69-4.34-4.34-8.62-8.75-13.06-12.99-2.16-2.06-4.64-3.8-6.97-5.68.14-.35.28-.7.43-1.04,4.79,1.66,9.8,2.87,14.34,5.07,7.27,3.53,14.23,7.7,21.33,11.6.66.51,1.33,1.01,1.99,1.53,3.93,3.08,7.87,6.15,11.8,9.23-2.88,7.65-3.41,15.62-3.18,23.69-1.99-1.81-3.98-3.63-5.96-5.44-.53-.5-1.06-1-1.59-1.49Z"/><path class="cls-3" d="m130.18,273.75c-.23-8.07.3-16.04,3.18-23.69,1.37-2.31,2.74-4.62,4.11-6.93,2.71-.49,4.51.79,5.81,3.03-.01.75-.03,1.5-.04,2.25-3.87,6.93-8.4,13.6-8.55,22.12.95.05,1.69.08,2.43.12h.02c0,.2,0,.39,0,.58-.75.58-1.69,1.03-2.2,1.77-.59.86-.81,1.99-1.19,3-.93-.46-1.86-.93-2.79-1.39-.26-.29-.53-.57-.79-.86Z"/><path class="cls-17" d="m130.97,274.6c.93.46,1.86.93,2.79,1.39.04,2.01.09,4.03.13,6.05-.44.99-.88,1.97-1.47,3.29-3.9-3.38-.7-7.32-1.45-10.73Z"/><path class="cls-16" d="m119.17,309.47c-.55-.98-1.09-1.97-1.64-2.95,1.46-.75,2.92-1.49,4.37-2.24.48,1.26.97,2.53,1.45,3.79-1.4.47-2.79.93-4.19,1.4Z"/><path class="cls-9" d="m175.39,293.56c-.15,6.92-.56,7.43-6.89,8.42-.76-.02-1.52-.05-2.28-.07-.77-.48-1.54-.97-2.31-1.45-3.57-1.53-7.14-3.05-10.72-4.58-.77-6.47-1.53-12.94-2.31-19.4-.23-1.86-.53-3.71-.81-5.57.32-1.38.63-2.77.95-4.15,3.13,3.09,6.42,6.02,9.34,9.29,5.13,5.73,10.03,11.67,15.02,17.52Z"/><path class="cls-2" d="m151.02,266.75c-.32,1.38-.63,2.77-.95,4.15-1-.08-2-.17-3-.26-3.31,0-6.63.01-9.94.02,0,0-.02-.01-.02-.01,1.65-.43,3.31-.86,5.69-1.48.14-6.78.29-13.77.43-20.76.01-.75.03-1.5.04-2.25.75.25,1.5.5,2.25.76,1.7,6.04,3.4,12.09,5.1,18.13.13.57.27,1.13.4,1.7Z"/><path class="cls-10" d="m137.14,270.66c3.31,0,6.63-.01,9.94-.02-3.31.2-6.62.39-9.93.59,0-.19,0-.38,0-.57Z"/><path class="cls-18" d="m163.92,300.45c.77.48,1.54.97,2.31,1.45-.77-.49-1.54-.97-2.31-1.45Z"/><path class="cls-18" d="m137.46,243.13c-1.37,2.31-2.74,4.62-4.11,6.93-3.93-3.08-7.87-6.16-11.8-9.23-.66-.52-1.33-1.02-1.99-1.53-.14-1.05-.02-2.24-.48-3.11-2.3-4.36-4.76-8.65-7.16-12.96,6.17-.44,5.79-.53,7.08-6.56.54-2.53,2.6-5.52,4.82-6.73,2.87-1.57,3.81-2.93,2.63-5.83,3.64,3.96,7.25,7.94,10.92,11.86,1.38,1.47,2.91,2.8,4.36,4.2,0,.25,0,.51,0,.76.51.51,1.01,1.03,1.52,1.54,0,.45,0,.89-.01,1.34-.51-.01-1.02-.03-1.54-.04-.24,0-.47.01-.71.02-6.15,2.09-7.02,6.62-2.17,11.23.05,1.93.1,3.85.15,5.78-.51.78-1.01,1.56-1.52,2.33Z"/><path class="cls-9" d="m100.47,204.1c.51.51,1.01,1.03,1.52,1.54-.51-.51-1.01-1.03-1.52-1.54Z"/><path class="cls-9" d="m103.52,208.69c.5.51,1.01,1.03,1.51,1.54-.5-.51-1.01-1.03-1.51-1.54Z"/><path class="cls-7" d="m214.52,181.01c-.87.71-1.68,1.5-2.61,2.1-4.2,2.7-4.44,3.63-1.65,8,2.56,4.02,5.33,7.91,7.73,12.02.95,1.63,1.17,3.69,1.72,5.56-2.26,1.52-4.52,3.03-6.92,4.64-1.11-1.2-2.02-2.19-2.93-3.17-2.18-4.25-2.76-9.51-7.63-12.06.59-.15,1.18-.29,1.49-.37-1-3.19-1.93-6.2-2.87-9.2,1.58-1.97,3.15-3.93,4.99-6.23,2.41-.36,5.55-.83,8.7-1.3Z"/><path class="cls-26" d="m207.58,159.85c.38-.53.76-1.05,1.15-1.58-.38.53-.76,1.05-1.15,1.58Z"/><path class="cls-7" d="m280.83,216.34c.56.51,1.13,1.02,1.69,1.54.01,3.31.03,6.62.05,9.93-.01.76-.02,1.53-.03,2.29-.07,2.53.35,5.19-.32,7.56-1.19,4.23.1,9.87-5.87,11.75-3.86-3.21-7.73-6.42-11.91-9.9-.12.97-.23,1.85-.35,2.73-.17.44-.34.89-.52,1.37-.38-.21-.76-.32-.77-.45-.11-4.68-.71-9.42-.12-14.01.52-4.03,2.26-7.93,3.74-11.77.24-.63,1.93-.95,2.97-.98,3.81-.11,7.63-.04,11.44-.04Z"/><path class="cls-13" d="m282.57,227.81c-.02-3.31-.03-6.62-.05-9.93.69,2.24,1.38,4.47,2.26,7.32,4.28-.46,4.59,2.7,4.71,6.59.04,1.44,1.98,2.92,3.23,4.21,2.07,2.13,4.26,4.14,6.44,6.15,1.26,1.16,2.51,2.39,3.94,3.3,1.84,1.18,1.59,2.04-.07,3.01-4.12,3.84-8.23,7.68-12.1,11.28-1.4-7.84-2.9-16.21-4.39-24.57-.55.04-1.11.09-1.66.13-.32,3.87-.63,7.75-.95,11.62-.5,3.81-1.01,7.63-1.51,11.44,0,0,0,.02,0,.02-1.53-2.04-3.05-4.08-4.58-6.12,0,0,0-.01,0-.01-.24-.26-.49-.53-.73-.79-.25-.69-.5-1.37-.76-2.06,5.97-1.88,4.68-7.52,5.87-11.75.66-2.36.25-5.03.32-7.56.43-.43.86-.87,1.28-1.3-.42-.33-.83-.66-1.25-.99Z"/><path class="cls-11" d="m303.02,249.9c2.32-1.26,4.63-2.52,6.95-3.77.99.73,1.99,1.46,2.98,2.18-.33,2.06-.66,4.12-.99,6.18,0,0-.2-.03-.2-.03,0,0-.19.04-.19.04-.59.49-1.18.97-1.77,1.46-1.2.6-2.64.95-3.56,1.84-1.79,1.74-3.3,3.77-4.92,5.68-1.83.35-3.65.7-5.62,1.07,2.53-5.06,4.92-9.86,7.32-14.66Z"/><path class="cls-25" d="m301.32,263.49c1.62-1.91,3.13-3.95,4.92-5.68.92-.89,2.36-1.24,3.56-1.84.13,4.02-2.49,6.54-4.9,9.23-1.52,1.7-2.82,3.59-4.22,5.4-.87.33-1.73.66-2.6.98.89-2.09,1.78-4.17,2.66-6.26.19-.61.38-1.22.57-1.83Z"/><path class="cls-11" d="m300.75,265.32c-.89,2.09-1.77,4.17-2.66,6.26-1.77,1.62-2.85,4.68-6.21,3-.87-2.79-.27-4.59,2.81-5.66,2.18-.75,4.05-2.37,6.06-3.6Z"/><path class="cls-26" d="m282.42,258.36c.5-3.81,1.01-7.63,1.51-11.44.26,1.8.67,3.6.73,5.41.12,3.33.03,6.67.03,10.23-2.31-.28-2.34-2.21-2.28-4.2Z"/><path class="cls-26" d="m277.85,252.26c1.53,2.04,3.05,4.08,4.58,6.12-3.17-.81-4.39-3.08-4.58-6.12Z"/><path class="cls-26" d="m277.11,251.46c.24.26.49.53.73.79-.24-.26-.49-.53-.73-.79Z"/><path class="cls-24" d="m278.59,276.74c.06-.11.12-.21.18-.32-.06.11-.12.22-.18.32h0Z"/><path class="cls-15" d="m219.68,240.86c-2.15-.06-4.3-.03-6.44-.23-.57-.05-1.08-.81-1.62-1.24.46-.51.83-1.25,1.41-1.49,3.34-1.4,6.78-1.87,10.33-.83.63,3.07-1.44,3.51-3.68,3.79Z"/><path class="cls-15" d="m247.54,221.79c1.36-.29,2.73-.58,4.2-.89.08,5.84-1.4,10.12-3.84,11.07-.17-2.69-.34-5.29-.51-7.89.05-.77.1-1.53.16-2.3Z"/><path class="cls-11" d="m259.64,207.62c.94-.36,1.88-.71,2.82-1.07.52,2.76,1.04,5.53,1.56,8.29-2.48,2.87-4.98.56-7.47.03,1.03-2.35,2.05-4.71,3.08-7.06,0,0,0-.2,0-.2Z"/><path class="cls-10" d="m247.54,221.79c-.05.77-.1,1.53-.16,2.3-.32-.56-.65-1.12-.97-1.68.03-.23.05-.47.05-.7.36.03.72.05,1.08.08Z"/><path class="cls-15" d="m312.95,248.31c-.99-.73-1.99-1.46-2.98-2.18-.04-3.02-.09-6.03-.13-9.05.18,2.86,1.24,4.93,4.9,4.9-.38,1.77-.72,3.36-1.06,4.94-.24.46-.48.93-.72,1.39Z"/><path class="cls-29" d="m172.3,255.38c-1.51,1.79-3.02,3.57-4.36,5.14-1.64-.51-2.89-.9-4.15-1.29-1.86-1.05-3.43-2.16-5.85-.51-2.01,1.37-4.17-.03-5.44-1.98-2.24-3.45-4.32-6.99-6.47-10.5-.68-1.32-1.36-2.64-2.04-3.95.01-1.03.03-2.07.04-3.1,2.36-.15,3.23-1.55,3.14-3.75.24-2.04.49-4.08.73-6.12,3.86,2.21,5.23,6.14,6.82,9.92-1.35-.62-2.69-1.25-4.04-1.87-.2.22-.39.44-.59.66,3.38,3.56,6.76,7.12,10.27,10.82-1.95.45-3.84.89-5.72,1.32-.03.23-.05.46-.08.7,3.68.72,7.39,1.33,11.04,2.21,2.28.55,4.46,1.51,6.69,2.29Z"/><path class="cls-23" d="m180.63,219.14c-3.69,6.69-7.37,13.38-11.15,20.23-.5-2.11-1.08-4.57-1.66-7.03,0-3.93-.03-7.86-.02-11.79.01-4.47,1.1-5.54,5.6-5.61,1.26-.02,2.53-.1,3.79-.15,3.9-.02,7.79-.03,11.69-.05,1.3.3,2.6.83,3.91.85,7.5.08,15,.04,22.5.05,1.19-.16,2.39-.32,3.58-.48,1.02-.1,2.04-.2,3.07-.31.3.48.6.96.9,1.44,0,0-.29-.02-.29-.02-12.73.02-25.47,0-38.2.14-1.18.01-2.35,1.05-3.53,1.62-.06.37-.13.74-.19,1.11Z"/><path class="cls-15" d="m138.84,235.02c-4.85-4.61-3.97-9.14,2.17-11.23,0,0,.36.06.36.06,0,0,.35-.09.35-.09.51.01,1.02.03,1.54.04,1.45,1.11,5.3-.14,3.79,3.87-2.6.56-3.97,2.3-4.57,4.78-.86-.24-1.72-.47-2.52-.69-.38,1.12-.75,2.19-1.12,3.26Z"/><path class="cls-26" d="m143.33,209.47c4.6-2.71,9.24-5.36,13.78-8.16,2.85-1.75,5.56-3.74,8.33-5.62-1.49,1.78-2.89,3.64-4.48,5.33-1.74,1.86-3.65,3.56-5.48,5.33-4.33,1.55-8.67,3.09-13,4.64.28-.51.57-1.01.85-1.52Z"/><path class="cls-17" d="m142.47,232.45c.59-2.48,1.96-4.22,4.57-4.78.29.55.58,1.11.88,1.66-.24,2.04-.49,4.08-.74,6.12-1.56-.9-3.12-1.81-4.68-2.71l-.03-.29Z"/><path class="cls-29" d="m143.27,222.46c-.51-.51-1.01-1.03-1.52-1.54.51.51,1.01,1.03,1.52,1.54Z"/><path class="cls-24" d="m221.94,214.86c-1.02.1-2.04.2-3.07.3-1.19.16-2.39.32-3.58.48-7.5,0-15,.04-22.5-.05-1.31-.01-2.61-.55-3.91-.85,2.17-4.51,4.33-9.02,6.5-13.53.96.45,1.92.9,2.89,1.36,3.86,2.53,7.72,5.06,11.58,7.6.91.99,1.82,1.97,2.93,3.17,2.4-1.61,4.66-3.13,6.92-4.64.27-.05.54-.1.81-.15.24-.2.47-.41.71-.61.51-.27,1.02-.53,1.53-.8-.27,2.57-.54,5.14-.82,7.71Z"/><path class="cls-7" d="m198.27,202.57c-.96-.45-1.92-.9-2.89-1.36-1.79-1.17-3.58-2.33-5.37-3.5.54-1,1.07-2,1.61-3,2.19.56,4.39,1.13,6.58,1.69.49.27.97.54,1.46.81-.68.1-1.36.19-2.04.29.01.16.03.31.04.47h2.22s-.02-.02-.02-.02c-.53,1.54-1.06,3.08-1.59,4.62Z"/><path class="cls-2" d="m191.61,194.72c-.54,1-1.07,2-1.61,3-1.07.31-2.13.62-3.2.94-.31-.2-.61-.4-.92-.6,1.09-2.28,2.18-4.56,3.78-7.93.94,2.22,1.44,3.4,1.94,4.58Z"/><path class="cls-26" d="m165.45,195.69c.25-.25.51-.51.76-.76-.25.25-.51.51-.76.76Z"/><path class="cls-3" d="m198.27,202.57c.53-1.54,1.06-3.08,1.59-4.62.78.05,1.57.11,2.35.16,4.87,2.54,5.45,7.81,7.63,12.06-3.86-2.53-7.72-5.06-11.58-7.6Z"/><path class="cls-3" d="m199.88,197.97h-2.22c-.01-.16-.03-.31-.04-.47.68-.1,1.36-.19,2.04-.29.07.25.15.5.22.76Z"/><path class="cls-18" d="m170.06,158.2l.31.38c-.12-.11-.25-.21-.37-.32,0,0,.06-.06.06-.06Z"/><path class="cls-26" d="m274.82,199.47c.21.54.42,1.08.63,1.62-.18.05-.35.1-.53.15-.07-.56-.15-1.11-.22-1.67,0,0,.12-.1.12-.1Z"/><path class="cls-26" d="m279.82,187.07c-.09.21-.14.54-.29.6-.15.06-.53-.11-.59-.26-.06-.16.11-.53.26-.59.15-.06.41.15.62.25Z"/><path class="cls-26" d="m282.6,190.06c-.21-.09-.54-.14-.6-.29-.06-.15.15-.41.24-.62.21.09.54.14.6.29.06.15-.15.41-.24.62Z"/><path class="cls-1" d="m221.94,214.86c.27-2.57.54-5.14.82-7.71,1.81-1.01,3.61-2.02,5.42-3.02,0,2,0,4,.01,5.99-3.07.94-3.95,3.79-5.35,6.18-.3-.48-.6-.96-.9-1.44Z"/><path class="cls-20" d="m259.64,207.62s0,.2,0,.2c-2.12.22-4.23.44-6.35.66-.23-1.47-.46-2.94-.7-4.41,1.23-1.35,2.47-2.7,3.9-4.28,3.34,1.54,2.71,4.92,3.15,7.83Z"/><path class="cls-13" d="m252.59,204.07c.23,1.47.46,2.94.7,4.41-2.62,0-5.25,0-8.1,0,.79-4.82,4.65-3.67,7.41-4.4Z"/><path class="cls-17" d="m243.05,203.29c-1.63,2.99-4.22,2.45-7.1,2,1.08-4.67,5.39-1.44,7.39-3.35-.1.45-.19.9-.29,1.35Z"/><path class="cls-7" d="m221.22,207.95c-.24.2-.47.41-.71.61.24-.2.47-.41.71-.61Z"/><path class="cls-20" d="m180.63,219.14c.06-.37.13-.74.19-1.11-.26,3.54-.52,7.09-.79,10.63-.25-.23-.5-.46-.74-.69-2.04,6.16-4.12,12.32-6.11,18.49-.43,1.33-.58,2.74-.86,4.12l-1.68-.43c1.32-4.1,2.63-8.21,3.95-12.31,2.01-6.23,4.03-12.46,6.04-18.7Z"/><path class="cls-1" d="m186,237.66c1.12-.71,2.23-1.43,3.35-2.14.44.23.88.46,1.32.7,0,0,0,.01,0,.01-.51.25-1.01.51-1.52.76,0,0,0,0,0,0-.25.25-.51.51-.76.76h0c-.75.02-1.51.03-2.26.05l-.11-.14Z"/><path class="cls-20" d="m190.68,236.21c-.44-.23-.88-.46-1.32-.7.93-.32,1.85-.64,2.78-.97-.49.55-.97,1.11-1.46,1.66Z"/><path class="cls-1" d="m184.43,238.39c.53-.24,1.05-.49,1.57-.73,0,0,.11.14.11.14-.51.25-1.02.51-1.52.76l-.16-.17Z"/><path class="cls-1" d="m183.56,239.04c.29-.22.58-.43.87-.65,0,0,.16.17.16.17-.26.25-.51.5-.77.75l-.26-.27Z"/><path class="cls-20" d="m183.82,239.31c.26-.25.51-.5.77-.75.51-.25,1.02-.51,1.52-.76.75-.01,1.51-.03,2.26-.04-1.68,1.57-3.36,3.15-5.05,4.72l-.88-.66c.46-.83.91-1.67,1.37-2.5Z"/><path class="cls-20" d="m179.97,243.87c.31-.39.61-.78.92-1.17.08.08.16.16.25.25-.39.31-.78.61-1.17.92h0Z"/><path class="cls-20" d="m179.97,243.86c-.31.39-.61.78-.92,1.16-.08-.08-.16-.16-.25-.25.39-.31.78-.61,1.16-.92h0Z"/><path class="cls-20" d="m189.15,236.98c.51-.25,1.01-.51,1.52-.76-.51.25-1.01.51-1.52.76Z"/><path class="cls-8" d="m163.16,243.09c.19.27.38.54.57.81-.1.06-.19.13-.29.19-.1-.33-.2-.66-.31-.99,0,0,.02-.02.02-.02Z"/><path class="cls-20" d="m176.15,246.93c-.06.11-.12.21-.18.32.06-.11.12-.21.17-.32h0Z"/><path class="cls-20" d="m176.15,246.92c.06-.11.12-.21.18-.32-.06.11-.12.21-.17.32,0,0,0,0,0,0Z"/><path class="cls-17" d="m179.09,255.44c-.09-.15-.17-.31-.26-.46.16.08.32.15.49.23,0,0-.23.23-.23.23Z"/><path class="cls-20" d="m188.38,237.75c.25-.25.51-.51.76-.76-.25.25-.51.51-.76.76Z"/><path class="cls-3" d="m146.04,246.25c2.15,3.5,4.24,7.05,6.47,10.5,1.27,1.96,3.43,3.35,5.44,1.98,2.42-1.65,3.99-.54,5.85.51-2.99,1.52-5.94,3.11-8.97,4.53-1.31.61-2.79.87-4.2,1.28-1.7-6.05-3.4-12.09-5.1-18.14.17-.22.34-.44.51-.67Z"/><path class="cls-10" d="m143.24,248.41c-.15,6.99-.29,13.98-.43,20.76-2.38.62-4.03,1.05-5.69,1.48-.74-.04-1.48-.07-2.43-.12.16-8.52,4.68-15.19,8.55-22.12Z"/><path class="cls-10" d="m146.04,246.25c-.17.22-.34.44-.51.67-.75-.25-1.5-.5-2.25-.76-1.3-2.24-3.1-3.51-5.81-3.03.51-.78,1.02-1.56,1.52-2.33,1.67.5,3.34,1,5.02,1.5.68,1.32,1.36,2.64,2.04,3.95Z"/><path class="cls-5" d="m144,242.3c-1.67-.5-3.35-1-5.02-1.5-.05-1.93-.1-3.85-.14-5.78.37-1.07.74-2.14,1.12-3.26.8.22,1.66.46,2.52.69,0,0,.03.29.03.29-1.86,2.71-.51,4.67,1.53,6.46-.01,1.03-.03,2.07-.04,3.1Z"/><path class="cls-8" d="m141.72,223.76l-.35.09s-.36-.06-.36-.06c.24,0,.47-.01.71-.02Z"/><path class="cls-24" d="m282.57,227.81c.42.33.83.66,1.25.99-.43.43-.86.87-1.28,1.3.01-.76.02-1.53.03-2.29Z"/><path class="cls-15" d="m144.04,239.2c-2.05-1.79-3.39-3.74-1.53-6.46,1.56.9,3.12,1.81,4.68,2.71.08,2.2-.78,3.6-3.14,3.75Z"/><path class="cls-2" d="m215.29,215.64c1.19-.16,2.39-.32,3.58-.48-1.2.16-2.39.32-3.58.48Z"/></svg>