<?xml version="1.0" encoding="UTF-8"?><svg id="Layer_1" xmlns="http://www.w3.org/2000/svg" viewBox="0 0 450 350"><defs><style>.cls-1{fill:#e5a029;}.cls-1,.cls-2,.cls-3,.cls-4,.cls-5,.cls-6,.cls-7,.cls-8,.cls-9{stroke-width:0px;}.cls-2{fill:#add250;}.cls-3{fill:#faecd0;}.cls-4{fill:#f1aa3f;}.cls-5{fill:#e9a82a;}.cls-6{fill:#f6b455;}.cls-7{fill:#ffc56e;}.cls-8{fill:#87be00;}.cls-9{fill:#664a3b;}</style></defs><path class="cls-1" d="m366.67,183.18c-6.53-.39-14.29,4.08-21.94,8.92-24.19,15.3-42.74,48.79-73.77,48.5-14.12-.13-36.74-10-59.8-18.59l-2.43,24.21c11.25,2.63,22.39,5.74,33.36,9.68,19.1,6.85,38.33,11.93,57.74,15.96,15.53-9.74,37.87-30.74,72.69-69.44,5.17-5.74,1.85-18.77-5.86-19.23Z"/><path class="cls-4" d="m264.14,248.24c19.1,6.85,38.33,11.93,57.74,15.96,15.53-9.74,37.87-30.74,72.69-69.44,5.17-5.75,1.85-18.77-5.86-19.23-6.53-.39-14.29,4.08-21.94,8.92-24.19,15.3-42.74,48.79-73.77,48.5-31.03-.29-103.08-47.62-130.76-24.99,0,0-.1-.13-.26-.32l-1.99,19.85c35.32,3.74,70.51,8.69,104.15,20.75Z"/><path class="cls-6" d="m291.02,242.55c19.1,6.85,38.33,11.93,57.74,15.96,15.53-9.74,39.17-29.24,73.99-67.94,5.17-5.74,1.48-15.07-6.23-15.53-6.53-.39-14.47.32-22.86,3.72-21.19,8.6-42.73,48.79-73.76,48.5-31.03-.29-103.08-47.62-130.76-24.99,0,0-.1-.13-.26-.32l-1.99,19.85c35.32,3.74,70.51,8.69,104.14,20.75Z"/><path class="cls-7" d="m22.5,267.59s4.9,52.45,61.81,59.29c0,0,50.3-54.07,61.52-58.71,30.64-12.69,78.93,3.58,92.07,4.63,21.39,1.71,69.23,2.65,93.93,6.85,3.04.52,6.13-.23,8.55-2.14,7.88-6.24,26.96-20.95,45.11-31.82,12.89-7.72,23.78-24.12,39.61-41.72,5.17-5.74,1.48-15.07-6.23-15.53-6.53-.39-14.48.32-22.86,3.72-21.19,8.6-42.74,48.79-73.77,48.5-31.03-.29-103.08-47.62-130.76-24.99,0,0-33.14-41.16-62-23.73-28.86,17.43-62.75,51.3-106.98,75.66Z"/><path class="cls-9" d="m210.79,209.8c7.26-8.17,19.76-19.31,28.38-26.02,8.63-6.7,18.75-11.88,29.61-13.07,11.84-1.3,23.77,2.22,34.38,7.62,15.61,7.94,28.83,19.79,41.84,31.5-40.84,29.86-134.22-.03-134.22-.03Z"/><path class="cls-8" d="m356.46,69.34c-2.56,6.89-6.91,13.31-13.16,17.18-10.4,6.44-23.67,4.75-35.81,3.19-12.14-1.55-25.73-2.36-35.28,5.3,2.34-15.48,5.07-31.85,15.25-43.75,9.93-11.61,25.35-16.95,40.37-19.74,15.02-2.79,30.51-3.57,45-8.4-6.18,5.55-9.16,13.82-10.92,21.93-1.76,8.12-2.56,16.5-5.46,24.28Z"/><path class="cls-2" d="m308.83,73.04c-11.46,4.96-22.44,11.05-32.71,18.15,17.18-23.39,53.55-25.09,71.66-47.77-2.46,8.08-8.84,14.46-16.01,18.93-7.16,4.48-15.19,7.34-22.94,10.69Z"/><path class="cls-2" d="m304.16,55.61c-6.78,9.54-13.56,19.07-20.34,28.61,9.99-6.47,16.08-17.49,20.34-28.61Z"/><path class="cls-2" d="m323.44,45.84c-3.58,8.88-8.83,17.09-15.38,24.07,2.58-1.87,3.16.23,5.48-1.94,1.35-1.26,9.91-10.09,9.91-22.13Z"/><path class="cls-2" d="m313.53,67.97c-.48.07-1.02.18-1.25.6-.47.88.86,1.59,1.84,1.71,5.24.66,10.54,1.32,15.77.62,5.23-.71,10.46-2.95,13.68-7.13-10.01,1.4-20.03,2.8-30.05,4.2Z"/><path class="cls-2" d="m333.88,78.19c-12.77,1.15-25.7.54-38.3-1.82-.12,2.57,2.67,4.23,5.14,4.95,10.81,3.16,22.35.01,33.16-3.13Z"/><path class="cls-8" d="m269.24,53.59c-7.63-14.44-22.94-23.72-38.92-27.11-15.97-3.39-32.61-1.54-48.59,1.85,7.66,2.41,13.15,9.34,16.17,16.78,3.02,7.44,4,15.51,5.63,23.37,1.63,7.86,4.07,15.86,9.39,21.87,7.53,8.52,19.75,11.63,31.08,10.77,11.34-.87,22.08-5.17,32.62-9.43-.59-13.04-1.3-26.56-7.4-38.1Z"/><path class="cls-2" d="m237.39,62.3c-6.98-8.67-12.75-19.58-23.27-23.21,10.05,8.99,16.25,21.39,24.47,32.07,8.22,10.68,20.11,20.29,33.56,19.51-12.56-8.24-25.34-16.67-34.76-28.37Z"/><path class="cls-2" d="m248.96,49.5c-.62,5.87-1.24,11.8-.59,17.67.65,5.87,2.67,11.76,6.72,16.06-.2-4.05-1-8.05-1.79-12.03-1.45-7.23-2.89-14.47-4.34-21.7Z"/><path class="cls-2" d="m233.17,63.79c.73,1.53,3.33.68,3.83-.94.5-1.62-3.18-22.41-6.09-24.28.75,8.4,1.51,16.81,2.26,25.21Z"/><path class="cls-2" d="m235.17,66.77c.88-.11,1.87-.34,2.3-1.11.49-.87-.04-2.03-.88-2.57-.84-.54-1.89-.87-2.88-.7-8.22,1.38-12.36-.3-20.39-1.48,6.15,4.69,14.17,6.84,21.84,5.87Z"/><path class="cls-2" d="m221.36,76.43c9.2,5.34,20.54,6.87,30.84,4.17-.32-.98-.64-1.96-.96-2.93-9.96-.41-19.92-.83-29.88-1.24Z"/><path class="cls-8" d="m283.68,179.87c5.45-1.86,6.5-9,6.6-14.76.26-14.24.52-28.54-1.34-42.66-1.86-14.12-5.94-28.16-13.75-40.07-3.25,2.95-4.5,7.6-4.41,11.99.09,4.39,1.34,8.66,2.36,12.94,5.21,21.94,4.16,45.32-2.99,66.71,3.72,3.62,8.62,7.53,13.53,5.85Z"/><path class="cls-5" d="m238.12,213.9l-38.72-23.39c-69.24-23.91-63.02,6.48-72.91,12.65l46.65,26.46s34.45-15.41,123.32,5.13c0,0-55.87-20.63-58.33-20.85Z"/><path class="cls-7" d="m324.81,206.81c.6-2.4-.46-4.87-2.92-5.09-19.17-1.73-91.45-9.01-133.98-23.69-69.24-23.9-64.21,18.27-74.1,24.44l59.32,27.16s9.3-29.03,108.08-.47c0,0,37.14,3.22,43.59-22.35Z"/><path class="cls-3" d="m296.24,200.2s-11.86,5.11-5.51,12.17c3.27,3.64,8.9,5.94,19.24,3.85,7.91-1.59,11.84-6.85,12.46-10.35.29-1.62-.86-3.13-2.51-3.29l-23.68-2.38Z"/><path class="cls-3" d="m421.16,194.95c-6.97-1-19.13,3.52-18.82,20.22.07,3.88,5.66,5.53,9.54,2.47,3.36-2.65,7.84-7.59,12.57-12.41,2.35-2.4,3.84-9.25-3.29-10.27Z"/></svg>